<svg width="53" height="53" viewBox="0 0 53 53" fill="none" xmlns="http://www.w3.org/2000/svg">
<mask id="mask0_121_115" style="mask-type:luminance" maskUnits="userSpaceOnUse" x="0" y="0" width="53" height="53">
<path d="M0 0H53V53H0V0Z" fill="white"/>
</mask>
<g mask="url(#mask0_121_115)">
<path d="M7.90396 7.56111C5.49826 10.5931 4.0625 14.4273 4.0625 18.5969H21.8361V36.3716C26.0139 36.3716 29.8555 34.9296 32.8895 32.5167" stroke="#FF6A3F" stroke-width="1.5" stroke-miterlimit="10" stroke-linecap="round" stroke-linejoin="round"/>
<path d="M10.0156 5.32578C13.1563 2.52465 17.2989 0.822851 21.8381 0.822851C31.6545 0.822851 39.6118 8.78113 39.6118 18.5965C39.6118 19.8542 39.4812 21.0819 39.2319 22.2661" stroke="#FF6A3F" stroke-width="1.5" stroke-miterlimit="10" stroke-linecap="round" stroke-linejoin="round"/>
<path d="M28.5691 42.5519H23.4276C22.5572 42.5519 21.8516 43.2575 21.8516 44.1279V52.1772H30.145V44.1279C30.145 43.2575 29.4395 42.5519 28.5691 42.5519Z" stroke="#FF6A3F" stroke-width="1.5" stroke-miterlimit="10" stroke-linecap="round" stroke-linejoin="round"/>
<path d="M41.1832 46.3478V52.1768H32.8906V23.8414C32.8906 22.9709 33.5955 22.2659 34.466 22.2659H39.6076C40.4782 22.2659 41.1832 22.9709 41.1832 23.8414V43.2423" stroke="#FF6A3F" stroke-width="1.5" stroke-miterlimit="10" stroke-linecap="round" stroke-linejoin="round"/>
<path d="M50.6491 34.0164H45.5076C44.6372 34.0164 43.9316 34.7219 43.9316 35.5923V52.1772H52.2251V35.5923C52.2251 34.7219 51.5194 34.0164 50.6491 34.0164Z" stroke="#FF6A3F" stroke-width="1.5" stroke-miterlimit="10" stroke-linecap="round" stroke-linejoin="round"/>
<path d="M18.551 39.6572V21.8826H0.777344C0.777344 31.6989 8.73459 39.6572 18.551 39.6572Z" stroke="#FF6A3F" stroke-width="1.5" stroke-miterlimit="10" stroke-linecap="round" stroke-linejoin="round"/>
<path d="M14.7318 36.0134L10.6815 44.7959H1.83203" stroke="#FF6A3F" stroke-width="1.5" stroke-miterlimit="10" stroke-linecap="round" stroke-linejoin="round"/>
<path d="M1.83203 41.4536H8.28199" stroke="#FF6A3F" stroke-width="1.5" stroke-miterlimit="10" stroke-linecap="round" stroke-linejoin="round"/>
<path d="M32.7051 14.1299L37.8572 4.94888H48.8128" stroke="#FF6A3F" stroke-width="1.5" stroke-miterlimit="10" stroke-linecap="round" stroke-linejoin="round"/>
<path d="M48.8128 1.8584H41.1641" stroke="#FF6A3F" stroke-width="1.5" stroke-miterlimit="10" stroke-linecap="round" stroke-linejoin="round"/>
<path d="M50.6718 18.2651H45.0312" stroke="#FF6A3F" stroke-width="1.5" stroke-miterlimit="10" stroke-linecap="round" stroke-linejoin="round"/>
<path d="M50.6718 21.6113H45.0312" stroke="#FF6A3F" stroke-width="1.5" stroke-miterlimit="10" stroke-linecap="round" stroke-linejoin="round"/>
<path d="M50.6718 24.957H45.0312" stroke="#FF6A3F" stroke-width="1.5" stroke-miterlimit="10" stroke-linecap="round" stroke-linejoin="round"/>
</g>
</svg>
