<svg width="159" height="22" viewBox="0 0 159 22" fill="none" xmlns="http://www.w3.org/2000/svg">
<g id="Group 162527">
<path id="Vector" d="M0.503906 3.02722L9.52577 1.7871V10.4929H0.504737L0.503906 3.02722ZM9.52577 11.607V20.2144L0.505152 18.9761L0.504945 11.6074H9.52597L9.52577 11.607ZM10.5234 1.65025L22.528 0V10.4929H10.5234V1.65025ZM22.528 11.607V22L10.5234 20.351V11.607H22.528Z" fill="#0DADEA"/>
<g id="Group">
<path id="Vector_2" d="M42.9081 17.5031H40.8226V9.43953C40.8226 8.77856 40.8639 7.9714 40.9464 7.01472H40.9115C40.7813 7.5592 40.6665 7.95001 40.5668 8.1884L36.7849 17.5031H35.3357L31.5447 8.25817C31.4388 7.98614 31.3267 7.57166 31.2091 7.01576H31.1743C31.2218 7.51414 31.2451 8.32774 31.2451 9.45718V17.5031H29.3008V5.04282H32.2609L35.5924 13.3412C35.8455 13.9783 36.0106 14.4538 36.0868 14.7661H36.1308C36.3489 14.1114 36.5254 13.6244 36.661 13.3059L40.0545 5.04282H42.9087L42.9079 17.5031H42.9081ZM46.8229 6.73688C46.4873 6.73688 46.1993 6.63014 45.9615 6.41563C45.7227 6.20133 45.6035 5.92868 45.6035 5.59871C45.6035 5.26875 45.7227 4.99339 45.9615 4.77286C46.2003 4.55316 46.4873 4.44269 46.8229 4.44269C47.1701 4.44269 47.4654 4.55316 47.7067 4.77286C47.948 4.99339 48.0692 5.26771 48.0692 5.59871C48.0692 5.91103 47.948 6.17932 47.7067 6.40234C47.4643 6.62578 47.1701 6.73688 46.8229 6.73688ZM47.8385 17.5031H45.7892V8.60496H47.8387V17.5031H47.8385ZM57.0024 17.0946C56.2783 17.5058 55.4205 17.7113 54.4308 17.7113C53.0877 17.7113 52.0037 17.2985 51.1789 16.4735C50.3545 15.6485 49.9417 14.5782 49.9417 13.2627C49.9417 11.7971 50.385 10.6201 51.2715 9.73046C52.1582 8.84127 53.3433 8.39647 54.8282 8.39647C55.6529 8.39647 56.3805 8.53851 57.0105 8.82279V10.6994C56.3797 10.2363 55.7085 10.0042 54.9962 10.0042C54.1303 10.0042 53.4205 10.2928 52.8669 10.8688C52.3133 11.4451 52.0359 12.1995 52.0359 13.1321C52.0359 14.0533 52.2961 14.7803 52.8175 15.3131C53.3387 15.8462 54.0385 16.1126 54.9163 16.1126C55.6529 16.1126 56.3473 15.8551 57.0014 15.3397L57.0024 17.0946ZM64.2918 10.5256C64.0441 10.3341 63.6879 10.239 63.2224 10.239C62.6156 10.239 62.1087 10.5079 61.7023 11.047C61.2957 11.5853 61.0922 12.3185 61.0922 13.2451V17.5031H59.0418V8.60496H61.0922V10.4384H61.1271C61.3273 9.81269 61.635 9.3247 62.0504 8.97438C62.4657 8.62427 62.9298 8.4486 63.4421 8.4486C63.8136 8.4486 64.0962 8.50425 64.291 8.61368L64.2918 10.5256ZM69.7704 17.7113C68.3743 17.7113 67.2598 17.2958 66.4255 16.4646C65.5919 15.6335 65.1748 14.5313 65.1748 13.1587C65.1748 11.6637 65.609 10.4965 66.4784 9.65654C67.3479 8.81656 68.5178 8.39647 69.9911 8.39647C71.4053 8.39647 72.5063 8.80514 73.2958 9.62206C74.0855 10.4392 74.4794 11.5711 74.4794 13.0191C74.4794 14.4389 74.0542 15.5754 73.2026 16.4293C72.352 17.2844 71.208 17.7113 69.7704 17.7113ZM69.8674 10.0042C69.0662 10.0042 68.4327 10.2795 67.9679 10.8292C67.5022 11.3797 67.2698 12.1385 67.2698 13.1055C67.2698 14.0381 67.5057 14.7724 67.9769 15.3079C68.4478 15.8435 69.0787 16.1115 69.8682 16.1115C70.676 16.1115 71.2959 15.8478 71.7284 15.3212C72.1607 14.7936 72.378 14.0435 72.378 13.0702C72.378 12.0917 72.1618 11.3356 71.7284 10.8026C71.295 10.2706 70.675 10.0042 69.8674 10.0042ZM76.0092 17.2252V15.3573C76.7755 15.9309 77.6207 16.2175 78.5447 16.2175C79.7824 16.2175 80.4004 15.8584 80.4004 15.1401C80.4004 14.9372 80.3476 14.7653 80.2417 14.6231C80.1358 14.481 79.9931 14.355 79.8127 14.2455C79.6322 14.1361 79.4206 14.0373 79.1766 13.95C78.9316 13.8626 78.6596 13.7646 78.3591 13.6543C78.0153 13.5222 77.6803 13.3684 77.3561 13.1938C77.0581 13.0314 76.8114 12.848 76.6139 12.6424C76.4195 12.4418 76.2678 12.2037 76.1681 11.9426C76.0676 11.6824 76.0182 11.3778 76.0182 11.0304C76.0182 10.6016 76.1214 10.2239 76.3276 9.89659C76.5342 9.56911 76.8104 9.29397 77.1578 9.07157C77.5058 8.84833 77.8998 8.68076 78.3421 8.56779C78.7896 8.4541 79.2496 8.39717 79.7114 8.39834C80.5476 8.39834 81.2958 8.52273 81.9555 8.7715V10.5353C81.3192 10.1065 80.5889 9.89202 79.7643 9.89202C79.5049 9.89202 79.2707 9.9186 79.0618 9.96968C78.8527 10.0218 78.6741 10.0943 78.5269 10.1869C78.3799 10.2795 78.265 10.3906 78.1824 10.5212C78.1005 10.6495 78.0575 10.7988 78.0586 10.9511C78.0586 11.1423 78.0999 11.3047 78.1824 11.438C78.265 11.5711 78.3869 11.6885 78.5493 11.79C78.7109 11.8915 78.9056 11.9842 79.1326 12.0678C79.3596 12.1517 79.6198 12.2435 79.9151 12.3415C80.2718 12.4833 80.6213 12.643 80.9621 12.8198C81.2717 12.982 81.5354 13.1655 81.7535 13.3711C81.9682 13.5718 82.1395 13.8145 82.2568 14.084C82.3746 14.3531 82.4337 14.6735 82.4337 15.044C82.4337 15.4958 82.3278 15.8891 82.1152 16.2256C81.9034 16.5617 81.6199 16.8396 81.2673 17.0593C80.9137 17.2798 80.5054 17.443 80.0434 17.5498C79.5803 17.6576 79.0932 17.7105 78.5809 17.7105C77.5903 17.7113 76.7333 17.5498 76.0092 17.2252ZM88.3979 17.7113C87.0018 17.7113 85.8865 17.2958 85.0527 16.4646C84.2192 15.6335 83.8028 14.5313 83.8028 13.1587C83.8028 11.6637 84.2372 10.4965 85.1067 9.65654C85.9751 8.81656 87.1461 8.39647 88.6186 8.39647C90.0327 8.39647 91.1335 8.80514 91.9232 9.62206C92.7128 10.4392 93.1075 11.5711 93.1075 13.0191C93.1075 14.4389 92.6822 15.5754 91.8308 16.4293C90.9794 17.2844 89.8344 17.7113 88.3979 17.7113ZM88.4948 10.0042C87.6935 10.0042 87.0599 10.2795 86.5943 10.8292C86.1286 11.3797 85.8962 12.1385 85.8962 13.1055C85.8962 14.0381 86.1323 14.7724 86.6033 15.3079C87.0745 15.8435 87.7051 16.1115 88.4948 16.1115C89.3014 16.1115 89.9214 15.8478 90.3548 15.3212C90.7882 14.7936 91.0044 14.0435 91.0044 13.0702C91.0044 12.0917 90.7882 11.3356 90.3548 10.8026C89.9214 10.2706 89.3014 10.0042 88.4948 10.0042ZM100.318 5.9727C100.042 5.81654 99.726 5.73805 99.3723 5.73805C98.3764 5.73805 97.8793 6.29125 97.8793 7.39764V8.60558H99.9824V10.1869H97.8882V17.5031H95.838V10.1869H94.292V8.60558H95.838V7.16299C95.838 6.22438 96.1503 5.48492 96.7747 4.94314C97.3992 4.40116 98.1799 4.13037 99.1167 4.13037C99.6236 4.13037 100.024 4.18519 100.318 4.29546V5.9727ZM106.229 17.4077C105.829 17.6046 105.302 17.7034 104.647 17.7034C102.892 17.7034 102.015 16.8749 102.015 15.2188V10.1877H100.504V8.60662H102.015V6.54708L104.065 5.97374V8.60662H106.23V10.1877H104.065V14.6361C104.065 15.163 104.162 15.5397 104.357 15.7656C104.551 15.9915 104.875 16.1045 105.329 16.1045C105.676 16.1045 105.976 16.0065 106.229 15.8088V17.4077ZM123.619 17.5031H121.313L120.174 14.3311H115.19L114.095 17.5031H111.797L116.542 5.04282H118.91L123.619 17.5031H123.619ZM119.617 12.646L117.859 7.6757C117.806 7.51331 117.749 7.25311 117.691 6.89387H117.656C117.603 7.22404 117.544 7.48507 117.479 7.6757L115.739 12.646H119.617ZM131.819 9.44826L126.933 15.9298H131.801V17.5031H124.061V16.747L129.053 10.178H124.538V8.60475H131.819V9.44826ZM141.442 17.5031H139.392V16.0949H139.357C138.763 17.1723 137.837 17.7113 136.583 17.7113C134.445 17.7113 133.375 16.4488 133.375 13.9226V8.60475H135.425V13.7144C135.425 15.3133 136.053 16.1126 137.308 16.1126C137.914 16.1126 138.413 15.8929 138.806 15.4527C139.198 15.0124 139.393 14.4362 139.393 13.7233V8.60475H141.444L141.442 17.5031ZM149.368 10.5256C149.121 10.3341 148.764 10.239 148.299 10.239C147.692 10.239 147.185 10.5079 146.779 11.047C146.372 11.5853 146.169 12.3185 146.169 13.2451V17.5031H144.119V8.60496H146.169V10.4384H146.204C146.404 9.81269 146.711 9.3247 147.127 8.97438C147.542 8.62427 148.006 8.4486 148.518 8.4486C148.889 8.4486 149.173 8.50425 149.366 8.61368L149.368 10.5256H149.368ZM158.496 13.6014H152.328C152.351 14.4237 152.609 15.0581 153.101 15.5046C153.593 15.9502 154.269 16.1734 155.129 16.1734C156.096 16.1734 156.982 15.8894 157.789 15.322V16.9463C156.964 17.4563 155.874 17.7113 154.519 17.7113C153.188 17.7113 152.144 17.3072 151.387 16.499C150.63 15.6908 150.252 14.5543 150.252 13.0889C150.252 11.7044 150.668 10.5758 151.503 9.70409C152.336 8.83235 153.372 8.39647 154.609 8.39647C155.846 8.39647 156.803 8.78749 157.48 9.56911C158.158 10.3509 158.497 11.437 158.497 12.8277L158.496 13.6014H158.496ZM156.517 12.1765C156.508 11.4521 156.337 10.889 155.996 10.4867C155.654 10.0845 155.183 9.8833 154.581 9.8833C153.993 9.8833 153.493 10.0951 153.084 10.5177C152.675 10.9403 152.423 11.4937 152.328 12.1773H156.517V12.1765Z" fill="#00ADEF"/>
</g>
</g>
</svg>
