<svg width="52" height="52" viewBox="0 0 52 52" fill="none" xmlns="http://www.w3.org/2000/svg">
<g clip-path="url(#clip0_520_32)">
<path d="M39.7109 50.375C39.7109 47.8509 37.6648 45.8047 35.1406 45.8047H16.8594C14.3352 45.8047 12.2891 47.8509 12.2891 50.375V52H39.7109V50.375Z" fill="white"/>
<path d="M48.9531 12.2891V9.24219H30.2897C29.8294 7.95153 28.8141 6.93621 27.5234 6.47593V0H24.4766V6.47593C23.1859 6.93621 22.1706 7.95153 21.7103 9.24219H3.04688V12.2891H6.85588L0 29.0469C0 33.2468 3.41727 36.6641 7.61719 36.6641H10.6641C14.864 36.6641 18.2812 33.2468 18.2812 29.0469L11.3944 12.2891H21.7104C22.1707 13.5797 23.186 14.595 24.4767 15.0553V36.831C21.4994 37.4403 19.1441 39.7794 18.5371 42.7578H33.4631C32.8561 39.7794 30.5008 37.4403 27.5235 36.831V15.0553C28.8142 14.595 29.8295 13.5797 30.2898 12.2891H40.5747L33.7188 29.0469C33.7188 33.2468 37.136 36.6641 41.3359 36.6641H44.3828C48.5827 36.6641 52 33.2468 52 29.0469L45.1131 12.2891H48.9531ZM14.4722 27.5234H3.809L9.14062 14.726L14.4722 27.5234ZM48.191 27.5234H37.5277L42.8594 14.726L48.191 27.5234Z" fill="white"/>
</g>
<defs>
<clipPath id="clip0_520_32">
<rect width="52" height="52" fill="white"/>
</clipPath>
</defs>
</svg>
