<svg width="55" height="53" viewBox="0 0 55 53" fill="none" xmlns="http://www.w3.org/2000/svg">
<path d="M49.4472 35.1731C47.7362 35.1731 46.3202 36.3531 45.9072 37.9461H42.2492V31.2201H42.7802C48.7982 31.2201 54.0492 25.9691 54.0492 20.0101C54.0492 14.8181 51.0402 10.7471 46.1432 9.2721C45.6712 5.4961 43.1932 2.4281 39.5942 1.0711C35.9952 -0.285901 32.0422 0.4811 29.2102 2.9591C26.4372 1.7201 23.0152 1.7201 19.9472 3.0181C17.2922 4.1391 15.2862 6.1451 14.3422 8.5641C12.5722 8.4461 10.8022 9.0361 9.44522 10.2751C8.08822 11.5141 7.32122 13.1661 7.32122 14.9361C3.60422 15.8211 0.949219 19.0661 0.949219 23.0191C0.949219 27.5031 4.72522 31.2791 9.20922 31.2791H12.7492V37.9461H9.09122C8.67822 36.3531 7.26222 35.1731 5.55122 35.1731C3.54522 35.1731 1.89322 36.8251 1.89322 38.8311C1.89322 40.8371 3.54522 42.4891 5.55122 42.4891C7.26222 42.4891 8.67822 41.3091 9.09122 39.7161H13.6342C14.1062 39.7161 14.5192 39.3031 14.5192 38.8311V31.2201H19.7112V40.3651L16.2892 43.7871C15.7582 43.4331 15.1092 43.2561 14.4012 43.2561C12.3952 43.2561 10.7432 44.9081 10.7432 46.9141C10.7432 48.9201 12.3952 50.5721 14.4012 50.5721C16.4072 50.5721 18.0592 48.9201 18.0592 46.9141C18.0592 46.2061 17.8822 45.6161 17.5282 45.0261L21.1272 41.4271C21.3042 41.2501 21.3632 41.0141 21.3632 40.7781V31.2201H26.5552V45.4391C24.9622 45.8521 23.7822 47.2681 23.7822 48.9791C23.7822 50.9851 25.4342 52.6371 27.4402 52.6371C29.4462 52.6371 31.0982 50.9851 31.0982 48.9791C31.0982 47.2681 29.9182 45.8521 28.3252 45.4391V31.2201H33.5172V40.7781C33.5172 41.0141 33.6352 41.2501 33.7532 41.4271L37.3522 45.0261C36.9982 45.5571 36.8212 46.2061 36.8212 46.9141C36.8212 48.9201 38.4732 50.5721 40.4792 50.5721C42.4852 50.5721 44.1372 48.9201 44.1372 46.9141C44.1372 44.9081 42.4852 43.2561 40.4792 43.2561C39.7712 43.2561 39.1812 43.4331 38.5912 43.7871L35.2282 40.4241V31.2201H40.4792V38.7721C40.4792 39.2441 40.8922 39.6571 41.3642 39.6571H45.9072C46.3202 41.2501 47.7362 42.4301 49.4472 42.4301C51.4532 42.4301 53.1052 40.7781 53.1052 38.7721C53.1052 36.7661 51.4532 35.1731 49.4472 35.1731ZM5.55122 40.6601C4.54822 40.6601 3.66322 39.8341 3.66322 38.7721C3.66322 37.7691 4.48922 36.8841 5.55122 36.8841C6.55422 36.8841 7.43922 37.7101 7.43922 38.7721C7.43922 39.8341 6.55422 40.6601 5.55122 40.6601ZM14.4602 48.7431C13.4572 48.7431 12.5722 47.9171 12.5722 46.8551C12.5722 45.8521 13.3982 44.9671 14.4602 44.9671C15.4632 44.9671 16.3482 45.7931 16.3482 46.8551C16.2892 47.9171 15.4632 48.7431 14.4602 48.7431ZM29.3872 48.9791C29.3872 49.9821 28.5612 50.8671 27.4992 50.8671C26.4962 50.8671 25.6112 50.0411 25.6112 48.9791C25.6112 47.9761 26.4372 47.0911 27.4992 47.0911C28.5022 47.0911 29.3872 47.9171 29.3872 48.9791ZM42.4262 46.8551C42.4262 47.8581 41.6002 48.7431 40.5382 48.7431C39.5352 48.7431 38.6502 47.9171 38.6502 46.8551C38.6502 45.8521 39.4762 44.9671 40.5382 44.9671C41.6002 45.0261 42.4262 45.8521 42.4262 46.8551ZM2.71922 23.0191C2.71922 19.6561 5.02022 17.0011 8.38322 16.5881C8.85522 16.5291 9.20922 16.1161 9.15022 15.6441C9.03222 14.1101 9.56322 12.6941 10.6842 11.6321C11.5692 10.8061 12.7492 10.3341 13.9292 10.3341C14.2242 10.3341 14.5192 10.3341 14.8142 10.3931C15.2862 10.4521 15.6992 10.2161 15.8172 9.7441C16.4072 7.5611 18.1772 5.6731 20.6552 4.6111C23.4282 3.4311 26.6142 3.4901 28.9742 4.7291C29.3282 4.9061 29.7412 4.8471 30.0362 4.5521C32.3962 2.1921 35.8182 1.4251 39.0042 2.6051C42.1312 3.7851 44.2552 6.5581 44.4912 9.9211C44.4912 10.2751 44.7862 10.6291 45.1402 10.6881C49.5652 11.9271 52.2792 15.4671 52.2792 20.0101C52.2792 25.0251 47.8542 29.4501 42.7802 29.4501H9.20922C5.66922 29.4501 2.71922 26.5001 2.71922 23.0191ZM49.4472 40.6601C48.4442 40.6601 47.5592 39.8341 47.5592 38.7721C47.5592 37.7691 48.3852 36.8841 49.4472 36.8841C50.4502 36.8841 51.3352 37.7101 51.3352 38.7721C51.3352 39.8341 50.5092 40.6601 49.4472 40.6601Z" fill="#FF6A3F"/>
</svg>
