<svg width="46" height="45" viewBox="0 0 46 45" fill="none" xmlns="http://www.w3.org/2000/svg">
<path d="M14.0752 14.6152C14.3061 15.6683 14.7233 16.6717 15.3071 17.5781C15.3939 17.7132 15.4318 17.874 15.4145 18.0336C15.3972 18.1933 15.3258 18.3422 15.2122 18.4556L14.5477 19.1194L16.5369 21.1085L17.2006 20.4441C17.3141 20.3304 17.463 20.259 17.6226 20.2418C17.7823 20.2245 17.943 20.2624 18.0781 20.3491C18.9842 20.9329 19.9874 21.3499 21.0404 21.5803C21.1972 21.6145 21.3375 21.7013 21.4382 21.8262C21.5389 21.9512 21.5937 22.1068 21.5938 22.2673V23.2031H24.4062V22.2673C24.4063 22.1068 24.4611 21.9512 24.5618 21.8262C24.6625 21.7013 24.8028 21.6145 24.9596 21.5803C26.0126 21.3499 27.0158 20.9329 27.9219 20.3491C28.057 20.2624 28.2177 20.2245 28.3774 20.2418C28.537 20.259 28.6859 20.3304 28.7994 20.4441L29.4631 21.1085L31.4523 19.1194L30.7878 18.4556C30.6742 18.3422 30.6028 18.1933 30.5855 18.0336C30.5682 17.874 30.6061 17.7132 30.6929 17.5781C31.2767 16.6717 31.6939 15.6683 31.9248 14.6152C31.9591 14.4585 32.0459 14.3183 32.1709 14.2178C32.2958 14.1173 32.4514 14.0625 32.6117 14.0625H33.5469V11.25H32.6117C32.4514 11.25 32.2958 11.1952 32.1709 11.0947C32.0459 10.9942 31.9591 10.854 31.9248 10.6973C31.6939 9.64419 31.2767 8.64077 30.6929 7.73438C30.6061 7.59926 30.5682 7.43852 30.5855 7.27888C30.6028 7.11924 30.6742 6.97032 30.7878 6.85687L31.4523 6.19312L29.4631 4.20398L28.7994 4.86844C28.6859 4.98208 28.537 5.05347 28.3774 5.07073C28.2177 5.088 28.057 5.05011 27.9219 4.96336C27.0155 4.37952 26.0121 3.96234 24.9589 3.73148C24.8023 3.69717 24.6621 3.61034 24.5615 3.48539C24.461 3.36044 24.4062 3.20489 24.4062 3.04453V2.10938H21.5938V3.04453C21.5938 3.20489 21.539 3.36044 21.4385 3.48539C21.3379 3.61034 21.1977 3.69717 21.0411 3.73148C19.9879 3.96234 18.9845 4.37952 18.0781 4.96336C17.943 5.05011 17.7823 5.088 17.6226 5.07073C17.463 5.05347 17.3141 4.98208 17.2006 4.86844L16.5369 4.20398L14.5477 6.19312L15.2122 6.85687C15.3258 6.97032 15.3972 7.11924 15.4145 7.27888C15.4318 7.43852 15.3939 7.59926 15.3071 7.73438C14.7233 8.64077 14.3061 9.64419 14.0752 10.6973C14.0409 10.854 13.9541 10.9942 13.8291 11.0947C13.7042 11.1952 13.5486 11.25 13.3883 11.25H12.4531V14.0625H13.3883C13.5486 14.0625 13.7042 14.1173 13.8291 14.2178C13.9541 14.3183 14.0409 14.4585 14.0752 14.6152ZM23 4.92188C24.5297 4.92188 26.0251 5.37549 27.297 6.22535C28.5689 7.07522 29.5602 8.28316 30.1456 9.69643C30.731 11.1097 30.8842 12.6648 30.5858 14.1652C30.2873 15.6655 29.5507 17.0436 28.469 18.1253C27.3874 19.207 26.0092 19.9436 24.5089 20.242C23.0086 20.5404 21.4535 20.3873 20.0402 19.8019C18.6269 19.2165 17.419 18.2251 16.5691 16.9532C15.7192 15.6813 15.2656 14.186 15.2656 12.6562C15.268 10.6057 16.0837 8.63985 17.5336 7.18989C18.9836 5.73994 20.9495 4.92429 23 4.92188Z" fill="white"/>
<path d="M19.9709 13.0031C19.656 12.4723 19.4881 11.8673 19.4844 11.2502C19.4844 10.3178 19.8548 9.42356 20.5141 8.76425C21.1734 8.10494 22.0676 7.73455 23 7.73455C23.9324 7.73455 24.8266 8.10494 25.4859 8.76425C26.1452 9.42356 26.5156 10.3178 26.5156 11.2502C26.5119 11.8673 26.344 12.4723 26.0291 13.0031C26.5856 13.4395 27.0414 13.9909 27.3654 14.6196C27.6894 15.2483 27.8739 15.9394 27.9064 16.646C28.6622 15.7181 29.1394 14.5949 29.2826 13.4068C29.4259 12.2186 29.2292 11.0142 28.7156 9.9333C28.2019 8.85239 27.3923 7.9393 26.3806 7.29997C25.369 6.66064 24.1968 6.32129 23 6.32129C21.8033 6.32129 20.631 6.66064 19.6194 7.29997C18.6077 7.9393 17.7981 8.85239 17.2844 9.9333C16.7708 11.0142 16.5741 12.2186 16.7174 13.4068C16.8606 14.5949 17.3378 15.7181 18.0936 16.646C18.1261 15.9394 18.3106 15.2483 18.6346 14.6196C18.9586 13.9909 19.4144 13.4395 19.9709 13.0031Z" fill="white"/>
<path d="M23 13.3594C24.165 13.3594 25.1094 12.415 25.1094 11.25C25.1094 10.085 24.165 9.14062 23 9.14062C21.835 9.14062 20.8906 10.085 20.8906 11.25C20.8906 12.415 21.835 13.3594 23 13.3594Z" fill="white"/>
<path d="M39.1719 14.0625V35.1562C39.1719 35.3427 39.0978 35.5216 38.9659 35.6534C38.8341 35.7853 38.6552 35.8594 38.4688 35.8594H7.53125C7.34477 35.8594 7.16593 35.7853 7.03407 35.6534C6.9022 35.5216 6.82812 35.3427 6.82812 35.1562V14.0625C6.82812 13.876 6.9022 13.6972 7.03407 13.5653C7.16593 13.4335 7.34477 13.3594 7.53125 13.3594H11.0469V11.9531H6.125C5.93852 11.9531 5.75968 12.0272 5.62782 12.1591C5.49595 12.2909 5.42188 12.4698 5.42188 12.6562V37.2656H40.5781V12.6562C40.5781 12.4698 40.504 12.2909 40.3722 12.1591C40.2403 12.0272 40.0615 11.9531 39.875 11.9531H34.9531V13.3594H38.4688C38.6552 13.3594 38.8341 13.4335 38.9659 13.5653C39.0978 13.6972 39.1719 13.876 39.1719 14.0625Z" fill="white"/>
<path d="M20.1875 40.0781H25.8125C25.999 40.0781 26.1778 40.004 26.3097 39.8722C26.4415 39.7403 26.5156 39.5615 26.5156 39.375V38.6719H19.4844V39.375C19.4844 39.5615 19.5585 39.7403 19.6903 39.8722C19.8222 40.004 20.001 40.0781 20.1875 40.0781Z" fill="white"/>
<path d="M25.0981 14.0542C24.496 14.5157 23.7586 14.7658 23 14.7658C22.2414 14.7658 21.504 14.5157 20.9019 14.0542C20.462 14.3813 20.1048 14.8068 19.8587 15.2966C19.6125 15.7864 19.4844 16.327 19.4844 16.8751V17.9144C20.5242 18.6118 21.7479 18.9842 23 18.9842C24.2521 18.9842 25.4758 18.6118 26.5156 17.9144V16.8751C26.5156 16.327 26.3875 15.7864 26.1413 15.2966C25.8952 14.8068 25.538 14.3813 25.0981 14.0542Z" fill="white"/>
<path d="M8.23438 14.7656V34.4531H37.7656V14.7656H34.9531C34.9531 14.9521 34.879 15.1309 34.7472 15.2628C34.6153 15.3947 34.4365 15.4688 34.25 15.4688H33.1616C32.9312 16.3004 32.5987 17.1004 32.1716 17.8502L32.945 18.6237C33.0768 18.7555 33.1509 18.9343 33.1509 19.1208C33.1509 19.3072 33.0768 19.486 32.945 19.6179L29.9609 22.5998C29.8291 22.7317 29.6503 22.8057 29.4638 22.8057C29.2774 22.8057 29.0986 22.7317 28.9667 22.5998L28.1933 21.8264C27.4436 22.2537 26.6439 22.5867 25.8125 22.8178V23.9062C25.8125 24.0927 25.7384 24.2716 25.6066 24.4034C25.4747 24.5353 25.2959 24.6094 25.1094 24.6094H20.8906C20.7041 24.6094 20.5253 24.5353 20.3934 24.4034C20.2616 24.2716 20.1875 24.0927 20.1875 23.9062V22.8178C19.3559 22.5872 18.556 22.2547 17.806 21.8278L17.0326 22.6013C16.9007 22.7331 16.7219 22.8071 16.5355 22.8071C16.349 22.8071 16.1702 22.7331 16.0384 22.6013L13.0564 19.6172C12.9246 19.4853 12.8505 19.3065 12.8505 19.1201C12.8505 18.9336 12.9246 18.7548 13.0564 18.623L13.8298 17.8495C13.4023 17.1 13.0693 16.3003 12.8384 15.4688H11.75C11.5635 15.4688 11.3847 15.3947 11.2528 15.2628C11.121 15.1309 11.0469 14.9521 11.0469 14.7656H8.23438ZM25.8125 26.7188C25.8107 26.5589 25.8634 26.4032 25.962 26.2774C26.0605 26.1515 26.199 26.063 26.3546 26.0264C26.5102 25.9898 26.6736 26.0073 26.8179 26.076C26.9622 26.1447 27.0788 26.2606 27.1484 26.4045L29.3281 30.7716L31.5078 26.4045C31.5775 26.2606 31.6941 26.1447 31.8384 26.076C31.9827 26.0073 32.1461 25.9898 32.3017 26.0264C32.4573 26.063 32.5958 26.1515 32.6943 26.2774C32.7928 26.4032 32.8455 26.5589 32.8438 26.7188V33.0469H31.4375V29.6972L29.9609 32.658C29.896 32.767 29.8038 32.8572 29.6935 32.9199C29.5832 32.9826 29.4585 33.0155 29.3316 33.0155C29.2048 33.0155 29.0801 32.9826 28.9698 32.9199C28.8595 32.8572 28.7673 32.767 28.7023 32.658L27.2188 29.6972V33.0469H25.8125V26.7188ZM19.4844 26.7188C19.4844 26.5323 19.5585 26.3534 19.6903 26.2216C19.8222 26.0897 20.001 26.0156 20.1875 26.0156H23C23.4732 26.0138 23.9331 26.1717 24.3054 26.4637C24.6777 26.7557 24.9406 27.1648 25.0516 27.6247C25.1626 28.0847 25.1152 28.5687 24.9171 28.9983C24.719 29.428 24.3817 29.7783 23.9598 29.9925C24.7008 30.8375 25.1093 31.923 25.1094 33.0469H23.7031C23.7035 32.5137 23.572 31.9887 23.3204 31.5186C23.0688 31.0485 22.7048 30.648 22.261 30.3525L22.0859 30.2344H20.8906V33.0469H19.4844V26.7188ZM13.1562 28.125C13.1562 27.5656 13.3785 27.029 13.7741 26.6334C14.1697 26.2379 14.7062 26.0156 15.2656 26.0156H16.6719C17.2313 26.0156 17.7678 26.2379 18.1634 26.6334C18.559 27.029 18.7812 27.5656 18.7812 28.125H17.375C17.375 27.9385 17.3009 27.7597 17.1691 27.6278C17.0372 27.496 16.8584 27.4219 16.6719 27.4219H15.2656C15.0791 27.4219 14.9003 27.496 14.7684 27.6278C14.6366 27.7597 14.5625 27.9385 14.5625 28.125V30.9375C14.5625 31.124 14.6366 31.3028 14.7684 31.4347C14.9003 31.5665 15.0791 31.6406 15.2656 31.6406H16.6719C16.8584 31.6406 17.0372 31.5665 17.1691 31.4347C17.3009 31.3028 17.375 31.124 17.375 30.9375H18.7812C18.7812 31.4969 18.559 32.0335 18.1634 32.4291C17.7678 32.8246 17.2313 33.0469 16.6719 33.0469H15.2656C14.7062 33.0469 14.1697 32.8246 13.7741 32.4291C13.3785 32.0335 13.1562 31.4969 13.1562 30.9375V28.125Z" fill="white"/>
<path d="M42.6875 38.6719H27.9219V39.375C27.9219 39.9344 27.6996 40.471 27.3041 40.8666C26.9085 41.2621 26.3719 41.4844 25.8125 41.4844H20.1875C19.6281 41.4844 19.0915 41.2621 18.6959 40.8666C18.3004 40.471 18.0781 39.9344 18.0781 39.375V38.6719H3.3125C3.12602 38.6719 2.94718 38.746 2.81532 38.8778C2.68345 39.0097 2.60938 39.1885 2.60938 39.375V40.7812C2.60938 41.3407 2.83161 41.8772 3.2272 42.2728C3.62278 42.6684 4.15931 42.8906 4.71875 42.8906H41.2812C41.8407 42.8906 42.3772 42.6684 42.7728 42.2728C43.1684 41.8772 43.3906 41.3407 43.3906 40.7812V39.375C43.3906 39.1885 43.3165 39.0097 43.1847 38.8778C43.0528 38.746 42.874 38.6719 42.6875 38.6719Z" fill="white"/>
<path d="M23.7031 28.125C23.7031 27.9385 23.629 27.7597 23.4972 27.6278C23.3653 27.496 23.1865 27.4219 23 27.4219H20.8906V28.8281H23C23.1865 28.8281 23.3653 28.754 23.4972 28.6222C23.629 28.4903 23.7031 28.3115 23.7031 28.125Z" fill="white"/>
<path d="M7.53125 8.4375L11.0469 4.92188L7.53125 1.40625V2.8132H1.90625V7.03195H7.53125V8.4375Z" fill="white"/>
<path d="M38.4688 2.8132V1.40625L34.9531 4.92188L38.4688 8.4375V7.03195H44.0938V2.8132H38.4688Z" fill="white"/>
</svg>
