<svg width="85" height="84" viewBox="0 0 85 84" fill="none" xmlns="http://www.w3.org/2000/svg">
<g id="docker-svgrepo-com 1" clip-path="url(#clip0_121_254)">
<path id="Vector" d="M65.296 23.814L66.0835 22.6222L67.459 23.457L68.068 23.8928C69.538 25.0268 72.6302 27.9248 73.297 32.7338C74.4677 32.5238 75.649 32.4188 76.8302 32.4188C79.6337 32.4188 81.5185 33.0697 82.5895 33.6105L83.1407 33.9097L83.4977 34.146L84.5005 34.965L84.154 36.015C83.6154 37.4545 82.7739 38.7614 81.6865 39.8475C80.164 41.4173 77.4865 43.2705 73.2392 43.512L72.3047 43.5382H71.5277C69.5852 48.6675 66.976 54.4478 62.5922 59.6348C59.9911 62.717 56.9058 65.3555 53.4572 67.4468C49.3228 69.8996 44.7954 71.619 40.075 72.5287C36.694 73.185 33.2605 73.5105 29.8217 73.5C22.2092 73.5 15.4892 71.988 11.3575 69.342C7.66672 66.9848 4.83172 63.1365 2.92597 57.9128C1.25818 53.1395 0.439061 48.1111 0.505717 43.0553C0.497079 42.407 0.72118 41.7772 1.13733 41.2801C1.55348 40.7831 2.13408 40.4517 2.77372 40.3463L3.13072 40.32H58.4657L58.9487 40.2832L59.731 40.1993C61.075 40.0208 63.1225 39.6217 64.561 38.7817C62.839 35.931 62.3507 32.5972 63.154 29.0483C63.4904 27.5679 64.0199 26.1381 64.729 24.7958L65.296 23.814ZM15.673 30.366L15.883 30.4028C15.9789 30.4386 16.0652 30.4961 16.1354 30.5708C16.2055 30.6455 16.2574 30.7353 16.2872 30.8333L16.3187 31.0433V37.947L16.2872 38.1623C16.2569 38.2608 16.2041 38.3509 16.1331 38.4256C16.062 38.5003 15.9746 38.5575 15.8777 38.5927L15.673 38.6242H8.25997C8.1218 38.6224 7.98781 38.5766 7.87738 38.4936C7.76696 38.4105 7.68582 38.2945 7.64572 38.1623L7.60897 37.9523V31.038L7.64572 30.828C7.67534 30.7285 7.72779 30.6373 7.79888 30.5616C7.86997 30.486 7.95775 30.428 8.05522 30.3923L8.25997 30.3608L15.673 30.366ZM25.8947 30.366L26.0995 30.4028C26.1964 30.438 26.2838 30.4952 26.3548 30.5699C26.4259 30.6446 26.4786 30.7347 26.509 30.8333L26.5405 31.0433V37.947L26.5037 38.1623C26.4734 38.2608 26.4206 38.3509 26.3496 38.4256C26.2785 38.5003 26.1911 38.5575 26.0942 38.5927L25.8895 38.6242H18.4765C18.3385 38.6216 18.2049 38.5755 18.0946 38.4926C17.9844 38.4096 17.903 38.2941 17.8622 38.1623L17.8255 37.9575V31.0433C17.8243 30.9028 17.8666 30.7654 17.9465 30.6498C18.0263 30.5342 18.1399 30.4461 18.2717 30.3975L18.4765 30.3608L25.8947 30.366ZM36.2687 30.366L36.4735 30.4028C36.5694 30.4386 36.6557 30.4961 36.7259 30.5708C36.796 30.6455 36.8479 30.7353 36.8777 30.8333L36.9145 31.0433V37.947L36.8777 38.1623C36.8474 38.2608 36.7946 38.3509 36.7236 38.4256C36.6525 38.5003 36.5651 38.5575 36.4682 38.5927L36.2635 38.6242H28.8505C28.7123 38.6224 28.5783 38.5766 28.4679 38.4936C28.3575 38.4105 28.2763 38.2945 28.2362 38.1623L28.2047 37.9523V31.038L28.2362 30.828C28.2658 30.7285 28.3183 30.6373 28.3894 30.5616C28.4605 30.486 28.5482 30.428 28.6457 30.3923L28.8505 30.3608L36.2687 30.366ZM46.5167 30.366L46.7215 30.4028C46.8184 30.438 46.9058 30.4952 46.9768 30.5699C47.0479 30.6446 47.1006 30.7347 47.131 30.8333L47.1677 31.0433V37.947C47.1688 38.0875 47.1266 38.2249 47.0467 38.3404C46.9668 38.456 46.8533 38.5441 46.7215 38.5927L46.5115 38.6242H39.1037C38.9656 38.6224 38.8316 38.5766 38.7211 38.4936C38.6107 38.4105 38.5296 38.2945 38.4895 38.1623L38.458 37.9523V31.038L38.4895 30.828C38.5191 30.7285 38.5715 30.6373 38.6426 30.5616C38.7137 30.486 38.8015 30.428 38.899 30.3923L39.109 30.3608H46.522L46.5167 30.366ZM56.8592 30.366L57.064 30.4028C57.1609 30.438 57.2483 30.4952 57.3193 30.5699C57.3904 30.6446 57.4431 30.7347 57.4735 30.8333L57.505 31.0433V37.947C57.5061 38.0875 57.4638 38.2249 57.384 38.3404C57.3041 38.456 57.1905 38.5441 57.0587 38.5927L56.854 38.6242H49.441C49.3028 38.6224 49.1688 38.5766 49.0584 38.4936C48.948 38.4105 48.8668 38.2945 48.8267 38.1623L48.7952 37.9523V31.038L48.8267 30.828C48.8563 30.7285 48.9088 30.6373 48.9799 30.5616C49.051 30.486 49.1387 30.428 49.2362 30.3923L49.4462 30.3608H56.854L56.8592 30.366ZM25.8842 20.433L26.0942 20.4697C26.1896 20.5051 26.2756 20.5618 26.3456 20.6355C26.4157 20.7092 26.468 20.798 26.4985 20.895L26.5352 21.1102V28.014C26.5363 28.1545 26.4941 28.2919 26.4142 28.4074C26.3343 28.523 26.2208 28.6111 26.089 28.6597L25.8842 28.6965H18.4765C18.3372 28.6931 18.2026 28.6455 18.0921 28.5606C17.9817 28.4757 17.9012 28.3578 17.8622 28.224L17.8255 28.014V21.1102C17.8254 20.9707 17.8682 20.8344 17.948 20.7199C18.0278 20.6054 18.1408 20.5181 18.2717 20.4697L18.4765 20.433H25.8842ZM36.2582 20.433L36.4682 20.4697C36.5636 20.5051 36.6496 20.5618 36.7196 20.6355C36.7897 20.7092 36.842 20.798 36.8725 20.895L36.9092 21.1102V28.014C36.9103 28.1545 36.8681 28.2919 36.7882 28.4074C36.7083 28.523 36.5948 28.6111 36.463 28.6597L36.2582 28.6965H28.8505C28.7112 28.6931 28.5766 28.6455 28.4661 28.5606C28.3557 28.4757 28.2752 28.3578 28.2362 28.224L28.2047 28.014V21.1102L28.2362 20.9002C28.2665 20.8017 28.3193 20.7116 28.3904 20.6369C28.4614 20.5622 28.5488 20.505 28.6457 20.4697L28.8505 20.433H36.2582ZM46.5115 20.433C46.795 20.433 47.0365 20.6272 47.1257 20.895L47.1625 21.1102V28.014C47.1636 28.1545 47.1213 28.2919 47.0415 28.4074C46.9616 28.523 46.848 28.6111 46.7162 28.6597L46.5062 28.6965H39.1037C38.9644 28.6931 38.8298 28.6455 38.7194 28.5606C38.609 28.4757 38.5284 28.3578 38.4895 28.224L38.458 28.014V21.1102L38.4895 20.9002C38.5198 20.8017 38.5726 20.7116 38.6436 20.6369C38.7147 20.5622 38.8021 20.505 38.899 20.4697L39.109 20.433H46.522H46.5115ZM46.5115 10.5C46.795 10.5 47.0365 10.6943 47.1257 10.962L47.1625 11.172V18.081C47.1636 18.2215 47.1213 18.3589 47.0415 18.4744C46.9616 18.59 46.848 18.6781 46.7162 18.7267L46.5062 18.7582H39.1037C38.9656 18.7564 38.8316 18.7106 38.7211 18.6276C38.6107 18.5445 38.5296 18.4285 38.4895 18.2962L38.458 18.0862V11.172L38.4895 10.962C38.5198 10.8635 38.5726 10.7733 38.6436 10.6986C38.7147 10.6239 38.8021 10.5667 38.899 10.5315L39.1037 10.5H46.5167H46.5115Z" fill="#2396ED"/>
</g>
<defs>
<clipPath id="clip0_121_254">
<rect width="84" height="84" fill="white" transform="translate(0.5)"/>
</clipPath>
</defs>
</svg>
