<svg width="79" height="79" viewBox="0 0 79 79" fill="none" xmlns="http://www.w3.org/2000/svg">
<g id="dotnet-svgrepo-com 1">
<path id="Vector" d="M7.83817 50.7352C7.8357 51.4487 7.53452 52.0906 7.05311 52.5448H7.05064C6.55689 53.0089 5.89033 53.2928 5.15711 53.2928C4.42389 53.2928 3.75486 53.0065 3.25864 52.5423L3.26111 52.5448C2.7797 52.0906 2.47852 51.4487 2.47852 50.7377C2.47852 50.0267 2.7797 49.3823 3.26358 48.9306C3.75733 48.4664 4.42636 48.1825 5.15958 48.1825C5.8928 48.1825 6.55936 48.4664 7.05558 48.933L7.05311 48.9306C7.53452 49.3848 7.8357 50.0267 7.83817 50.7402V50.7352ZM34.6883 52.8732H29.8816L17.2268 32.9059C16.9355 32.4566 16.6664 31.9382 16.4516 31.3926L16.4294 31.3333H16.3183C16.4195 32.2344 16.4763 33.2762 16.4763 34.3328C16.4763 34.5896 16.4739 34.8463 16.4665 35.1031V35.0661V52.8732H12.2177V25.7095H17.3355L29.5681 45.2077C30.0841 46.0125 30.4174 46.5704 30.5655 46.8741H30.6395C30.5161 45.9508 30.447 44.8843 30.447 43.8005C30.447 43.5956 30.4495 43.3932 30.4544 43.1882V43.2179V25.707H34.6883V52.8732ZM55.3814 52.8732H40.5071V25.7095H54.7913V29.5361H44.904V37.2312H54.0137V41.038H44.904V49.0713H55.3814V52.8732ZM76.5213 29.5361H68.9076V52.8756H64.5108V29.5361H56.9145V25.7095H76.5188L76.5213 29.5361Z" fill="black"/>
</g>
</svg>
