<svg width="46" height="45" viewBox="0 0 46 45" fill="none" xmlns="http://www.w3.org/2000/svg">
<g clip-path="url(#clip0_464_576)">
<path d="M42.0397 35.1957H3.96641V11.6876C3.96641 11.1893 4.37246 10.7806 4.87344 10.7806H12.0638L12.3354 11.3158C12.2756 11.4529 12.2185 11.59 12.1631 11.7298L10.531 12.2606C9.7707 12.5076 9.20293 13.093 8.97178 13.8198H7.45918C7.20781 13.8198 7.00566 14.0237 7.00566 14.2733V33.1531C7.00566 33.4045 7.20781 33.6093 7.45918 33.6093H38.5443C38.7957 33.6093 39.0005 33.4054 39.0005 33.1531V14.2733C39.0005 14.0246 38.7966 13.8198 38.5443 13.8198H37.0317C36.7997 13.0921 36.2319 12.5067 35.4717 12.2606L33.8396 11.7298C33.7851 11.59 33.7271 11.4529 33.6673 11.3158L33.9415 10.7806H41.1292C41.6302 10.7806 42.0389 11.1893 42.0389 11.6876V35.1957H42.0397ZM18.8146 38.1233C18.8946 38.2033 19.0036 38.2525 19.1258 38.2525H26.8769C26.999 38.2525 27.1089 38.2024 27.188 38.1233C27.268 38.0434 27.3172 37.9344 27.3172 37.8122V36.6485H18.6846V37.8122C18.6854 37.9344 18.7355 38.0434 18.8146 38.1233ZM45.0447 36.6485H28.7709V37.8122C28.7709 38.3325 28.5564 38.8062 28.2154 39.1499C27.8718 39.4909 27.398 39.7027 26.8777 39.7027H19.1267C18.6063 39.7027 18.1326 39.4909 17.789 39.1499C17.448 38.8062 17.2361 38.3325 17.2361 37.8122V36.6485H0.958789C0.707422 36.6485 0.5 36.8524 0.5 37.1047V39.1824C0.5 40.5755 1.64082 41.7163 3.03652 41.7163H42.9688C44.3618 41.7163 45.5026 40.5755 45.5026 39.1824V37.1047C45.5026 36.8524 45.2961 36.6485 45.0447 36.6485ZM28.7955 15.3201C28.8825 15.2331 28.9353 15.1136 28.9353 14.9835C28.9353 14.8517 28.8825 14.7321 28.7955 14.6469C28.7085 14.5599 28.589 14.5045 28.4589 14.5045H27.5448V15.459H28.4589C28.589 15.459 28.7085 15.4071 28.7955 15.3201ZM23.3366 15.3201C23.4236 15.2331 23.4764 15.1136 23.4764 14.9835C23.4764 14.8517 23.4236 14.7321 23.3366 14.6469C23.2496 14.5599 23.1301 14.5045 23 14.5045H22.0859V15.459H23C23.1301 15.459 23.2496 15.4071 23.3366 15.3201ZM12.8478 9.12646C12.6535 8.74502 12.7256 8.30205 13.0271 8.00059L15.0248 6.00283C15.3263 5.69873 15.7719 5.6293 16.1533 5.82354L17.8874 6.70771C18.1616 6.84746 18.4552 6.85186 18.7347 6.72529C18.9764 6.61279 19.2251 6.5082 19.4773 6.4168C19.7639 6.30957 19.9678 6.09775 20.0627 5.80684L20.6656 3.95586C20.7975 3.5498 21.1613 3.28613 21.5902 3.28613H24.4159C24.8422 3.28613 25.2061 3.5498 25.3379 3.95586L25.9408 5.80684C26.0357 6.09863 26.2396 6.31045 26.5288 6.4168C26.7802 6.50908 27.0271 6.61367 27.2688 6.72529C27.5475 6.85273 27.8419 6.84746 28.1161 6.70771L29.8528 5.82354C30.2343 5.6293 30.6772 5.69873 30.9787 6.00283L32.9765 8.00059C33.2806 8.30205 33.35 8.7459 33.1558 9.12646L32.2716 10.8632C32.1318 11.1374 32.1274 11.431 32.2566 11.7105C32.3665 11.9521 32.4711 12.1991 32.5634 12.4505C32.6706 12.7396 32.8824 12.9436 33.1733 13.0385L35.0243 13.6414C35.4304 13.7732 35.694 14.1371 35.694 14.5634V17.3891C35.694 17.818 35.4304 18.181 35.0243 18.3137L33.1733 18.9166C32.8815 19.0115 32.6697 19.2154 32.5634 19.502C32.4711 19.7533 32.3665 20.0029 32.2566 20.2446C32.1274 20.5232 32.1318 20.8177 32.2716 21.0919L33.1558 22.826C33.35 23.2101 33.2806 23.653 32.9765 23.9545L30.9787 25.9522C30.6772 26.2537 30.2334 26.3258 29.8528 26.1315L28.1161 25.2474C27.8419 25.1076 27.5483 25.1032 27.2688 25.2298C27.0271 25.3423 26.7802 25.4442 26.5288 25.5383C26.2396 25.6429 26.0357 25.8573 25.9408 26.1482L25.3379 27.9992C25.2061 28.4053 24.8422 28.6689 24.4159 28.6689H21.5902C21.1613 28.6689 20.7983 28.4053 20.6656 27.9992L20.0627 26.1482C19.9678 25.8564 19.7639 25.6429 19.4773 25.5383C19.226 25.4434 18.9764 25.3414 18.7347 25.2298C18.4561 25.1023 18.1616 25.1076 17.8874 25.2474L16.1533 26.1315C15.7719 26.3258 15.3263 26.2537 15.0248 25.9522L13.0271 23.9545C12.7256 23.653 12.6535 23.2092 12.8478 22.826L13.7319 21.0919C13.8717 20.8177 13.8761 20.5241 13.7495 20.2446C13.637 20.0029 13.5351 19.756 13.4401 19.502C13.3329 19.2154 13.1211 19.0115 12.8302 18.9166L10.9792 18.3137C10.5731 18.1818 10.3095 17.818 10.3095 17.3891V14.5634C10.3095 14.1371 10.5731 13.7732 10.9792 13.6414L12.8302 13.0385C13.122 12.9436 13.3338 12.7396 13.4401 12.4531C13.5324 12.1991 13.637 11.9521 13.7495 11.7105C13.877 11.4318 13.8717 11.1374 13.7319 10.8632L12.8478 9.12646ZM26.092 18.1722C26.092 18.5729 26.4181 18.8973 26.8197 18.8973C27.2205 18.8973 27.5448 18.5738 27.5448 18.1722V16.9118H28.4589C28.9897 16.9118 29.4731 16.6947 29.8221 16.3467C30.171 15.9978 30.3872 15.5144 30.3872 14.9835C30.3872 14.4526 30.1701 13.9692 29.8221 13.6203C29.4731 13.2688 28.9897 13.0525 28.4589 13.0525H26.8197C26.4189 13.0525 26.092 13.3786 26.092 13.7803V18.1722ZM20.634 18.1722C20.634 18.5729 20.9583 18.8973 21.3591 18.8973C21.7599 18.8973 22.0868 18.5738 22.0868 18.1722V16.9118H22.3654L23.3023 18.536C23.5045 18.8823 23.9475 18.9992 24.2938 18.7997C24.64 18.5976 24.7569 18.1546 24.5557 17.8083L23.9079 16.6851C24.0749 16.5928 24.2296 16.4812 24.3641 16.3467C24.713 15.9978 24.9292 15.5144 24.9292 14.9835C24.9292 14.4526 24.7121 13.9692 24.3641 13.6203C24.0125 13.2688 23.5317 13.0525 23.0009 13.0525H21.3591C20.9583 13.0525 20.634 13.3786 20.634 13.7803V18.1722ZM15.6163 18.1722C15.6163 18.5729 15.9406 18.8973 16.3414 18.8973H18.7628C19.1636 18.8973 19.4905 18.5738 19.4905 18.1722C19.4905 17.7714 19.1645 17.4471 18.7628 17.4471H17.0683V16.7018H18.7628C19.1636 16.7018 19.4905 16.3757 19.4905 15.974C19.4905 15.575 19.1645 15.2489 18.7628 15.2489H17.0683V14.5036H18.7628C19.1636 14.5036 19.4905 14.1793 19.4905 13.7785C19.4905 13.3777 19.1645 13.0508 18.7628 13.0508H16.3414C15.9406 13.0508 15.6163 13.3769 15.6163 13.7785V15.9731V18.1722Z" fill="white"/>
</g>
<defs>
<clipPath id="clip0_464_576">
<rect width="45" height="45" fill="white" transform="translate(0.5)"/>
</clipPath>
</defs>
</svg>
