<svg width="45" height="45" viewBox="0 0 45 45" fill="none" xmlns="http://www.w3.org/2000/svg">
<g clip-path="url(#clip0_464_843)">
<path fill-rule="evenodd" clip-rule="evenodd" d="M37.0919 20.7639C39.6392 23.5867 41.5382 26.0358 42.7889 28.2316C47.3691 36.2737 40.8534 44.4418 32.1274 44.2948C23.4013 44.4418 16.8856 36.2737 21.4658 28.2316C22.7165 26.0358 24.6156 23.5867 27.1629 20.7639C27.4669 20.8602 27.7903 20.9123 28.1255 20.9123H36.1291C36.4644 20.9123 36.7878 20.8602 37.0919 20.7639ZM4.69916 0.703125C2.50128 0.703125 0.703125 2.50137 0.703125 4.69916V33.9121C0.703125 36.11 2.50128 37.9081 4.69916 37.9081H19.4145C17.9763 34.4715 18.4114 30.7533 20.2439 27.5357C20.6183 26.8784 21.0289 26.2271 21.4667 25.5836C21.2135 25.4197 21.0452 25.1348 21.0452 24.8118V23.6175C21.0452 23.1115 21.4579 22.6989 21.9639 22.6989H23.63C24.3747 21.7835 25.1495 20.8925 25.925 20.0324C25.6961 19.8152 25.4992 19.5645 25.3421 19.2885H21.9639C21.4579 19.2885 21.0452 18.8758 21.0452 18.3698V17.1755C21.0452 16.6695 21.4579 16.2569 21.9639 16.2569H25.2765C25.5619 15.701 26.0055 15.2387 26.5471 14.9298L25.5924 13.9752C25.0114 13.3942 24.6973 12.6449 24.6496 11.8818H6.03114C5.52516 11.8818 5.11251 11.4692 5.11251 10.9632V7.3575C5.11251 6.85151 5.52516 6.43887 6.03114 6.43887H26.2413C26.7473 6.43887 27.16 6.85151 27.16 7.3575V8.51353C27.8082 8.36481 28.4977 8.4143 29.1279 8.67278C29.554 7.6529 30.4783 6.91181 31.5694 6.72082V4.69916C31.5694 2.50137 29.7712 0.703125 27.5734 0.703125H4.69916ZM28.1256 19.5061C27.1388 19.5061 26.3316 18.6988 26.3316 17.7121C26.3316 16.7254 27.1389 15.9181 28.1256 15.9181H36.1292C37.1159 15.9181 37.9232 16.7254 37.9232 17.7122C37.9232 18.6987 37.1159 19.5061 36.1292 19.5061H28.1256ZM6.87516 16.2569H10.3086C10.8146 16.2569 11.2272 16.6695 11.2272 17.1755V18.3698C11.2272 18.8757 10.8146 19.2884 10.3086 19.2884H6.87516C6.36917 19.2884 5.95652 18.8757 5.95652 18.3698V17.1755C5.95652 16.6695 6.36917 16.2569 6.87516 16.2569ZM14.4195 29.1408C13.9135 29.1408 13.5009 29.5535 13.5009 30.0595V31.2537C13.5009 31.7597 13.9135 32.1724 14.4195 32.1724H17.853C18.3589 32.1724 18.7716 31.7597 18.7716 31.2537V30.0595C18.7716 29.5535 18.3589 29.1408 17.853 29.1408H14.4195ZM6.87516 29.1408H10.3086C10.8146 29.1408 11.2272 29.5535 11.2272 30.0595V31.2537C11.2272 31.7597 10.8146 32.1724 10.3086 32.1724H6.87516C6.36917 32.1724 5.95652 31.7597 5.95652 31.2537V30.0595C5.95652 29.5535 6.36917 29.1408 6.87516 29.1408ZM14.4195 22.6988C13.9135 22.6988 13.5009 23.1115 13.5009 23.6174V24.8117C13.5009 25.3177 13.9135 25.7303 14.4195 25.7303H17.853C18.3589 25.7303 18.7716 25.3177 18.7716 24.8117V23.6174C18.7716 23.1115 18.3589 22.6988 17.853 22.6988H14.4195ZM6.87516 22.6988H10.3086C10.8146 22.6988 11.2272 23.1115 11.2272 23.6174V24.8117C11.2272 25.3177 10.8146 25.7303 10.3086 25.7303H6.87516C6.36917 25.7303 5.95652 25.3177 5.95652 24.8117V23.6174C5.95652 23.1115 6.36917 22.6988 6.87516 22.6988ZM14.4195 16.2569H17.853C18.3589 16.2569 18.7716 16.6695 18.7716 17.1755V18.3698C18.7716 18.8757 18.3589 19.2884 17.853 19.2884H14.4195C13.9135 19.2884 13.5009 18.8757 13.5009 18.3698V17.1755C13.5009 16.6695 13.9135 16.2569 14.4195 16.2569ZM32.0353 35.8581C31.4962 35.8441 30.9728 35.6981 30.5556 35.4202C30.178 35.1687 29.8896 34.8009 29.7691 34.3177C29.6618 33.8815 29.2212 33.6148 28.785 33.7221C28.3488 33.8295 28.0821 34.2701 28.1894 34.7062C28.417 35.619 28.9551 36.3091 29.6575 36.777C30.1373 37.0965 30.6946 37.3077 31.2781 37.4106V38.0435C31.2781 38.4938 31.6431 38.8589 32.0934 38.8589C32.5437 38.8589 32.9087 38.4939 32.9087 38.0435V37.4262C33.6178 37.3181 34.3403 37.0593 34.9075 36.6289C35.5892 36.1117 36.0426 35.3711 36.019 34.3771C36.0163 34.2633 36.0098 34.1632 35.9994 34.0777C35.8672 32.9885 35.278 32.2796 34.4966 31.8079C33.8104 31.3935 32.9874 31.1871 32.2328 31.0633C31.6886 30.9739 31.1154 30.8227 30.6956 30.5487C30.3703 30.3363 30.1371 30.0289 30.1152 29.5794C30.0916 29.093 30.3039 28.7006 30.6385 28.4286C30.9006 28.2155 31.2349 28.0674 31.5974 27.9945C31.7432 27.9651 31.8933 27.9482 32.0448 27.9442C32.0609 27.9452 32.077 27.9457 32.0933 27.9457C32.1129 27.9457 32.1324 27.945 32.1517 27.9436C32.3521 27.9465 32.554 27.9722 32.7511 28.0222C33.3572 28.1758 33.909 28.5753 34.1996 29.2674C34.3738 29.6825 34.8515 29.8778 35.2666 29.7037C35.6817 29.5296 35.877 29.0518 35.7028 28.6368C35.1911 27.4181 34.217 26.7139 33.146 26.4425C33.0674 26.4226 32.9883 26.4051 32.9087 26.39V25.7583C32.9087 25.308 32.5437 24.9429 32.0934 24.9429C31.6432 24.9429 31.2781 25.308 31.2781 25.7583V26.4023C30.6603 26.5268 30.0802 26.7876 29.613 27.1674C28.8949 27.7513 28.4396 28.599 28.4909 29.656C28.5424 30.7179 29.0724 31.4303 29.8102 31.9119C30.4534 32.3318 31.2433 32.5491 31.9717 32.6686C32.5567 32.7647 33.1813 32.9164 33.6559 33.203C34.0355 33.4321 34.3206 33.7671 34.3815 34.2689C34.3896 34.3358 34.394 34.3844 34.3947 34.4154C34.4042 34.8144 34.2133 35.1185 33.9266 35.336C33.5677 35.6083 33.0638 35.7688 32.5598 35.83C32.4226 35.8466 32.3027 35.8561 32.2011 35.8585L32.1623 35.8592C32.1395 35.8573 32.1166 35.8563 32.0933 35.8563C32.0738 35.856 32.0545 35.8568 32.0353 35.8581ZM28.118 14.512L26.5868 12.9808C25.8698 12.2638 25.8698 11.0906 26.5868 10.3736C27.1966 9.76377 28.162 9.66076 28.8876 10.1265C29.1572 10.2995 29.4667 10.3271 29.7625 10.2046C30.0582 10.0821 30.2576 9.84384 30.3259 9.53086C30.5066 8.70328 31.2475 8.07864 32.1274 8.07847C32.9912 8.07847 33.7448 8.68746 33.9289 9.53086C33.9972 9.84384 34.1966 10.0821 34.4923 10.2046C34.7882 10.3272 35.0977 10.2995 35.3671 10.1265C36.08 9.66894 37.0458 9.75146 37.6679 10.3735V10.3736C38.3849 11.0907 38.3849 12.2639 37.6679 12.9808L36.1368 14.512L36.1291 14.5119H28.1255L28.118 14.512Z" fill="white"/>
</g>
<defs>
<clipPath id="clip0_464_843">
<rect width="45" height="45" fill="white"/>
</clipPath>
</defs>
</svg>
