<svg width="46" height="45" viewBox="0 0 46 45" fill="none" xmlns="http://www.w3.org/2000/svg">
<g clip-path="url(#clip0_464_882)">
<path d="M14.209 9.66797C16.8787 9.66797 19.043 7.50372 19.043 4.83398C19.043 2.16425 16.8787 0 14.209 0C11.5392 0 9.375 2.16425 9.375 4.83398C9.375 7.50372 11.5392 9.66797 14.209 9.66797Z" fill="white"/>
<path d="M27.6188 26.8066H26.6055C26.6065 27.1978 26.6073 27.5743 26.6073 27.7725C26.6073 28.0016 26.6087 28.3682 26.6105 28.7414C26.9945 28.7395 27.3756 28.7382 27.6188 28.7382C28.2124 28.7382 28.7138 28.2959 28.7138 27.7725C28.7138 27.2489 28.2123 26.8066 27.6188 26.8066Z" fill="white"/>
<path d="M44.1816 20.2148H1.81836C1.09027 20.2148 0.5 20.8051 0.5 21.5332V38.2324C0.5 38.9605 1.09027 39.5508 1.81836 39.5508H44.1816C44.9097 39.5508 45.5 38.9605 45.5 38.2324V21.5332C45.5 20.8051 44.9097 20.2148 44.1816 20.2148ZM21.6114 34.2773C21.6114 35.0054 21.0211 35.5957 20.2931 35.5957C19.565 35.5957 18.9747 35.0054 18.9747 34.2773V31.0504H15.5293V34.2773C15.5293 35.0054 14.939 35.5957 14.2109 35.5957C13.4829 35.5957 12.8926 35.0054 12.8926 34.2773V25.4883C12.8926 24.7602 13.4829 24.1699 14.2109 24.1699C14.939 24.1699 15.5293 24.7602 15.5293 25.4883V28.4137H18.9747V25.4883C18.9747 24.7602 19.565 24.1699 20.2931 24.1699C21.0211 24.1699 21.6114 24.7602 21.6114 25.4883V34.2773ZM31.0209 33.4063C31.5019 33.9529 31.4488 34.786 30.9022 35.267C30.3557 35.748 29.5226 35.6949 29.0416 35.1483L26.5977 32.3717V34.2773C26.5977 35.0054 26.0074 35.5957 25.2794 35.5957C24.5513 35.5957 23.961 35.0054 23.961 34.2773V25.4883C23.961 24.7602 24.5513 24.1699 25.2794 24.1699C25.2798 24.1699 25.2803 24.17 25.2808 24.17C25.2812 24.17 25.2817 24.1699 25.2822 24.1699H27.6178C29.6756 24.1699 31.3496 25.7861 31.3496 27.7725C31.3496 29.2857 30.3775 30.5831 29.005 31.1158L31.0209 33.4063Z" fill="white"/>
<path d="M23.4414 17.5783V16.2599C23.4414 13.5247 21.9629 11.1293 19.764 9.82764C18.3955 11.3474 16.4141 12.3048 14.2129 12.3048C12.0117 12.3048 10.0303 11.3474 8.66181 9.82764C6.46287 11.1293 4.98438 13.5247 4.98438 16.2599V17.5783H23.4414Z" fill="white"/>
<path d="M39.8905 17.5781L42.683 10.5971C43.0294 9.73107 42.3916 8.78906 41.4589 8.78906H31.791C31.2518 8.78906 30.7671 9.11725 30.5669 9.61778L27.3828 17.5781H39.8905Z" fill="white"/>
<path d="M5.86133 45H8.49805C9.22613 45 9.81641 44.4097 9.81641 43.6816V42.1875H4.54297V43.6816C4.54297 44.4097 5.13324 45 5.86133 45Z" fill="white"/>
<path d="M37.502 45H40.1387C40.8668 45 41.457 44.4097 41.457 43.6816V42.1875H36.1836V43.6816C36.1836 44.4097 36.7739 45 37.502 45Z" fill="white"/>
</g>
<defs>
<clipPath id="clip0_464_882">
<rect width="45" height="45" fill="white" transform="translate(0.5)"/>
</clipPath>
</defs>
</svg>
