<svg xmlns="http://www.w3.org/2000/svg" xmlns:xlink="http://www.w3.org/1999/xlink" width="278.292" height="49.906" viewBox="0 0 278.292 49.906"><defs><clipPath id="a"><rect width="278.292" height="49.906" fill="none"/></clipPath></defs><g transform="translate(0 0)" clip-path="url(#a)"><path d="M27.657,3.676V18.4a15.469,15.469,0,0,1-.369,3.939,5.929,5.929,0,0,1-1.246,2.492,5.682,5.682,0,0,1-4.562,2.022,7.653,7.653,0,0,1-4.021-1.127l1.675-2.947a4.272,4.272,0,0,0,2.346.839A2.165,2.165,0,0,0,23.6,22.454a9.454,9.454,0,0,0,.615-4.066V3.676Z" transform="translate(47.667 10.037)" fill="#0076ad"/><path d="M36.268,20.195H27.916l-2.167,4.749H22.574l9.65-20.717,9.307,20.717H38.312Zm-1.2-2.764L32.172,10.8l-3.029,6.629Z" transform="translate(61.632 11.538)" fill="#0076ad"/><path d="M41.418,7.721,39.03,9.138A4.127,4.127,0,0,0,37.755,7.62a3.4,3.4,0,0,0-3.663.291,2.164,2.164,0,0,0-.809,1.72c0,.955.709,1.72,2.126,2.3l1.947.8a8.206,8.206,0,0,1,3.48,2.346,5.243,5.243,0,0,1,1.1,3.394,5.987,5.987,0,0,1-1.79,4.454A6.161,6.161,0,0,1,35.666,24.7a6.009,6.009,0,0,1-4.2-1.507,6.953,6.953,0,0,1-2.029-4.237l2.98-.653a5.08,5.08,0,0,0,.705,2.372,3.356,3.356,0,0,0,4.939.339,3.18,3.18,0,0,0,.91-2.335,3.244,3.244,0,0,0-.16-1.044,2.681,2.681,0,0,0-.492-.873,4.127,4.127,0,0,0-.865-.742,8.314,8.314,0,0,0-1.268-.66L34.3,14.569q-4.017-1.69-4.017-4.95a4.711,4.711,0,0,1,1.682-3.678,6.091,6.091,0,0,1,4.185-1.488,5.837,5.837,0,0,1,5.267,3.268" transform="translate(80.377 12.158)" fill="#0076ad"/><path d="M38.064,16.141v7.915H35.132V4.551h3.327a14.947,14.947,0,0,1,3.693.343,4.958,4.958,0,0,1,2.219,1.291,5.563,5.563,0,0,1,1.675,4.144,5.376,5.376,0,0,1-1.791,4.249,7.1,7.1,0,0,1-4.831,1.563Zm0-2.764h1.1q4.051,0,4.051-3.1,0-2.993-4.178-3h-.974Z" transform="translate(95.918 12.425)" fill="#0076ad"/><path d="M51.015,7.312H43.2V12h7.587v2.764H43.2v6.532h7.819v2.764H40.265V4.552h10.75Z" transform="translate(109.931 12.427)" fill="#0076ad"/><path d="M52.164,15.743,58.2,24.057H54.6l-5.569-7.983H48.5v7.983H45.573V4.552h3.443c2.578,0,4.431.489,5.577,1.455a5.337,5.337,0,0,1,1.891,4.267,5.526,5.526,0,0,1-1.19,3.562,5.258,5.258,0,0,1-3.13,1.906M48.5,13.5h.933q4.152,0,4.152-3.2c0-1.992-1.347-3-4.04-3H48.5Z" transform="translate(124.424 12.428)" fill="#0076ad"/><path d="M59.505,21.011a3.2,3.2,0,0,0,.91-2.335,3.334,3.334,0,0,0-.157-1.044,2.751,2.751,0,0,0-.492-.873,4.087,4.087,0,0,0-.873-.742,7.632,7.632,0,0,0-1.265-.66l-1.887-.787c-2.678-1.127-4.017-2.783-4.017-4.95a4.711,4.711,0,0,1,1.682-3.678,6.06,6.06,0,0,1,4.185-1.488,5.834,5.834,0,0,1,5.267,3.268L60.468,9.134A4.006,4.006,0,0,0,59.192,7.62a2.937,2.937,0,0,0-1.626-.4,2.989,2.989,0,0,0-2.033.694,2.157,2.157,0,0,0-.813,1.72c0,.955.712,1.72,2.13,2.3l1.947.8a8.22,8.22,0,0,1,3.48,2.346,5.283,5.283,0,0,1,1.1,3.394,5.962,5.962,0,0,1-1.794,4.454A6.14,6.14,0,0,1,57.1,24.7a5.969,5.969,0,0,1-4.189-1.511,6.9,6.9,0,0,1-2.033-4.234l2.977-.653a5.083,5.083,0,0,0,.712,2.372,3.352,3.352,0,0,0,4.935.339" transform="translate(138.916 12.158)" fill="#0076ad"/><path d="M56.292,14.491a9.559,9.559,0,0,1,3.014-7.08,9.93,9.93,0,0,1,7.222-2.958,9.747,9.747,0,0,1,7.147,2.984,9.784,9.784,0,0,1,2.992,7.169,9.6,9.6,0,0,1-3,7.143,10.295,10.295,0,0,1-14.067.332,9.6,9.6,0,0,1-3.3-7.591m2.958.034a7.069,7.069,0,0,0,2.175,5.327A7.195,7.195,0,0,0,71.6,19.81,7.211,7.211,0,0,0,73.7,14.577,7.152,7.152,0,0,0,71.616,9.34a7.268,7.268,0,0,0-10.266,0,7.049,7.049,0,0,0-2.1,5.185" transform="translate(153.689 12.158)" fill="#0076ad"/><path d="M73.862,7.312h-6.8V12h6.558v2.764H67.065v9.3H64.137V4.552h9.725Z" transform="translate(175.108 12.427)" fill="#0076ad"/><path d="M75.915,7.312V24.057H72.983V7.312H68.5V4.552H80.384v2.76Z" transform="translate(187.009 12.427)" fill="#0076ad"/><path d="M14.5,7.037C25.1-.487,36.782-2.24,40.579,3.117c1.544,2.182,1.533,5.222.25,8.565a3.165,3.165,0,0,0-.511-1.313c-2.369-3.346-11.276-1.093-19.9,5.021S6.731,29.168,9.1,32.511a3.105,3.105,0,0,0,1.071.925c-3.57.093-6.453-.892-8-3.074-3.8-5.357,1.712-15.8,12.325-23.325" transform="translate(2.661 0.039)" fill="#98b5d6"/><path d="M41.048,40.778C25.93,51.506,8.592,53,2.273,44.087a13.866,13.866,0,0,1-2.119-10,8.073,8.073,0,0,0,1.059,2.186c4.816,6.8,19.647,4.562,33.121-4.991S54.8,8.468,49.982,1.671A8.318,8.318,0,0,0,48.337,0,13.854,13.854,0,0,1,57,5.267c6.319,8.911-.843,24.8-15.947,35.511" transform="translate(-0.001 0)" fill="#0076ad"/><path d="M74.376,3.872V7.345H73.13V3.872h-.951V2.8h3.148V3.872Zm1.182,3.473L76.32,2.8h1.223l.865,2.32.91-2.32h1.235l.675,4.54H79.983l-.306-2.462L78.662,7.345h-.548l-.959-2.462-.362,2.462Z" transform="translate(197.064 7.659)" fill="#0076ad"/></g></svg>