<svg width="101" height="100" viewBox="0 0 101 100" fill="none" xmlns="http://www.w3.org/2000/svg">
<g id="kubernetes-svgrepo-com 1">
<path id="Vector" d="M28.6258 91.0563C29.9633 92.7938 31.9945 93.75 34.0883 93.75H66.907C69.0008 93.75 71.032 92.7188 72.3757 91.0375L92.7383 64.925C94.0758 63.1875 94.5383 60.9688 94.0758 58.8125L86.7945 26.2688C86.5717 25.2255 86.1151 24.2464 85.4591 23.4052C84.803 22.564 83.9646 21.8827 83.007 21.4125L53.5445 6.97502C52.606 6.49618 51.5669 6.24767 50.5133 6.25002C49.4633 6.25002 48.4195 6.48752 47.482 6.96877L18.0133 21.4688C17.0571 21.94 16.2201 22.6218 15.5653 23.4629C14.9104 24.304 14.4545 25.2825 14.232 26.325L6.95075 58.875C6.42575 61.0313 6.95075 63.25 8.28825 64.9875L28.6258 91.05V91.0563Z" fill="#326DE6"/>
<path id="Vector_2" fill-rule="evenodd" clip-rule="evenodd" d="M80.1314 57.05C80.7439 57.0625 81.3564 57.1125 81.9626 57.2L82.3251 57.2813L82.5189 57.3313C82.7826 57.3666 83.0361 57.4562 83.2634 57.5945C83.4907 57.7327 83.6869 57.9166 83.8396 58.1344C83.9923 58.3523 84.0982 58.5995 84.1506 58.8604C84.2029 59.1212 84.2006 59.3901 84.1439 59.65C84.0852 59.9113 83.9723 60.1573 83.8125 60.3721C83.6527 60.587 83.4496 60.7659 83.2163 60.8973C82.983 61.0286 82.7247 61.1096 82.4581 61.1348C82.1916 61.1601 81.9227 61.129 81.6689 61.0438H81.6439L81.6251 61.0375L81.6064 61.025C81.544 61.0119 81.4815 60.9994 81.4189 60.9875L81.1064 60.925C80.5233 60.7373 79.9515 60.5161 79.3939 60.2625C78.3178 59.8284 77.2022 59.4997 76.0626 59.2813C75.6678 59.2699 75.2842 59.4135 74.9939 59.6813C74.7216 59.6295 74.4487 59.5815 74.1751 59.5375C72.3221 65.3431 68.3978 70.2641 63.1501 73.3625C63.2439 73.625 63.3501 73.8813 63.4689 74.1313C63.2749 74.4728 63.2233 74.877 63.3251 75.2563C63.7876 76.3188 64.3564 77.3313 65.0189 78.2813C65.3939 78.7688 65.7314 79.2813 66.0439 79.8063L66.2189 80.1625L66.2939 80.3188C66.5025 80.6646 66.5963 81.0675 66.5619 81.4699C66.5275 81.8723 66.3665 82.2534 66.1022 82.5587C65.8378 82.8641 65.4836 83.0778 65.0902 83.1694C64.6969 83.2611 64.2847 83.2258 63.9126 83.0688C63.665 82.9664 63.4415 82.8135 63.2564 82.6197C63.0713 82.426 62.9286 82.1958 62.8376 81.9438L62.7751 81.8188C62.7143 81.6992 62.656 81.5783 62.6001 81.4563C62.3812 80.8841 62.1954 80.2998 62.0439 79.7063C61.7117 78.5994 61.2721 77.5276 60.7314 76.5063C60.4964 76.1886 60.1465 75.9755 59.7564 75.9125L59.5689 75.5813L59.3501 75.1813C53.6621 77.3288 47.3836 77.3133 41.7064 75.1375L41.2689 75.9188C40.9601 75.9666 40.6727 76.1059 40.4439 76.3188C39.7918 77.3852 39.2931 78.5382 38.9626 79.7438C38.8135 80.3373 38.6298 80.9216 38.4126 81.4938C38.363 81.5991 38.3109 81.7033 38.2564 81.8063L38.1751 81.975C38.0851 82.2278 37.9429 82.465 37.7577 82.6591C37.5726 82.8533 37.3486 83.0064 37.1005 83.1083C36.8523 83.2103 36.5855 83.2589 36.3173 83.251C36.0491 83.2431 35.7856 83.1789 35.5439 83.0625C35.1814 82.8892 34.8822 82.6067 34.6883 82.2548C34.4944 81.9029 34.4155 81.4991 34.4626 81.1C34.4947 80.8349 34.582 80.5794 34.7189 80.35L34.8064 80.1625L34.9689 79.8375C35.2814 79.3063 35.6189 78.8 35.9939 78.3125C36.6689 77.3375 37.2439 76.3 37.7251 75.2125C37.7749 74.8427 37.714 74.4665 37.5501 74.1313L37.9001 73.3C32.6719 70.2255 28.7501 65.3432 26.8751 59.575L26.0376 59.7188C25.7143 59.4896 25.3333 59.3553 24.9376 59.3313C23.7983 59.5479 22.6827 59.8744 21.6064 60.3063C21.0439 60.5563 20.4751 60.775 19.8939 60.9625C19.7903 60.9881 19.6861 61.011 19.5814 61.0313L19.3939 61.075H19.3751L19.3626 61.0875H19.3314C19.0145 61.1892 18.6766 61.207 18.3508 61.1391C18.025 61.0712 17.7223 60.92 17.4724 60.7003C17.2224 60.4806 17.0337 60.1998 16.9247 59.8854C16.8156 59.5709 16.7899 59.2336 16.8501 58.9063C16.9268 58.5121 17.1257 58.1521 17.4185 57.8772C17.7113 57.6024 18.0831 57.4267 18.4814 57.375L18.5126 57.3688H18.5251L18.5626 57.3563C18.7126 57.3188 18.9001 57.2688 19.0376 57.2438C19.6439 57.1625 20.2564 57.1125 20.8689 57.1C22.0314 57.0188 23.1814 56.8313 24.3001 56.5375C24.6317 56.325 24.9114 56.041 25.1189 55.7063L25.9189 55.475C25.0514 49.456 26.4429 43.3289 29.8251 38.275L29.2126 37.7313C29.1892 37.3355 29.0549 36.9543 28.8251 36.6313C27.9443 35.8758 26.9919 35.208 25.9814 34.6375C25.4349 34.3599 24.9049 34.051 24.3939 33.7125L24.0939 33.475L24.0001 33.3938L23.9751 33.375C23.5396 33.0647 23.2449 32.5943 23.1559 32.067C23.0668 31.5397 23.1906 30.9986 23.5001 30.5625C23.684 30.3392 23.9179 30.1624 24.1828 30.0462C24.4477 29.93 24.7363 29.8778 25.0251 29.8938C25.5108 29.9143 25.9772 30.0895 26.3564 30.3938L26.4939 30.5C26.5939 30.5813 26.7064 30.6625 26.7814 30.7313C27.2314 31.15 27.6501 31.6 28.0439 32.0625C28.8251 32.9188 29.6876 33.7 30.6189 34.3875C30.9689 34.575 31.3751 34.6125 31.7564 34.5L32.4439 34.9875C36.6288 30.549 42.3129 27.8228 48.3939 27.3375L48.4439 26.5313C48.7402 26.268 48.9549 25.9253 49.0626 25.5438C49.1044 24.3875 49.0333 23.2299 48.8501 22.0875C48.7281 21.4889 48.6404 20.8837 48.5876 20.275V19.7625V19.7313C48.5604 19.4643 48.5897 19.1947 48.6736 18.9398C48.7574 18.6849 48.894 18.4505 49.0744 18.2519C49.2548 18.0532 49.4749 17.8947 49.7206 17.7867C49.9662 17.6787 50.2318 17.6236 50.5001 17.625C50.7679 17.6256 51.0326 17.682 51.2773 17.7906C51.522 17.8993 51.7413 18.0577 51.9213 18.256C52.1013 18.4542 52.238 18.6878 52.3226 18.9418C52.4072 19.1958 52.4378 19.4647 52.4126 19.7313V20.275C52.3623 20.8836 52.2767 21.4888 52.1564 22.0875C51.9714 23.2298 51.8981 24.3873 51.9376 25.5438C52.0129 25.932 52.2373 26.2752 52.5626 26.5V26.5438L52.6064 27.35C58.6501 27.9 64.2939 30.6125 68.4814 34.9938L69.2064 34.4813C69.5979 34.5491 70.0007 34.5058 70.3689 34.3563C71.3001 33.6688 72.1626 32.8813 72.9439 32.025C73.3376 31.5563 73.7564 31.1125 74.2064 30.6938L74.5251 30.4438L74.6314 30.3563C74.8226 30.1667 75.0516 30.0195 75.3035 29.9242C75.5553 29.829 75.8244 29.7878 76.0932 29.8034C76.362 29.819 76.6246 29.891 76.8638 30.0147C77.1029 30.1384 77.3134 30.311 77.4814 30.5214C77.6495 30.7318 77.7714 30.9752 77.8392 31.2358C77.907 31.4964 77.9191 31.7684 77.8749 32.034C77.8307 32.2996 77.7311 32.553 77.5825 32.7775C77.4339 33.0021 77.2398 33.1929 77.0126 33.3375L76.8626 33.4625C76.7689 33.5375 76.6751 33.6188 76.5939 33.675C76.083 34.0138 75.553 34.3226 75.0064 34.6C73.9959 35.173 73.0435 35.8429 72.1626 36.6C71.9063 36.8974 71.7762 37.2831 71.8001 37.675L71.4876 37.95L71.1251 38.2813C74.5126 43.3188 75.9376 49.425 75.1064 55.4375L75.8751 55.6625C76.0689 56.0063 76.3564 56.2938 76.7064 56.4875C77.8251 56.7875 78.9751 56.975 80.1314 57.05ZM46.0689 32.75C46.7376 32.6 47.4189 32.4813 48.1064 32.4L47.5439 42.4L47.4939 42.425C47.4847 42.6524 47.4293 42.8755 47.331 43.0808C47.2327 43.286 47.0937 43.4691 46.9223 43.6188C46.751 43.7686 46.5509 43.8818 46.3343 43.9516C46.1177 44.0215 45.8892 44.0464 45.6626 44.025C45.3583 43.9991 45.0667 43.8911 44.8189 43.7125L44.8064 43.7188L36.5814 37.9063C39.2001 35.3438 42.4876 33.5563 46.0689 32.75ZM56.1814 43.6875L64.3564 37.9125C61.2436 34.871 57.2192 32.9345 52.9001 32.4L53.4626 42.3875H53.4751C53.4842 42.6155 53.5398 42.8392 53.6385 43.0449C53.7371 43.2506 53.8768 43.434 54.0488 43.5838C54.2209 43.7336 54.4217 43.8467 54.639 43.9161C54.8564 43.9855 55.0856 44.0098 55.3126 43.9875C55.617 43.9616 55.9086 43.8536 56.1564 43.675L56.1814 43.6875ZM70.2314 54.0375L60.5564 51.25L60.5439 51.2125C60.3246 51.1519 60.1198 51.0475 59.9419 50.9056C59.764 50.7638 59.6166 50.5875 59.5086 50.3872C59.4006 50.187 59.3342 49.9669 59.3134 49.7404C59.2926 49.5138 59.3179 49.2853 59.3876 49.0688C59.4832 48.7781 59.656 48.5188 59.8876 48.3188L59.8751 48.3125L67.3439 41.6438C69.6314 45.3563 70.6376 49.7063 70.2189 54.0375H70.2314ZM57.3501 59.375L61.2126 68.6875C64.906 66.3376 67.7102 62.823 69.1814 58.7L59.2251 57.0188L59.2126 57.0375C58.8604 56.9696 58.4956 57.0202 58.1751 57.1813C57.7871 57.371 57.4865 57.7022 57.3354 58.1068C57.1842 58.5115 57.194 58.9586 57.3626 59.3563L57.3501 59.375ZM54.9439 71.2813C51.3626 72.0938 47.6314 71.9063 44.1501 70.7313L49.0064 61.9813C49.1505 61.7134 49.3706 61.4894 49.6316 61.3331C49.8926 61.1768 50.1909 61.094 50.4951 61.0933C50.7993 61.0927 51.0981 61.1743 51.3597 61.3295C51.6213 61.4847 51.8361 61.7077 51.9814 61.975H52.0189L56.8876 70.7375C56.249 70.9505 55.6003 71.132 54.9439 71.2813ZM39.8314 68.6438L43.6501 59.4313L43.6251 59.3938C43.747 59.1138 43.79 58.8059 43.7495 58.5033C43.709 58.2007 43.5866 57.9149 43.3955 57.6768C43.2044 57.4387 42.9518 57.2574 42.6652 57.1525C42.3785 57.0475 42.0685 57.0229 41.7689 57.0813L41.7501 57.0625L31.8814 58.7313C33.3671 62.821 36.1618 66.3056 39.8314 68.6438ZM33.6001 41.6438L41.1064 48.3375L41.1001 48.3813C41.329 48.5813 41.4993 48.8396 41.593 49.1287C41.6868 49.4178 41.7004 49.7269 41.6324 50.0232C41.5644 50.3194 41.4174 50.5917 41.2071 50.811C40.9967 51.0303 40.7308 51.1885 40.4376 51.2688L40.4314 51.3L30.8064 54.0688C30.3276 49.7315 31.3109 45.3586 33.6001 41.6438ZM52.0376 48.8563H48.9626L47.0439 51.2313L47.7314 54.2063L50.5001 55.5375L53.2626 54.2125L53.9501 51.2375L52.0376 48.8563Z" fill="white"/>
</g>
</svg>
