<svg width="40" height="40" viewBox="0 0 40 40" fill="none" xmlns="http://www.w3.org/2000/svg">
<path d="M40.0004 16.4166C40.0004 8.75139 32.5641 2.51538 23.4241 2.51538C14.2839 2.51538 6.84766 8.75146 6.84766 16.4166C6.84766 24.0818 14.2839 30.3179 23.4241 30.3179C24.1926 30.3179 24.9638 30.2734 25.722 30.1855C29.2425 32.422 31.8414 33.6461 33.4522 33.8251C33.5082 33.8311 33.5646 33.8343 33.6198 33.8343C34.1372 33.8343 34.6161 33.5764 34.9012 33.1441C35.22 32.6604 35.2408 32.0468 34.9569 31.5458C34.9437 31.522 33.7006 29.254 34.0592 27.0876C37.8411 24.4411 40.0004 20.5735 40.0004 16.4166ZM18.9223 18.5161C17.566 18.5161 16.4669 17.4167 16.4669 16.0606C16.4669 14.7045 17.566 13.6051 18.9223 13.6051C20.2783 13.6051 21.3779 14.7045 21.3779 16.0606C21.378 17.4167 20.2784 18.5161 18.9223 18.5161ZM27.9263 18.5161C26.5698 18.5161 25.4704 17.4167 25.4704 16.0606C25.4704 14.7045 26.5698 13.6051 27.9263 13.6051C29.2823 13.6051 30.3817 14.7045 30.3817 16.0606C30.3817 17.4167 29.2822 18.5161 27.9263 18.5161Z" fill="#2D5CCC"/>
<path d="M10.3492 27.5385C8.70444 26.1766 7.40791 24.5824 6.49614 22.8005C5.53477 20.9217 5.04739 18.9232 5.04739 16.8604C5.04739 14.7976 5.53484 12.7991 6.49614 10.9204C6.56974 10.7766 6.6468 10.6345 6.72529 10.4932C2.66536 12.8192 0 16.7013 0 21.0897C0 25.0324 2.12386 28.6879 5.83425 31.1469C6.51954 33.8409 4.92928 36.6912 4.91248 36.7204C4.81771 36.8875 4.82471 37.0938 4.93046 37.2541C5.02575 37.3987 5.18667 37.4843 5.35745 37.4843C5.37634 37.4843 5.39516 37.4832 5.41425 37.4811C7.27059 37.2749 10.5395 35.3882 13.016 33.7973C13.8501 33.9105 14.7027 33.9678 15.5533 33.9678C18.8067 33.9678 21.8293 33.1358 24.3288 31.7162C23.7704 31.7609 23.2079 31.7848 22.6471 31.7848C18.0239 31.7848 13.6565 30.2768 10.3492 27.5385Z" fill="#2D5CCC"/>
</svg>
