<svg version="1.2" xmlns="http://www.w3.org/2000/svg" viewBox="0 0 456 127" width="456" height="127"><style>.a{stroke:#000;stroke-miterlimit:10;stroke-width:2}.b{fill:#f06642;stroke:#f06642;stroke-miterlimit:10;stroke-width:2}.c{fill:#f06642}</style><path  d="m198.5 49.6v30.8h-5.8v-30.8h-9.5v-4.9h24.7v4.9z"/><path  d="m206.2 77.7q0-1.3 0.9-2.3 0.9-0.9 2.3-0.9 1.3 0 2.2 0.9 1 1 1 2.3 0 1.3-1 2.2-0.9 0.9-2.2 0.9-1.4 0-2.3-0.9-0.9-0.9-0.9-2.2z"/><path  d="m232.6 49.6v30.8h-5.8v-30.8h-9.5v-4.9h24.7v4.9z"/><path  d="m240.3 77.7q-0.1-1.3 0.9-2.3 0.9-0.9 2.2-0.9 1.4 0 2.3 0.9 0.9 1 0.9 2.3 0 1.3-0.9 2.2-0.9 0.9-2.3 0.9-1.3 0-2.2-0.9-1-0.9-1-2.2z"/><path  d="m253 73.3l4.7-2.2q0.6 2.4 2.4 3.7 1.8 1.2 4.5 1.2 2.6 0 4.1-1.4 1.5-1.5 1.5-3.9 0-3.1-5.2-5.6-0.7-0.4-1.1-0.5-5.9-2.9-7.9-5.2-2-2.4-2-5.8 0-4.3 3-7 3-2.7 7.8-2.7 3.9 0 6.6 1.5 2.7 1.5 3.7 4.4l-4.6 2.3q-1-1.7-2.3-2.5-1.3-0.7-2.9-0.7-2.4 0-3.8 1.2-1.4 1.2-1.4 3.3 0 3.2 6.1 6 0.5 0.2 0.7 0.3 5.3 2.4 7.3 4.8 2 2.3 2 5.8 0 5.1-3.2 8.1-3.2 3-8.7 3-4.5 0-7.4-2.1-3-2.1-3.9-6z"/><path fill-rule="evenodd" d="m280.4 68.9q0-2.6 1-4.8 0.9-2.3 2.7-4.1 1.8-1.7 4.1-2.6 2.3-0.9 4.9-0.9 2.6 0 4.9 0.9 2.3 0.9 4.1 2.7 1.9 1.8 2.8 4 1 2.3 1 4.8 0 2.5-1 4.8-0.9 2.2-2.7 3.9-1.9 1.9-4.2 2.8-2.4 1-4.9 1-2.5 0-4.9-1-2.3-0.9-4.1-2.7-1.8-1.8-2.8-4.1-0.9-2.2-0.9-4.7zm19.9 0q0-3.2-2.1-5.4-2.1-2.3-5.1-2.3-2.9 0-5 2.3-2.1 2.2-2.1 5.4 0 3.2 2.1 5.5 2.1 2.2 5 2.2 3 0 5.1-2.2 2.1-2.3 2.1-5.5z"/><path  d="m312.2 80.4v-18.5h-4v-4.6h4v-6.2q0-4.7 1.9-6.8 2-2.2 6-2.2 0.8 0 1.7 0.1 0.9 0.1 1.9 0.4v4.8q-0.7-0.4-1.3-0.6-0.7-0.2-1.3-0.2-1.9 0-2.7 1.2-0.9 1.2-0.9 3.9v5.6h5.6v4.6h-5.6v18.5z"/><path  d="m328 80.4v-18.5h-4v-4.6h4v-8.8h5.3v8.8h4.1v4.6h-4.1v18.5z"/><path  d="m364.1 81.8l-5.3-12q-0.7-1.4-1-2.5-0.4-1.1-0.8-2.2-0.5 1.6-0.9 2.8-0.4 1.1-0.7 1.7l-5.5 12.2-11.9-24.5h5.6l5.2 11.1q0.3 0.7 0.6 2 0.3 1.2 0.5 2.7 0.1-0.9 0.3-1.8 0.3-1 0.9-2.4l5.7-12.5h0.4l5.8 12.5q0.5 1.2 0.8 2.2 0.3 1 0.3 2 0.2-1.3 0.6-2.5 0.3-1.2 0.7-2.1l5.1-11.2h5.6z"/><path fill-rule="evenodd" d="m401.2 80.4h-5.3v-3q-1.4 2-3.3 3-1.9 1-4.3 1-4.9 0-7.7-3.4-2.9-3.4-2.8-9.2 0-5.5 2.8-8.9 2.9-3.4 7.6-3.4 2.8 0 4.8 1.1 2 1.2 2.9 3.4v-3.7h5.3zm-5.1-11.7q0-3.6-1.7-5.6-1.7-2-4.7-2-3 0-4.7 2.1-1.7 2.1-1.7 5.7 0 3.7 1.7 5.7 1.6 2 4.6 2 2.9 0 4.7-2.2 1.8-2.1 1.8-5.7z"/><path  d="m413.9 60.9q0.8-2.2 2.2-3.3 1.4-1.1 3.5-1.1 1.1 0 2.2 0.2 1.1 0.3 2.1 0.8l-1.9 4.5q-0.6-0.5-1.4-0.7-0.8-0.3-1.8-0.3-2.6 0-3.8 2.2-1.1 2.1-1.1 7.1v10.1h-5.3v-23.2h5.3z"/><path fill-rule="evenodd" d="m449.3 69.6h-18.5q0.1 3.3 1.9 5.1 1.7 1.8 4.6 1.8 2.6 0 4.3-1.1 1.7-1 2.9-3.4l4.5 2.5q-1.9 3.4-4.8 5.2-2.9 1.7-6.8 1.7-5.5 0-8.8-3.4-3.3-3.4-3.3-9.1 0-5.4 3.4-8.9 3.4-3.5 8.7-3.5 5.6 0 8.7 3.2 3.2 3.2 3.2 8.9zm-5.5-3.5q-0.4-2.5-1.9-3.8-1.6-1.4-4.4-1.4-2.6 0-4.2 1.3-1.6 1.3-2.2 3.9z"/><path class="a" d="m118 37c0 0-8.4-29.2-46.2-28.6-26.6 0.4-37.2 20.3-41.1 32.1-1.5 4.3-2.2 8.8-2.2 13.4v9c0 0-22.7 0.1-21.6 26.1 1.1 26 25.1 30 25.1 30l30.4-50.9 10.6-0.1-31.3 51h10.8l28.5-51h10l-28.6 51h8.6z"/><path class="b" d="m126 39l-45 80h45c0 0 35.8-1 35.4-40-0.4-39-35.4-40-35.4-40z"/><path class="c" d="m197.5 93.5l-1.9 1.2q-0.6-1-1.1-1.3-0.5-0.3-1.3-0.3-1 0-1.7 0.6-0.6 0.5-0.6 1.4 0 1.1 1.7 1.8l1.6 0.7q1.9 0.8 2.8 1.9 0.9 1.1 0.9 2.7 0 2.2-1.4 3.7-1.5 1.4-3.7 1.4-2.1 0-3.4-1.2-1.3-1.2-1.7-3.5l2.5-0.5q0.1 1.4 0.5 1.9 0.8 1.1 2.2 1.1 1.1 0 1.9-0.8 0.7-0.7 0.7-1.9 0-0.5-0.1-0.8-0.2-0.4-0.4-0.7-0.3-0.4-0.7-0.7-0.5-0.2-1.1-0.5l-1.5-0.6q-3.3-1.4-3.3-4.1 0-1.8 1.4-3 1.4-1.2 3.4-1.2 2.8 0 4.3 2.7z"/><path fill-rule="evenodd" class="c" d="m200.8 101.9q0-2.1 1.6-3.7 1.5-1.5 3.8-1.5 2.2 0 3.8 1.6 1.5 1.5 1.5 3.7 0 2.3-1.5 3.8-1.6 1.5-3.9 1.5-2.2 0-3.8-1.5-1.5-1.6-1.5-3.9zm2.4 0.1q0 1.5 0.8 2.4 0.8 0.8 2.2 0.8 1.3 0 2.1-0.8 0.9-0.9 0.9-2.4 0-1.4-0.9-2.3-0.8-0.9-2.1-0.9-1.4 0-2.2 0.9-0.8 0.9-0.8 2.3z"/><path class="c" d="m217.3 99.2v7.8h-2.3v-7.8h-0.9v-2.2h0.9v-3.9q0-1.9 0.6-2.6 0.9-1.1 2.7-1.1 0.6 0 1.5 0.3v2.4l-0.2-0.1q-0.8-0.4-1.3-0.4-0.6 0-0.8 0.4-0.2 0.5-0.2 1.7v3.3h2.5v2.2z"/><path class="c" d="m225.2 99.2v7.8h-2.3v-7.8h-1v-2.2h1v-3.7h2.3v3.7h1.8v2.2z"/><path class="c" d="m230.8 97l2.6 5.7 2.8-6.6 2.9 6.6 2.6-5.7h2.6l-5.3 10.8-2.8-6.5-2.8 6.5-5.2-10.8z"/><path fill-rule="evenodd" class="c" d="m253.8 97h2.3v10h-2.3v-1q-1.4 1.3-3.1 1.3-2 0-3.4-1.5-1.3-1.5-1.3-3.8 0-2.3 1.3-3.8 1.4-1.5 3.4-1.5 1.7 0 3.1 1.5zm-5.5 4.9q0 1.5 0.8 2.4 0.8 0.9 2 0.9 1.3 0 2.1-0.9 0.8-0.9 0.8-2.3 0-1.4-0.8-2.3-0.8-0.9-2.1-0.9-1.2 0-2 0.9-0.8 0.9-0.8 2.2z"/><path class="c" d="m260 97h2.3v0.9q0.7-0.7 1.1-0.9 0.5-0.3 1.2-0.3 1 0 2 0.6l-1.1 2.1q-0.7-0.4-1.3-0.4-1.9 0-1.9 2.8v5.2h-2.3z"/><path fill-rule="evenodd" class="c" d="m277.8 102.6h-7.2q0.1 1.2 0.8 1.9 0.7 0.7 1.8 0.7 0.9 0 1.5-0.4 0.5-0.4 1.2-1.5l2 1.1q-0.5 0.8-1 1.3-0.5 0.6-1.1 0.9-0.5 0.4-1.2 0.5-0.7 0.2-1.4 0.2-2.3 0-3.7-1.4-1.3-1.5-1.3-3.9 0-2.4 1.3-3.8 1.3-1.5 3.5-1.5 2.2 0 3.5 1.4 1.3 1.4 1.3 3.9zm-2.4-1.9q-0.5-1.8-2.3-1.8-0.4 0-0.8 0.1-0.4 0.1-0.7 0.4-0.3 0.2-0.5 0.5-0.2 0.4-0.3 0.8z"/><path class="c" d="m298.1 93.5l-1.9 1.2q-0.6-1-1.1-1.3-0.5-0.3-1.3-0.3-1 0-1.7 0.6-0.6 0.5-0.6 1.4 0 1.1 1.7 1.8l1.6 0.7q1.9 0.8 2.8 1.9 0.9 1.1 0.9 2.7 0 2.2-1.4 3.7-1.5 1.4-3.7 1.4-2.1 0-3.4-1.2-1.3-1.2-1.7-3.5l2.5-0.5q0.1 1.4 0.5 1.9 0.8 1.1 2.2 1.1 1.1 0 1.9-0.8 0.7-0.7 0.7-1.9 0-0.5-0.1-0.8-0.2-0.4-0.4-0.7-0.3-0.4-0.7-0.7-0.5-0.2-1.1-0.5l-1.5-0.6q-3.3-1.4-3.3-4.1 0-1.8 1.4-3 1.4-1.2 3.4-1.2 2.8 0 4.3 2.7z"/><path fill-rule="evenodd" class="c" d="m301.4 101.9q0-2.1 1.6-3.7 1.5-1.5 3.8-1.5 2.2 0 3.8 1.6 1.5 1.5 1.5 3.7 0 2.3-1.5 3.8-1.6 1.5-3.9 1.5-2.2 0-3.8-1.5-1.5-1.6-1.5-3.9zm2.4 0.1q0 1.5 0.8 2.4 0.8 0.8 2.2 0.8 1.3 0 2.1-0.8 0.9-0.9 0.9-2.4 0-1.4-0.9-2.3-0.8-0.9-2.1-0.9-1.4 0-2.2 0.9-0.8 0.9-0.8 2.3z"/><path class="c" d="m317.8 89.6v17.4h-2.3v-17.4z"/><path class="c" d="m324 97v5.8q0 2.4 2 2.4 1.9 0 1.9-2.4v-5.8h2.3v5.8q0 1.2-0.3 2.1-0.3 0.8-1 1.4-1.1 1-2.9 1-1.8 0-3-1-0.7-0.6-1-1.4-0.3-0.7-0.3-2.1v-5.8z"/><path class="c" d="m336.5 99.2v7.8h-2.3v-7.8h-1v-2.2h1v-3.7h2.3v3.7h1.8v2.2z"/><path class="c" d="m340.4 92.8q0-0.6 0.5-1 0.4-0.5 1-0.5 0.7 0 1.1 0.5 0.4 0.4 0.4 1 0 0.7-0.4 1.1-0.4 0.5-1.1 0.5-0.6 0-1-0.5-0.5-0.4-0.5-1.1zm2.7 4.2v10h-2.3v-10z"/><path fill-rule="evenodd" class="c" d="m346.5 101.9q0-2.1 1.5-3.7 1.6-1.5 3.8-1.5 2.3 0 3.8 1.6 1.6 1.5 1.6 3.7 0 2.3-1.6 3.8-1.6 1.5-3.8 1.5-2.3 0-3.8-1.5-1.5-1.6-1.5-3.9zm2.3 0.1q0 1.5 0.8 2.4 0.9 0.8 2.2 0.8 1.4 0 2.2-0.8 0.8-0.9 0.8-2.4 0-1.4-0.8-2.3-0.8-0.9-2.2-0.9-1.3 0-2.1 0.9-0.9 0.9-0.9 2.3z"/><path class="c" d="m360.5 97h2.4v0.9q1.2-1.2 2.7-1.2 1.8 0 2.7 1.1 0.9 1 0.9 3.1v6.1h-2.3v-5.6q0-1.5-0.5-2-0.4-0.6-1.4-0.6-1.2 0-1.7 0.8-0.4 0.7-0.4 2.6v4.8h-2.4z"/><path class="c" d="m389.7 93.4h-6.4v3.8h6.2v2.3h-6.2v5.3h6.4v2.2h-8.8v-15.9h8.8z"/><path class="c" d="m396.4 101.6l-3.6-4.6h2.8l2.2 2.9 2.3-2.9h2.8l-3.7 4.6 4.3 5.4h-2.8l-2.9-3.7-3 3.7h-2.8z"/><path fill-rule="evenodd" class="c" d="m408.3 112.5h-2.3v-15.5h2.3v1.1q1.4-1.4 3.1-1.4 2.1 0 3.4 1.5 1.4 1.6 1.4 3.9 0 2.2-1.4 3.7-1.3 1.5-3.3 1.5-1.8 0-3.2-1.4zm5.5-10.4q0-1.4-0.8-2.4-0.8-0.9-2-0.9-1.2 0-2 0.9-0.8 0.9-0.8 2.3 0 1.5 0.8 2.4 0.8 0.9 2 0.9 1.2 0 2-0.9 0.8-0.9 0.8-2.3z"/><path fill-rule="evenodd" class="c" d="m428.7 102.6h-7.2q0.1 1.2 0.8 1.9 0.7 0.7 1.8 0.7 0.9 0 1.5-0.4 0.5-0.4 1.2-1.5l2 1.1q-0.5 0.8-1 1.3-0.5 0.6-1.1 0.9-0.5 0.4-1.2 0.5-0.7 0.2-1.5 0.2-2.2 0-3.6-1.4-1.3-1.5-1.3-3.9 0-2.4 1.3-3.8 1.3-1.5 3.5-1.5 2.2 0 3.5 1.4 1.3 1.4 1.3 3.9zm-2.4-1.9q-0.5-1.8-2.3-1.8-0.4 0-0.8 0.1-0.4 0.1-0.7 0.4-0.3 0.2-0.5 0.5-0.2 0.4-0.3 0.8z"/><path class="c" d="m432.1 97h2.4v0.9q0.6-0.7 1.1-0.9 0.5-0.3 1.2-0.3 0.9 0 1.9 0.6l-1.1 2.1q-0.6-0.4-1.2-0.4-1.9 0-1.9 2.8v5.2h-2.4z"/><path class="c" d="m444.1 99.2v7.8h-2.3v-7.8h-1v-2.2h1v-3.7h2.3v3.7h1.8v2.2z"/></svg>