<svg version="1.2" xmlns="http://www.w3.org/2000/svg" viewBox="0 0 468 140" width="468" height="140"><style>.a{fill:#f06642}.b{stroke:#000;stroke-miterlimit:10;stroke-width:2}.c{fill:#f06642;stroke:#f06642;stroke-miterlimit:10;stroke-width:2}</style><path  d="m204.5 54.6v30.8h-5.8v-30.8h-9.5v-4.9h24.7v4.9z"/><path  d="m212.2 82.7q0-1.3 0.9-2.3 0.9-0.9 2.3-0.9 1.3 0 2.2 0.9 1 1 1 2.3 0 1.3-1 2.2-0.9 0.9-2.2 0.9-1.4 0-2.3-0.9-0.9-0.9-0.9-2.2z"/><path  d="m238.6 54.6v30.8h-5.8v-30.8h-9.5v-4.9h24.7v4.9z"/><path  d="m246.3 82.7q-0.1-1.3 0.9-2.3 0.9-0.9 2.2-0.9 1.4 0 2.3 0.9 0.9 1 0.9 2.3 0 1.3-0.9 2.2-0.9 0.9-2.3 0.9-1.3 0-2.2-0.9-1-0.9-1-2.2z"/><path  d="m259 78.3l4.7-2.2q0.6 2.4 2.4 3.7 1.8 1.2 4.5 1.2 2.6 0 4.1-1.4 1.5-1.5 1.5-3.9 0-3.1-5.2-5.6-0.7-0.4-1.1-0.5-5.9-2.9-7.9-5.2-2-2.4-2-5.8 0-4.3 3-7 3-2.7 7.8-2.7 3.9 0 6.6 1.5 2.7 1.5 3.7 4.4l-4.6 2.3q-1-1.7-2.3-2.5-1.3-0.7-2.9-0.7-2.4 0-3.8 1.2-1.4 1.2-1.4 3.3 0 3.2 6.1 6 0.5 0.2 0.7 0.3 5.3 2.4 7.3 4.8 2 2.3 2 5.8 0 5.1-3.2 8.1-3.2 3-8.7 3-4.5 0-7.4-2.1-3-2.1-3.9-6z"/><path fill-rule="evenodd" d="m286.4 73.9q0-2.6 1-4.8 0.9-2.3 2.7-4.1 1.8-1.7 4.1-2.6 2.3-0.9 4.9-0.9 2.6 0 4.9 0.9 2.3 0.9 4.1 2.7 1.9 1.8 2.8 4 1 2.3 1 4.8 0 2.5-1 4.8-0.9 2.2-2.7 3.9-1.9 1.9-4.2 2.8-2.4 1-4.9 1-2.5 0-4.9-1-2.3-0.9-4.1-2.7-1.8-1.8-2.8-4.1-0.9-2.2-0.9-4.7zm19.9 0q0-3.2-2.1-5.4-2.1-2.3-5.1-2.3-2.9 0-5 2.3-2.1 2.2-2.1 5.4 0 3.2 2.1 5.5 2.1 2.2 5 2.2 3 0 5.1-2.2 2.1-2.3 2.1-5.5z"/><path  d="m318.2 85.4v-18.5h-4v-4.6h4v-6.2q0-4.7 1.9-6.8 2-2.2 6-2.2 0.8 0 1.7 0.1 0.9 0.1 1.9 0.4v4.8q-0.7-0.4-1.3-0.6-0.7-0.2-1.3-0.2-1.9 0-2.7 1.2-0.9 1.2-0.9 3.9v5.6h5.6v4.6h-5.6v18.5z"/><path  d="m334 85.4v-18.5h-4v-4.6h4v-8.8h5.3v8.8h4.1v4.6h-4.1v18.5z"/><path  d="m370.1 86.8l-5.3-12q-0.7-1.4-1-2.5-0.4-1.1-0.8-2.2-0.5 1.6-0.9 2.8-0.4 1.1-0.7 1.7l-5.5 12.2-11.9-24.5h5.6l5.2 11.1q0.3 0.7 0.6 2 0.3 1.2 0.5 2.7 0.1-0.9 0.3-1.8 0.3-1 0.9-2.4l5.7-12.5h0.4l5.8 12.5q0.5 1.2 0.8 2.2 0.3 1 0.3 2 0.2-1.3 0.6-2.5 0.3-1.2 0.7-2.1l5.1-11.2h5.6z"/><path fill-rule="evenodd" d="m407.2 85.4h-5.3v-3q-1.4 2-3.3 3-1.9 1-4.3 1-4.9 0-7.7-3.4-2.9-3.4-2.8-9.2 0-5.5 2.8-8.9 2.9-3.4 7.6-3.4 2.8 0 4.8 1.1 2 1.2 2.9 3.4v-3.7h5.3zm-5.1-11.7q0-3.6-1.7-5.6-1.7-2-4.7-2-3 0-4.7 2.1-1.7 2.1-1.7 5.7 0 3.7 1.7 5.7 1.6 2 4.6 2 2.9 0 4.7-2.2 1.8-2.1 1.8-5.7z"/><path  d="m419.9 65.9q0.8-2.2 2.2-3.3 1.4-1.1 3.5-1.1 1.1 0 2.2 0.2 1.1 0.3 2.1 0.8l-1.9 4.5q-0.6-0.5-1.4-0.7-0.8-0.3-1.8-0.3-2.6 0-3.8 2.2-1.1 2.1-1.1 7.1v10.1h-5.3v-23.2h5.3z"/><path fill-rule="evenodd" d="m455.3 74.6h-18.5q0.1 3.3 1.9 5.1 1.7 1.8 4.6 1.8 2.6 0 4.3-1.1 1.7-1 2.9-3.4l4.5 2.5q-1.9 3.4-4.8 5.2-2.9 1.7-6.8 1.7-5.5 0-8.8-3.4-3.3-3.4-3.3-9.1 0-5.4 3.4-8.9 3.4-3.5 8.7-3.5 5.6 0 8.7 3.2 3.2 3.2 3.2 8.9zm-5.5-3.5q-0.4-2.5-1.9-3.8-1.6-1.4-4.4-1.4-2.6 0-4.2 1.3-1.6 1.3-2.2 3.9z"/><path class="a" d="m194.7 108.2h2.5q0 0.9 0.2 1.4 0.3 0.6 0.8 1 0.5 0.4 1.2 0.5 0.6 0.2 1.4 0.2 0.8 0 1.4-0.2 0.6-0.2 0.9-0.5 0.4-0.3 0.5-0.7 0.2-0.4 0.2-0.8 0-0.8-0.4-1.2-0.3-0.4-0.8-0.5-0.7-0.3-1.8-0.5-1-0.3-2.4-0.7-1-0.2-1.6-0.6-0.6-0.4-0.9-0.9-0.4-0.5-0.6-1-0.1-0.6-0.1-1.1 0-1.1 0.4-1.9 0.5-0.8 1.2-1.3 0.8-0.5 1.7-0.8 1-0.2 1.9-0.2 1.1 0 2.1 0.3 1 0.3 1.8 0.8 0.7 0.6 1.2 1.5 0.4 0.8 0.4 1.9h-2.5q-0.1-1.3-0.9-1.9-0.9-0.6-2.2-0.6-0.4 0-0.9 0.1-0.4 0.1-0.8 0.3-0.4 0.2-0.7 0.6-0.2 0.3-0.2 0.9 0 0.7 0.5 1.2 0.4 0.4 1.2 0.6 0.1 0 0.6 0.2 0.6 0.1 1.3 0.3 0.6 0.2 1.3 0.4 0.6 0.1 0.9 0.2 0.7 0.2 1.2 0.6 0.6 0.4 0.9 0.9 0.4 0.5 0.5 1 0.2 0.6 0.2 1.2 0 1.2-0.5 2-0.5 0.9-1.3 1.4-0.8 0.5-1.8 0.8-1 0.2-2.1 0.2-1.2 0-2.3-0.3-1.1-0.3-1.9-0.9-0.8-0.6-1.2-1.6-0.5-0.9-0.5-2.3zm19.5 5.1q-1.2 0-2.2-0.4-1-0.4-1.7-1.2-0.6-0.7-1-1.7-0.3-1-0.3-2.2 0-1.2 0.3-2.2 0.4-1 1-1.7 0.7-0.7 1.7-1.1 1-0.4 2.2-0.4 1.2 0 2.2 0.4 1 0.4 1.6 1.1 0.7 0.7 1.1 1.7 0.3 1 0.3 2.2 0 1.2-0.3 2.2-0.4 1-1.1 1.7-0.6 0.8-1.6 1.2-1 0.4-2.2 0.4zm0-1.8q0.8 0 1.3-0.3 0.6-0.4 0.9-0.9 0.4-0.5 0.6-1.1 0.1-0.7 0.1-1.4 0-0.6-0.1-1.3-0.2-0.7-0.6-1.2-0.3-0.5-0.9-0.8-0.5-0.3-1.3-0.3-0.8 0-1.3 0.3-0.6 0.3-0.9 0.8-0.4 0.5-0.6 1.2-0.1 0.7-0.1 1.3 0 0.7 0.1 1.4 0.2 0.6 0.6 1.1 0.3 0.5 0.9 0.9 0.5 0.3 1.3 0.3zm7.4-7.1v-1.7h1.7v-0.9q0-1 0.2-1.6 0.3-0.6 0.7-0.9 0.4-0.4 0.9-0.5 0.5-0.1 1.1-0.1 1.1 0 1.6 0.2v1.7q-0.3 0-0.5 0-0.3-0.1-0.6-0.1-0.5 0-0.8 0.2-0.3 0.3-0.3 0.9v1.1h1.9v1.7h-1.9v8.6h-2.3v-8.6zm7.6 0v-1.7h1.7v-3.1h2.3v3.1h2v1.7h-2v5.5q0 0.3 0 0.6 0 0.3 0.1 0.4 0.2 0.2 0.4 0.3 0.2 0.1 0.6 0.1 0.2 0 0.5 0 0.2 0 0.4-0.1v1.8q-0.3 0-0.7 0.1-0.4 0-0.7 0-0.9 0-1.5-0.2-0.5-0.1-0.9-0.5-0.3-0.3-0.4-0.8-0.1-0.5-0.1-1.1v-6.1zm11.3 8.6l-3.2-10.3h2.4l2 7.7 2-7.7h2.3l1.8 7.7h0.1l2.1-7.7h2.3l-3.2 10.3h-2.4l-1.9-7.7-1.9 7.7zm23.2-7.6v5.3q0 0.4 0.1 0.6 0.1 0.2 0.5 0.2 0.1 0 0.2 0 0.1 0 0.3-0.1v1.6q-0.1 0.1-0.3 0.1-0.2 0.1-0.4 0.1-0.2 0-0.4 0.1-0.2 0-0.3 0-0.7 0-1.2-0.3-0.4-0.3-0.6-1-0.7 0.7-1.7 1-0.9 0.3-1.9 0.3-0.7 0-1.3-0.2-0.6-0.2-1.1-0.6-0.5-0.3-0.8-0.9-0.3-0.6-0.3-1.3 0-1 0.3-1.6 0.4-0.6 1-0.9 0.5-0.4 1.2-0.5 0.8-0.2 1.5-0.3 0.6-0.1 1.2-0.1 0.5-0.1 0.9-0.2 0.5-0.1 0.7-0.4 0.3-0.2 0.3-0.7 0-0.5-0.2-0.7-0.2-0.3-0.6-0.5-0.3-0.1-0.6-0.2-0.4 0-0.8 0-0.9 0-1.5 0.4-0.7 0.4-0.7 1.2h-2.3q0-1 0.5-1.6 0.4-0.7 1-1.1 0.7-0.4 1.5-0.6 0.8-0.1 1.7-0.1 0.7 0 1.5 0.1 0.7 0.2 1.3 0.6 0.6 0.3 1 0.9 0.3 0.6 0.3 1.4zm-2.3 4.1v-1.7q-0.5 0.4-1.2 0.4-0.8 0.1-1.6 0.2-0.3 0.1-0.7 0.2-0.3 0.1-0.6 0.3-0.2 0.2-0.4 0.5-0.1 0.3-0.1 0.8 0 0.3 0.2 0.6 0.2 0.3 0.5 0.4 0.3 0.2 0.7 0.2 0.4 0.1 0.7 0.1 0.4 0 0.8-0.1 0.4-0.1 0.8-0.4 0.4-0.2 0.7-0.6 0.2-0.3 0.2-0.9zm6.1 3.5v-10.3h2.1v2h0.1q0.1-0.5 0.3-0.9 0.3-0.4 0.7-0.7 0.5-0.3 1-0.5 0.5-0.2 1-0.2 0.4 0 0.5 0 0.2 0 0.3 0v2.2q-0.2 0-0.5 0-0.2-0.1-0.4-0.1-0.6 0-1.1 0.3-0.5 0.2-0.9 0.7-0.4 0.4-0.6 1.1-0.2 0.6-0.2 1.5v4.9zm9.7-6.1h5.3q0-0.5-0.2-1-0.2-0.5-0.5-0.9-0.3-0.4-0.8-0.6-0.5-0.2-1.1-0.2-0.6 0-1.1 0.2-0.4 0.2-0.8 0.6-0.3 0.3-0.6 0.8-0.2 0.5-0.2 1.1zm7.6 1.5h-7.6q0 0.6 0.2 1.2 0.2 0.5 0.5 1 0.3 0.4 0.9 0.6 0.5 0.3 1.2 0.3 1 0 1.6-0.4 0.6-0.5 0.9-1.3h2.2q-0.2 0.8-0.6 1.5-0.5 0.6-1.1 1.1-0.6 0.4-1.4 0.7-0.8 0.2-1.6 0.2-1.2 0-2.2-0.4-0.9-0.4-1.6-1.1-0.6-0.8-0.9-1.8-0.4-1-0.4-2.2 0-1.1 0.4-2 0.3-1 1-1.8 0.6-0.7 1.6-1.2 0.9-0.4 2-0.4 1.3 0 2.2 0.5 1 0.5 1.6 1.3 0.7 0.9 1 2 0.3 1.1 0.1 2.2zm9.4-0.2h2.5q0 0.9 0.3 1.4 0.2 0.6 0.7 1 0.5 0.4 1.2 0.5 0.6 0.2 1.4 0.2 0.8 0 1.4-0.2 0.6-0.2 0.9-0.5 0.4-0.3 0.6-0.7 0.1-0.4 0.1-0.8 0-0.8-0.4-1.2-0.3-0.4-0.8-0.5-0.7-0.3-1.7-0.5-1-0.3-2.5-0.7-0.9-0.2-1.6-0.6-0.6-0.4-0.9-0.9-0.4-0.5-0.5-1-0.2-0.6-0.2-1.1 0-1.1 0.5-1.9 0.4-0.8 1.2-1.3 0.7-0.5 1.6-0.8 1-0.2 1.9-0.2 1.2 0 2.1 0.3 1 0.3 1.8 0.8 0.7 0.6 1.2 1.5 0.4 0.8 0.4 1.9h-2.5q-0.1-1.3-0.9-1.9-0.9-0.6-2.2-0.6-0.4 0-0.9 0.1-0.4 0.1-0.8 0.3-0.4 0.2-0.6 0.6-0.3 0.3-0.3 0.9 0 0.7 0.5 1.2 0.5 0.4 1.2 0.6 0.1 0 0.6 0.2 0.6 0.1 1.3 0.3 0.7 0.2 1.3 0.4 0.7 0.1 0.9 0.2 0.7 0.2 1.3 0.6 0.5 0.4 0.8 0.9 0.4 0.5 0.5 1 0.2 0.6 0.2 1.2 0 1.2-0.5 2-0.5 0.9-1.3 1.4-0.8 0.5-1.8 0.8-1 0.2-2.1 0.2-1.2 0-2.3-0.3-1-0.3-1.8-0.9-0.8-0.6-1.3-1.6-0.5-0.9-0.5-2.3zm19.5 5.1q-1.2 0-2.2-0.4-1-0.4-1.6-1.2-0.7-0.7-1.1-1.7-0.3-1-0.3-2.2 0-1.2 0.3-2.2 0.4-1 1.1-1.7 0.6-0.7 1.6-1.1 1-0.4 2.2-0.4 1.3 0 2.2 0.4 1 0.4 1.7 1.1 0.6 0.7 1 1.7 0.3 1 0.3 2.2 0 1.2-0.3 2.2-0.4 1-1 1.7-0.7 0.8-1.7 1.2-0.9 0.4-2.2 0.4zm0-1.8q0.8 0 1.3-0.3 0.6-0.4 1-0.9 0.3-0.5 0.5-1.1 0.2-0.7 0.2-1.4 0-0.6-0.2-1.3-0.2-0.7-0.5-1.2-0.4-0.5-1-0.8-0.5-0.3-1.3-0.3-0.7 0-1.3 0.3-0.6 0.3-0.9 0.8-0.4 0.5-0.6 1.2-0.1 0.7-0.1 1.3 0 0.7 0.1 1.4 0.2 0.6 0.6 1.1 0.3 0.5 0.9 0.9 0.6 0.3 1.3 0.3zm8.5 1.5v-14.3h2.3v14.3zm15.1-10.3v10.3h-2.2v-1.4h-0.1q-0.4 0.7-1.2 1.2-0.8 0.5-1.7 0.5-2 0-3-1-0.9-1-0.9-3.1v-6.5h2.3v6.3q0 1.4 0.5 1.9 0.6 0.6 1.5 0.6 0.7 0 1.2-0.2 0.5-0.3 0.8-0.6 0.3-0.4 0.4-0.9 0.1-0.5 0.1-1.1v-6zm2.7 1.7v-1.7h1.7v-3.1h2.3v3.1h2.1v1.7h-2.1v5.5q0 0.3 0 0.6 0.1 0.3 0.2 0.4 0.1 0.2 0.3 0.3 0.2 0.1 0.6 0.1 0.2 0 0.5 0 0.2 0 0.5-0.1v1.8q-0.4 0-0.8 0.1-0.3 0-0.7 0-0.9 0-1.5-0.2-0.5-0.1-0.8-0.5-0.3-0.3-0.5-0.8-0.1-0.5-0.1-1.1v-6.1zm9.1-3.5v-2.2h2.3v2.2zm0 12.1v-10.3h2.2v10.3zm10.8 0.3q-1.2 0-2.2-0.4-0.9-0.4-1.6-1.2-0.7-0.7-1-1.7-0.4-1-0.4-2.2 0-1.2 0.4-2.2 0.3-1 1-1.7 0.7-0.7 1.6-1.1 1-0.4 2.2-0.4 1.3 0 2.2 0.4 1 0.4 1.7 1.1 0.7 0.7 1 1.7 0.4 1 0.4 2.2 0 1.2-0.4 2.2-0.3 1-1 1.7-0.7 0.8-1.7 1.2-0.9 0.4-2.2 0.4zm0-1.8q0.8 0 1.4-0.3 0.5-0.4 0.9-0.9 0.3-0.5 0.5-1.1 0.2-0.7 0.2-1.4 0-0.6-0.2-1.3-0.2-0.7-0.5-1.2-0.4-0.5-0.9-0.8-0.6-0.3-1.4-0.3-0.7 0-1.3 0.3-0.5 0.3-0.9 0.8-0.4 0.5-0.5 1.2-0.2 0.7-0.2 1.3 0 0.7 0.2 1.4 0.1 0.6 0.5 1.1 0.4 0.5 0.9 0.9 0.6 0.3 1.3 0.3zm8.5 1.5v-10.3h2.1v1.5h0.1q0.5-0.8 1.3-1.3 0.9-0.5 1.9-0.5 1.7 0 2.7 0.9 0.9 0.8 0.9 2.6v7.1h-2.2v-6.5q-0.1-1.2-0.6-1.8-0.4-0.5-1.5-0.5-0.5 0-1 0.2-0.5 0.2-0.8 0.6-0.3 0.3-0.5 0.8-0.2 0.5-0.2 1.1v6.1zm20 0v-14.3h10.3v2.2h-7.8v3.7h7.2v2.1h-7.2v4.1h7.9v2.2zm12.5 0l3.9-5.4-3.6-4.9h2.8l2.1 3.1 2.3-3.1h2.6l-3.5 4.7 4 5.6h-2.8l-2.6-3.8-2.5 3.8zm13.2 3.8v-14.1h2.1v1.4h0.1q0.5-0.9 1.3-1.3 0.9-0.4 1.9-0.4 1.2 0 2.1 0.4 0.9 0.4 1.5 1.2 0.6 0.7 0.9 1.7 0.3 1 0.3 2.2 0 1-0.3 2-0.2 1-0.8 1.7-0.5 0.8-1.4 1.2-0.8 0.5-1.9 0.5-0.5 0-1-0.1-0.5-0.1-1-0.3-0.5-0.2-0.9-0.5-0.3-0.3-0.6-0.7v5.1zm7.9-9q0-0.7-0.2-1.3-0.1-0.7-0.5-1.2-0.4-0.5-0.9-0.8-0.5-0.3-1.2-0.3-1.5 0-2.2 1-0.7 1-0.7 2.6 0 0.8 0.1 1.5 0.2 0.7 0.6 1.1 0.4 0.5 0.9 0.8 0.6 0.3 1.3 0.3 0.7 0 1.3-0.3 0.5-0.4 0.9-0.9 0.3-0.5 0.5-1.1 0.1-0.7 0.1-1.4zm7.3-0.9h5.3q0-0.5-0.2-1-0.2-0.5-0.5-0.9-0.4-0.4-0.8-0.6-0.5-0.2-1.1-0.2-0.6 0-1.1 0.2-0.5 0.2-0.8 0.6-0.4 0.3-0.6 0.8-0.2 0.5-0.2 1.1zm7.6 1.5h-7.6q0 0.6 0.2 1.2 0.1 0.5 0.5 1 0.3 0.4 0.8 0.6 0.6 0.3 1.3 0.3 1 0 1.6-0.4 0.6-0.5 0.9-1.3h2.2q-0.2 0.8-0.7 1.5-0.4 0.6-1 1.1-0.6 0.4-1.4 0.7-0.8 0.2-1.6 0.2-1.2 0-2.2-0.4-0.9-0.4-1.6-1.1-0.6-0.8-1-1.8-0.3-1-0.3-2.2 0-1.1 0.4-2 0.3-1 1-1.8 0.6-0.7 1.5-1.2 1-0.4 2.1-0.4 1.2 0 2.2 0.5 1 0.5 1.6 1.3 0.7 0.9 0.9 2 0.3 1.1 0.2 2.2zm3 4.6v-10.3h2.2v2q0.1-0.5 0.4-0.9 0.3-0.4 0.7-0.7 0.4-0.3 0.9-0.5 0.5-0.2 1-0.2 0.4 0 0.6 0 0.1 0 0.3 0v2.2q-0.2 0-0.5 0-0.2-0.1-0.5-0.1-0.6 0-1.1 0.3-0.5 0.2-0.9 0.7-0.3 0.4-0.6 1.1-0.2 0.6-0.2 1.5v4.9zm7.3-8.6v-1.7h1.7v-3.1h2.3v3.1h2.1v1.7h-2.1v5.5q0 0.3 0 0.6 0.1 0.3 0.2 0.4 0.1 0.2 0.3 0.3 0.2 0.1 0.6 0.1 0.3 0 0.5 0 0.2 0 0.5-0.1v1.8q-0.4 0-0.8 0.1-0.3 0-0.7 0-0.9 0-1.5-0.2-0.5-0.1-0.8-0.5-0.3-0.3-0.4-0.8-0.1-0.5-0.2-1.1v-6.1z"/><path class="b" d="m124 42c0 0-8.4-29.2-46.2-28.6-26.6 0.4-37.2 20.3-41.1 32.1-1.5 4.3-2.2 8.8-2.2 13.4v9c0 0-22.7 0.1-21.6 26.1 1.1 26 25.1 30 25.1 30l30.4-50.9 10.6-0.1-31.3 51h10.8l28.5-51h10l-28.6 51h8.6z"/><path class="c" d="m132 44l-45 80h45c0 0 35.8-1 35.4-40-0.4-39-35.4-40-35.4-40z"/></svg>