<svg version="1.2" xmlns="http://www.w3.org/2000/svg" viewBox="0 0 460 125" width="460" height="125">
    <style>
        .a{fill:#f06642}.b{stroke:#000;stroke-miterlimit:10;stroke-width:2}.c{fill:#f06642;stroke:#f06642;stroke-miterlimit:10;stroke-width:2}</style>
    <path d="m200.5 48.6v30.8h-5.8v-30.8h-9.5v-4.9h24.7v4.9z" />
    <path
        d="m208.2 76.7q0-1.3 0.9-2.3 0.9-0.9 2.3-0.9 1.3 0 2.2 0.9 1 1 1 2.3 0 1.3-1 2.2-0.9 0.9-2.2 0.9-1.4 0-2.3-0.9-0.9-0.9-0.9-2.2z" />
    <path d="m234.6 48.6v30.8h-5.8v-30.8h-9.5v-4.9h24.7v4.9z" />
    <path
        d="m242.3 76.7q-0.1-1.3 0.9-2.3 0.9-0.9 2.2-0.9 1.4 0 2.3 0.9 0.9 1 0.9 2.3 0 1.3-0.9 2.2-0.9 0.9-2.3 0.9-1.3 0-2.2-0.9-1-0.9-1-2.2z" />
    <path
        d="m255 72.3l4.7-2.2q0.6 2.4 2.4 3.7 1.8 1.2 4.5 1.2 2.6 0 4.1-1.4 1.5-1.5 1.5-3.9 0-3.1-5.2-5.6-0.7-0.4-1.1-0.5-5.9-2.9-7.9-5.2-2-2.4-2-5.8 0-4.3 3-7 3-2.7 7.8-2.7 3.9 0 6.6 1.5 2.7 1.5 3.7 4.4l-4.6 2.3q-1-1.7-2.3-2.5-1.3-0.7-2.9-0.7-2.4 0-3.8 1.2-1.4 1.2-1.4 3.3 0 3.2 6.1 6 0.5 0.2 0.7 0.3 5.3 2.4 7.3 4.8 2 2.3 2 5.8 0 5.1-3.2 8.1-3.2 3-8.7 3-4.5 0-7.4-2.1-3-2.1-3.9-6z" />
    <path fill-rule="evenodd"
        d="m282.4 67.9q0-2.6 1-4.8 0.9-2.3 2.7-4.1 1.8-1.7 4.1-2.6 2.3-0.9 4.9-0.9 2.6 0 4.9 0.9 2.3 0.9 4.1 2.7 1.9 1.8 2.8 4 1 2.3 1 4.8 0 2.5-1 4.8-0.9 2.2-2.7 3.9-1.9 1.9-4.2 2.8-2.4 1-4.9 1-2.5 0-4.9-1-2.3-0.9-4.1-2.7-1.8-1.8-2.8-4.1-0.9-2.2-0.9-4.7zm19.9 0q0-3.2-2.1-5.4-2.1-2.3-5.1-2.3-2.9 0-5 2.3-2.1 2.2-2.1 5.4 0 3.2 2.1 5.5 2.1 2.2 5 2.2 3 0 5.1-2.2 2.1-2.3 2.1-5.5z" />
    <path
        d="m314.2 79.4v-18.5h-4v-4.6h4v-6.2q0-4.7 1.9-6.8 2-2.2 6-2.2 0.8 0 1.7 0.1 0.9 0.1 1.9 0.4v4.8q-0.7-0.4-1.3-0.6-0.7-0.2-1.3-0.2-1.9 0-2.7 1.2-0.9 1.2-0.9 3.9v5.6h5.6v4.6h-5.6v18.5z" />
    <path d="m330 79.4v-18.5h-4v-4.6h4v-8.8h5.3v8.8h4.1v4.6h-4.1v18.5z" />
    <path
        d="m366.1 80.8l-5.3-12q-0.7-1.4-1-2.5-0.4-1.1-0.8-2.2-0.5 1.6-0.9 2.8-0.4 1.1-0.7 1.7l-5.5 12.2-11.9-24.5h5.6l5.2 11.1q0.3 0.7 0.6 2 0.3 1.2 0.5 2.7 0.1-0.9 0.3-1.8 0.3-1 0.9-2.4l5.7-12.5h0.4l5.8 12.5q0.5 1.2 0.8 2.2 0.3 1 0.3 2 0.2-1.3 0.6-2.5 0.3-1.2 0.7-2.1l5.1-11.2h5.6z" />
    <path fill-rule="evenodd"
        d="m403.2 79.4h-5.3v-3q-1.4 2-3.3 3-1.9 1-4.3 1-4.9 0-7.7-3.4-2.9-3.4-2.8-9.2 0-5.5 2.8-8.9 2.9-3.4 7.6-3.4 2.8 0 4.8 1.1 2 1.2 2.9 3.4v-3.7h5.3zm-5.1-11.7q0-3.6-1.7-5.6-1.7-2-4.7-2-3 0-4.7 2.1-1.7 2.1-1.7 5.7 0 3.7 1.7 5.7 1.6 2 4.6 2 2.9 0 4.7-2.2 1.8-2.1 1.8-5.7z" />
    <path
        d="m415.9 59.9q0.8-2.2 2.2-3.3 1.4-1.1 3.5-1.1 1.1 0 2.2 0.2 1.1 0.3 2.1 0.8l-1.9 4.5q-0.6-0.5-1.4-0.7-0.8-0.3-1.8-0.3-2.6 0-3.8 2.2-1.1 2.1-1.1 7.1v10.1h-5.3v-23.2h5.3z" />
    <path fill-rule="evenodd"
        d="m451.3 68.6h-18.5q0.1 3.3 1.9 5.1 1.7 1.8 4.6 1.8 2.6 0 4.3-1.1 1.7-1 2.9-3.4l4.5 2.5q-1.9 3.4-4.8 5.2-2.9 1.7-6.8 1.7-5.5 0-8.8-3.4-3.3-3.4-3.3-9.1 0-5.4 3.4-8.9 3.4-3.5 8.7-3.5 5.6 0 8.7 3.2 3.2 3.2 3.2 8.9zm-5.5-3.5q-0.4-2.5-1.9-3.8-1.6-1.4-4.4-1.4-2.6 0-4.2 1.3-1.6 1.3-2.2 3.9z" />
    <path class="a"
        d="m190 92.4h2.6l2.5 10.9h0.1l2.9-10.9h2.5l2.8 10.9h0.1l2.6-10.9h2.6l-4 14.3h-2.5l-2.9-10.9-2.9 10.9h-2.6z" />
    <path fill-rule="evenodd" class="a"
        d="m213.3 102.1q0 0.6 0.2 1.2 0.1 0.5 0.5 0.9 0.3 0.5 0.8 0.7 0.6 0.3 1.3 0.3 1 0 1.6-0.5 0.6-0.4 0.9-1.3h2.2q-0.2 0.9-0.7 1.5-0.4 0.7-1 1.1-0.6 0.5-1.4 0.7-0.8 0.3-1.6 0.3-1.2 0-2.2-0.4-0.9-0.4-1.6-1.2-0.6-0.7-0.9-1.7-0.4-1-0.4-2.2 0-1.1 0.4-2.1 0.3-1 1-1.7 0.6-0.8 1.5-1.2 1-0.4 2.1-0.4 1.2 0 2.2 0.5 1 0.5 1.6 1.3 0.7 0.9 1 1.9 0.2 1.1 0.1 2.3zm5.3-1.5q0-0.5-0.2-1-0.2-0.5-0.5-0.9-0.4-0.4-0.8-0.6-0.5-0.2-1.1-0.2-0.6 0-1.1 0.2-0.5 0.2-0.8 0.5-0.4 0.4-0.6 0.9-0.2 0.5-0.2 1.1z" />
    <path fill-rule="evenodd" class="a"
        d="m224.6 92.4h2.3v5.3q0.3-0.4 0.6-0.7 0.3-0.3 0.8-0.5 0.4-0.2 0.8-0.3 0.5-0.1 0.9-0.1 1.2 0 2.1 0.4 0.9 0.4 1.5 1.2 0.6 0.7 0.9 1.7 0.3 1 0.3 2.2 0 1-0.2 2-0.3 1-0.8 1.7-0.6 0.8-1.4 1.2-0.9 0.5-2 0.5-0.5 0-1.1-0.1-0.5-0.1-1-0.3-0.5-0.2-0.8-0.5-0.4-0.3-0.7-0.8v1.4h-2.2zm8 9.1q0-0.7-0.2-1.4-0.2-0.6-0.6-1.1-0.3-0.5-0.9-0.9-0.5-0.3-1.2-0.3-1.4 0-2.2 1-0.7 1-0.7 2.7 0 0.8 0.2 1.4 0.2 0.7 0.6 1.2 0.3 0.5 0.9 0.8 0.5 0.2 1.2 0.2 0.8 0 1.3-0.3 0.6-0.3 0.9-0.8 0.4-0.5 0.5-1.2 0.2-0.6 0.2-1.3z" />
    <path fill-rule="evenodd" class="a"
        d="m250.3 92.4h2.6l5.5 14.3h-2.7l-1.3-3.8h-5.7l-1.3 3.8h-2.6zm-0.9 8.6h4.4l-2.2-6.2z" />
    <path fill-rule="evenodd" class="a"
        d="m261.4 96.3h2.2v1.4q0.5-0.9 1.4-1.3 0.8-0.3 1.8-0.3 1.2 0 2.2 0.4 0.9 0.4 1.5 1.2 0.6 0.7 0.9 1.7 0.3 1 0.3 2.2 0 1-0.3 2-0.3 1-0.8 1.7-0.6 0.8-1.4 1.2-0.9 0.5-2 0.5-0.5 0-1-0.1-0.5-0.1-1-0.3-0.4-0.2-0.8-0.5-0.4-0.3-0.7-0.8v5.2h-2.3zm8 5.2q0-0.7-0.2-1.4-0.2-0.6-0.5-1.2-0.4-0.5-0.9-0.8-0.6-0.3-1.3-0.3-1.4 0-2.1 1-0.8 1-0.8 2.7 0 0.8 0.2 1.4 0.2 0.7 0.6 1.2 0.4 0.5 0.9 0.7 0.5 0.3 1.2 0.3 0.8 0 1.3-0.3 0.6-0.3 0.9-0.8 0.4-0.5 0.5-1.2 0.2-0.6 0.2-1.3z" />
    <path fill-rule="evenodd" class="a"
        d="m275.5 96.3h2.2v1.4q0.5-0.9 1.4-1.3 0.8-0.3 1.8-0.3 1.3 0 2.2 0.4 0.9 0.4 1.5 1.2 0.6 0.7 0.9 1.7 0.3 1 0.3 2.2 0 1-0.3 2-0.3 1-0.8 1.7-0.6 0.8-1.4 1.2-0.8 0.5-2 0.5-0.5 0-1-0.1-0.5-0.1-0.9-0.3-0.5-0.2-0.9-0.5-0.4-0.3-0.6-0.8h-0.1v5.2h-2.3zm8 5.2q0-0.7-0.2-1.4-0.2-0.6-0.5-1.2-0.4-0.5-0.9-0.8-0.6-0.3-1.3-0.3-1.4 0-2.1 1-0.8 1-0.8 2.7 0 0.8 0.2 1.4 0.2 0.7 0.6 1.2 0.4 0.5 0.9 0.7 0.5 0.3 1.2 0.3 0.8 0 1.4-0.3 0.5-0.3 0.9-0.8 0.3-0.5 0.5-1.2 0.1-0.6 0.1-1.3z" />
    <path class="a" d="m289.7 92.4h2.2v14.3h-2.2z" />
    <path class="a" d="m296.4 92.4h2.3v2.2h-2.3zm0 3.9h2.3v10.3h-2.3z" />
    <path class="a"
        d="m310 99.8q-0.1-1-0.7-1.5-0.7-0.4-1.6-0.4-0.5 0-1 0.1-0.5 0.2-0.9 0.6-0.4 0.4-0.7 1.1-0.3 0.7-0.3 1.9 0 0.7 0.2 1.3 0.1 0.6 0.5 1.1 0.3 0.5 0.8 0.8 0.5 0.4 1.3 0.4 1 0 1.6-0.7 0.7-0.6 0.8-1.7h2.3q-0.3 2-1.5 3.1-1.2 1.1-3.2 1.1-1.3 0-2.2-0.5-0.9-0.4-1.6-1.1-0.6-0.7-0.9-1.7-0.4-0.9-0.4-2.1 0-1.1 0.4-2.2 0.3-1 0.9-1.7 0.7-0.8 1.6-1.2 1-0.4 2.2-0.4 0.9 0 1.8 0.2 0.8 0.2 1.4 0.7 0.6 0.4 1 1.1 0.4 0.7 0.5 1.7z" />
    <path fill-rule="evenodd" class="a"
        d="m324.7 104.4q0 0.4 0.1 0.6 0.1 0.2 0.5 0.2 0.1 0 0.2 0 0.1 0 0.3-0.1v1.6q-0.1 0-0.3 0.1-0.2 0-0.4 0.1-0.2 0-0.4 0-0.2 0.1-0.3 0.1-0.7 0-1.2-0.3-0.4-0.3-0.6-1-0.7 0.7-1.6 1-1 0.3-2 0.3-0.7 0-1.3-0.2-0.6-0.2-1.1-0.6-0.5-0.4-0.8-0.9-0.3-0.6-0.3-1.4 0-0.9 0.4-1.5 0.3-0.6 0.9-1 0.5-0.3 1.3-0.5 0.7-0.1 1.4-0.2 0.6-0.1 1.2-0.2 0.5 0 1-0.1 0.4-0.1 0.6-0.4 0.3-0.2 0.3-0.7 0-0.5-0.2-0.8-0.2-0.2-0.5-0.4-0.4-0.1-0.7-0.2-0.4 0-0.8 0-0.9 0-1.5 0.4-0.7 0.4-0.7 1.2h-2.3q0-1 0.5-1.7 0.4-0.6 1-1 0.7-0.4 1.5-0.6 0.8-0.1 1.7-0.1 0.7 0 1.5 0.1 0.7 0.2 1.3 0.5 0.6 0.4 1 1 0.3 0.5 0.3 1.4zm-2.3-2.9q-0.5 0.3-1.2 0.4-0.8 0.1-1.6 0.2-0.3 0.1-0.7 0.2-0.3 0.1-0.6 0.3-0.2 0.2-0.4 0.5-0.1 0.3-0.1 0.7 0 0.4 0.2 0.7 0.2 0.2 0.5 0.4 0.3 0.1 0.7 0.2 0.4 0 0.7 0 0.4 0 0.8-0.1 0.4-0.1 0.8-0.3 0.4-0.2 0.7-0.6 0.2-0.4 0.2-0.9z" />
    <path class="a"
        d="m328 96.3h1.8v-3.1h2.2v3.1h2.1v1.7h-2.1v5.6q0 0.3 0.1 0.6 0 0.2 0.1 0.4 0.1 0.2 0.3 0.3 0.3 0.1 0.6 0.1 0.3 0 0.5 0 0.3 0 0.5-0.1v1.8q-0.4 0-0.7 0-0.4 0.1-0.8 0.1-0.9 0-1.4-0.2-0.6-0.2-0.9-0.5-0.3-0.3-0.4-0.8-0.1-0.5-0.1-1.2v-6.1h-1.8z" />
    <path class="a" d="m337.7 92.4h2.3v2.2h-2.3zm0 3.9h2.3v10.3h-2.3z" />
    <path fill-rule="evenodd" class="a"
        d="m349.1 107q-1.2 0-2.2-0.5-1-0.4-1.6-1.1-0.7-0.7-1.1-1.7-0.3-1-0.3-2.2 0-1.2 0.3-2.2 0.4-1 1.1-1.7 0.6-0.7 1.6-1.1 1-0.4 2.2-0.4 1.2 0 2.2 0.4 1 0.4 1.7 1.1 0.6 0.7 1 1.7 0.3 1 0.3 2.2 0 1.2-0.3 2.2-0.4 1-1 1.7-0.7 0.7-1.7 1.1-1 0.5-2.2 0.5zm0-1.8q0.8 0 1.3-0.4 0.6-0.3 0.9-0.8 0.4-0.5 0.6-1.2 0.1-0.6 0.1-1.3 0-0.7-0.1-1.3-0.2-0.7-0.6-1.2-0.3-0.5-0.9-0.8-0.5-0.3-1.3-0.3-0.8 0-1.3 0.3-0.6 0.3-0.9 0.8-0.4 0.5-0.6 1.2-0.1 0.6-0.1 1.3 0 0.7 0.1 1.3 0.2 0.7 0.6 1.2 0.3 0.5 0.9 0.8 0.5 0.4 1.3 0.4z" />
    <path class="a"
        d="m358.1 96.3h2.2v1.6q0.5-0.9 1.4-1.4 0.8-0.4 1.8-0.4 1.7 0 2.7 0.8 1 0.9 1 2.7v7.1h-2.3v-6.5q0-1.2-0.5-1.8-0.5-0.5-1.5-0.5-0.6 0-1 0.2-0.5 0.2-0.8 0.5-0.3 0.4-0.5 0.9-0.2 0.5-0.2 1.1v6.1h-2.3z" />
    <path class="a" d="m379.3 92.4h10.3v2.2h-7.8v3.7h7.2v2h-7.2v4.2h7.9v2.2h-10.4z" />
    <path class="a"
        d="m396.2 101.2l-3.5-4.9h2.7l2.2 3.2 2.2-3.2h2.7l-3.5 4.8 3.9 5.6h-2.7l-2.6-3.8-2.6 3.8h-2.7z" />
    <path fill-rule="evenodd" class="a"
        d="m406.2 96.3h2.1v1.4h0.1q0.4-0.9 1.3-1.3 0.9-0.3 1.9-0.3 1.2 0 2.1 0.4 0.9 0.4 1.5 1.2 0.6 0.7 0.9 1.7 0.3 1 0.3 2.2 0 1-0.3 2-0.2 1-0.8 1.7-0.5 0.8-1.4 1.2-0.8 0.5-2 0.5-0.5 0-1-0.1-0.5-0.1-0.9-0.3-0.5-0.2-0.9-0.5-0.4-0.3-0.6-0.8h-0.1v5.2h-2.2zm7.9 5.2q0-0.7-0.2-1.4-0.1-0.6-0.5-1.2-0.4-0.5-0.9-0.8-0.5-0.3-1.2-0.3-1.5 0-2.2 1-0.7 1-0.7 2.7 0 0.8 0.2 1.4 0.1 0.7 0.5 1.2 0.4 0.5 0.9 0.7 0.6 0.3 1.3 0.3 0.7 0 1.3-0.3 0.5-0.3 0.9-0.8 0.3-0.5 0.5-1.2 0.1-0.6 0.1-1.3z" />
    <path fill-rule="evenodd" class="a"
        d="m422 102.1q0 0.6 0.2 1.2 0.1 0.5 0.5 0.9 0.3 0.5 0.8 0.7 0.6 0.3 1.3 0.3 1 0 1.6-0.5 0.6-0.4 0.9-1.3h2.2q-0.2 0.9-0.7 1.5-0.4 0.7-1 1.1-0.6 0.5-1.4 0.7-0.8 0.3-1.6 0.3-1.2 0-2.2-0.4-0.9-0.4-1.6-1.2-0.6-0.7-0.9-1.7-0.4-1-0.4-2.2 0-1.1 0.4-2.1 0.3-1 1-1.7 0.6-0.8 1.5-1.2 1-0.4 2.1-0.4 1.2 0 2.2 0.5 1 0.5 1.6 1.3 0.7 0.9 1 1.9 0.2 1.1 0.1 2.3zm5.3-1.5q0-0.5-0.2-1-0.2-0.5-0.5-0.9-0.4-0.4-0.8-0.6-0.5-0.2-1.1-0.2-0.6 0-1.1 0.2-0.5 0.2-0.8 0.5-0.4 0.4-0.6 0.9-0.2 0.5-0.2 1.1z" />
    <path class="a"
        d="m433.2 96.3h2.2v2q0.1-0.4 0.4-0.8 0.3-0.4 0.7-0.7 0.4-0.3 0.9-0.5 0.5-0.2 1-0.2 0.4 0 0.6 0 0.1 0 0.3 0v2.2q-0.2 0-0.5-0.1-0.2 0-0.5 0-0.6 0-1.1 0.2-0.5 0.3-0.9 0.7-0.3 0.5-0.6 1.1-0.2 0.7-0.2 1.6v4.9h-2.3z" />
    <path class="a"
        d="m441.1 96.3h1.8v-3.1h2.2v3.1h2.1v1.7h-2.1v5.6q0 0.3 0.1 0.6 0 0.2 0.1 0.4 0.1 0.2 0.3 0.3 0.3 0.1 0.6 0.1 0.3 0 0.5 0 0.3 0 0.5-0.1v1.8q-0.4 0-0.7 0-0.4 0.1-0.8 0.1-0.9 0-1.4-0.2-0.6-0.2-0.9-0.5-0.3-0.3-0.4-0.8-0.1-0.5-0.1-1.2v-6.1h-1.8z" />
    <path class="b"
        d="m120 36c0 0-8.4-29.2-46.2-28.6-26.6 0.4-37.2 20.3-41.1 32.1-1.5 4.3-2.2 8.8-2.2 13.4v9c0 0-22.7 0.1-21.6 26.1 1.1 26 25.1 30 25.1 30l30.4-50.9 10.6-0.1-31.3 51h10.8l28.5-51h10l-28.6 51h8.6z" />
    <path class="c" d="m128 38l-45 80h45c0 0 35.8-1 35.4-40-0.4-39-35.4-40-35.4-40z" />
</svg>