<svg width="99" height="100" viewBox="0 0 99 100" fill="none" xmlns="http://www.w3.org/2000/svg">
<g id="microsoft-sql-server-logo-svgrepo-com 1" clip-path="url(#clip0_121_309)">
<g id="Group">
<path id="Vector" d="M67.1188 35.3187L56.1857 38.9248L46.674 43.1652L44.013 43.8749C43.3353 44.526 42.6247 45.1855 41.8562 45.8533C41.0132 46.5878 40.2282 47.2557 39.6248 47.7397C38.9555 48.274 37.9638 49.2757 37.4598 49.9099C36.7077 50.8615 36.1127 51.8715 35.8565 52.6479C35.402 54.0503 35.6252 55.4693 36.5012 56.78C37.625 58.4494 39.8646 60.1522 42.4759 61.3124C43.8065 61.9052 46.046 62.6648 47.7317 63.0904C50.5331 63.8084 55.9543 64.5847 58.9375 64.7016C59.5407 64.7266 60.3506 64.7266 60.3836 64.7016C60.4498 64.6597 60.9125 63.7667 61.4498 62.6565C63.2844 58.8751 64.6066 55.3274 65.3255 52.2974C65.7552 50.4611 66.0939 48.0152 66.317 45.1188C66.3749 44.3091 66.3996 41.5962 66.3501 40.6779C66.2756 39.1754 66.1434 37.9568 65.937 36.7631C65.9039 36.5878 65.8955 36.4291 65.9121 36.4208C65.9451 36.3958 66.0442 36.3624 67.3913 35.97L67.1187 35.319V35.3188H67.1188V35.3187ZM64.6232 36.7963C64.7223 36.7963 64.9867 39.3589 65.0528 40.9784C65.0694 41.3206 65.061 41.546 65.0445 41.546C64.9785 41.546 63.6479 40.7531 62.6977 40.1521C61.8713 39.6261 60.3012 38.5743 60.0533 38.374C59.9705 38.3156 59.9787 38.3073 60.6565 38.0735C61.8051 37.6811 64.5323 36.7963 64.6232 36.7963ZM59.0533 38.6495C59.1277 38.6495 59.3176 38.7579 59.7722 39.0417C61.4745 40.1185 63.7885 41.4208 64.7801 41.8549C65.0858 41.9884 65.1188 41.9383 64.4165 42.4225C62.9125 43.4576 61.0365 44.4759 58.7391 45.5026C58.3342 45.6863 57.9955 45.8281 57.9872 45.8281C57.9708 45.8281 58.0202 45.6196 58.0862 45.3691C58.6399 43.2905 58.954 41.187 58.9706 39.5008C58.9789 38.666 58.9789 38.666 59.0533 38.6411C59.0367 38.6495 59.0449 38.6495 59.0533 38.6495ZM57.9046 39.0918C57.9541 39.1418 57.9211 41.0117 57.855 41.5209C57.7062 42.7396 57.4748 43.8748 57.0948 45.1521C57.0039 45.4607 56.9211 45.7197 56.9048 45.7363C56.8715 45.778 55.7394 44.6595 55.3675 44.2254C54.7229 43.4741 54.2189 42.7228 53.847 41.9883C53.657 41.6127 53.3595 40.8782 53.3843 40.8531C53.5165 40.7613 57.8716 39.0585 57.9046 39.0918ZM52.5 41.2371C52.5082 41.2371 52.5164 41.2371 52.5248 41.2454C52.5413 41.2621 52.5992 41.3957 52.6488 41.5459C52.9132 42.2721 53.5081 43.3406 54.0206 44.0251C54.5825 44.7764 55.3181 45.5777 55.9294 46.1035C56.1279 46.2705 56.3096 46.429 56.3343 46.4541C56.384 46.5043 56.4005 46.4958 55.0534 47.0134C53.4917 47.6144 51.7893 48.2154 49.8389 48.8498C49.3731 49.0015 48.9076 49.1545 48.4426 49.3089C48.3681 49.334 48.3929 49.2922 48.6078 48.95C49.5746 47.4224 51.0455 44.4258 51.872 42.3055C52.0125 41.9382 52.1529 41.571 52.1778 41.4875C52.2108 41.3706 52.2521 41.3289 52.3595 41.2704C52.4173 41.2538 52.4752 41.2371 52.5 41.2371ZM50.8473 41.9299C50.8721 41.9467 50.4506 42.8397 50.0374 43.6578C49.2358 45.2354 48.3598 46.7881 47.1864 48.6746C46.9881 49.0001 46.798 49.3007 46.7732 49.334C46.7319 49.3925 46.7153 49.3757 46.5831 49.117C46.3022 48.5577 46.0707 47.8398 45.9468 47.1803C45.8228 46.5292 45.8476 45.394 45.9881 44.6929C46.0955 44.1754 46.0873 44.1838 46.3352 44.0585C47.393 43.5159 50.8143 41.8965 50.8473 41.9299ZM65.1024 42.5143V42.8648C65.1024 44.7263 64.9041 47.2806 64.6148 49.1421C64.5652 49.4676 64.5237 49.7346 64.5156 49.7431C64.5156 49.7431 64.276 49.6764 63.995 49.5928C62.7555 49.2004 61.4085 48.6245 60.1936 47.9485C59.3919 47.506 58.2268 46.7797 58.2599 46.7463C58.268 46.738 58.6152 46.5544 59.0201 46.3373C60.64 45.4859 62.1935 44.5677 63.5405 43.6579C64.0446 43.3156 64.8048 42.7648 64.9702 42.6144L65.1024 42.5143ZM44.608 44.9849C44.641 44.9849 44.6328 45.0517 44.5832 45.3522C44.5501 45.5693 44.5088 45.97 44.4924 46.2454C44.4261 47.4641 44.6246 48.3657 45.2196 49.601C45.3849 49.9433 45.5172 50.2271 45.5088 50.2354C45.4509 50.2855 39.9803 51.905 38.2613 52.3807C37.749 52.5226 37.3028 52.6478 37.2696 52.6561C37.2119 52.6729 37.2036 52.6646 37.2283 52.5225C37.4184 51.2956 38.344 49.6928 39.6331 48.3405C40.4926 47.4391 41.1785 46.9132 42.352 46.237C43.1949 45.7529 44.4923 45.0268 44.5915 44.9933C44.5915 44.9849 44.5998 44.9849 44.608 44.9849ZM57.4997 47.3139C57.5079 47.3056 57.7062 47.4141 57.9458 47.556C59.7144 48.5911 62.177 49.5511 64.2759 50.0435L64.4661 50.0853L64.2015 50.2354C63.1025 50.8532 59.4912 52.3723 55.7973 53.7664C55.2601 53.9666 54.7313 54.1671 54.6319 54.2088C54.5328 54.2505 54.4419 54.2756 54.4419 54.2672C54.4419 54.2588 54.5907 53.9666 54.7806 53.6078C55.8136 51.6545 56.855 49.2755 57.3838 47.6227C57.4501 47.4641 57.4913 47.3223 57.4997 47.3139ZM56.1857 47.748C56.1941 47.7565 56.1279 47.9316 56.0452 48.132C55.3263 49.8932 54.3841 51.8132 53.1776 53.9668C52.8719 54.5178 52.6157 54.9602 52.6073 54.9602C52.5992 54.9602 52.3512 54.8099 52.0537 54.6263C50.3017 53.5411 48.7481 52.2055 47.7318 50.9117L47.583 50.728L48.3349 50.5193C51.029 49.7765 53.318 48.9751 55.5906 47.9902C55.913 47.8566 56.1775 47.748 56.1857 47.748ZM64.3504 50.6278C64.3587 50.8198 63.9372 52.5394 63.5901 53.783C63.3009 54.8265 63.0528 55.6446 62.5984 57.0886C62.4001 57.7231 62.2267 58.2488 62.2183 58.2488C62.2101 58.2488 62.1605 58.2405 62.1109 58.2239C59.6566 57.773 57.4584 57.147 55.3924 56.3124C54.8138 56.0786 53.9875 55.7029 53.9379 55.6612C53.9215 55.6444 54.4173 55.4108 55.0453 55.1353C58.8054 53.4742 62.7059 51.5876 64.0446 50.7781C64.2016 50.6779 64.3256 50.6278 64.3504 50.6278ZM45.5006 51.279C45.5171 51.2956 44.4676 52.8232 42.9965 54.9017C42.4842 55.6279 41.8892 56.4793 41.6661 56.7965C41.443 57.1137 41.1042 57.6146 40.9141 57.9151L40.5669 58.4577L40.195 58.1405C39.757 57.7731 38.9968 56.9885 38.658 56.5544C37.9472 55.6614 37.468 54.7181 37.278 53.8584C37.187 53.4577 37.187 53.2572 37.2696 53.2323C37.3935 53.1989 39.6 52.673 41.6661 52.1888C42.8148 51.9218 44.1451 51.6046 44.6245 51.4877C45.1038 51.3707 45.4923 51.279 45.5006 51.279ZM46.5583 51.688L46.8226 51.9885C48.0128 53.3324 49.2275 54.3259 50.6985 55.1938C50.963 55.3442 51.1613 55.4776 51.1447 55.4861C51.087 55.5278 46.0376 57.339 43.699 58.1571C42.3851 58.6245 41.3024 59.0001 41.2943 59.0001C41.2861 59.0001 41.2116 58.9501 41.1289 58.8917L40.9802 58.7831L41.2198 58.4326C41.9966 57.2973 42.9719 56.0536 45.0957 53.466L46.5583 51.688ZM53.1529 56.4542C53.1611 56.446 53.5247 56.5794 53.9709 56.7466C55.0453 57.1555 55.8964 57.4142 57.0369 57.7064C58.4418 58.0654 60.4746 58.416 61.673 58.5161C61.8548 58.5327 61.9539 58.5495 61.9209 58.5746C61.8629 58.608 60.6483 59.017 59.7557 59.3008C58.3342 59.7515 53.9958 61.0453 50.4589 62.0721C49.806 62.2641 49.244 62.4227 49.211 62.431C49.1285 62.4478 48.8556 62.3725 48.8556 62.3391C48.8556 62.3225 49.054 62.0638 49.2937 61.7799C50.4836 60.3442 51.6654 58.7415 52.6488 57.2223C52.9214 56.8048 53.1529 56.4626 53.1529 56.4542ZM51.6984 56.4961C51.7066 56.5044 51.1199 57.4559 50.0953 59.092C49.6572 59.7848 49.1697 60.5695 48.9961 60.845C48.8308 61.1121 48.5829 61.5295 48.4425 61.7632L48.2028 62.1889L48.0789 62.1555C47.7813 62.072 45.6906 61.329 45.1369 61.1037C44.4509 60.8282 43.7402 60.4944 43.2113 60.2106C42.5503 59.8516 41.724 59.3173 41.79 59.3007C41.8065 59.2924 42.9387 58.9834 44.3021 58.6079C47.9218 57.6145 49.9298 57.0386 51.2439 56.6212C51.4836 56.5461 51.6901 56.4876 51.6984 56.4961ZM61.9869 58.9334H61.9951C62.0282 59.0169 60.6896 62.7732 60.2018 63.9585C60.0945 64.2256 60.0533 64.2925 59.9954 64.284C59.8549 64.2758 57.9129 64.0003 56.731 63.8249C54.6734 63.5078 51.2191 62.8983 50.3515 62.6981L50.1531 62.6564L51.3843 62.3724C54.0288 61.7714 55.3014 61.4459 56.5905 61.0452C58.2186 60.5444 59.8301 59.9183 61.458 59.1504C61.7142 59.0335 61.9291 58.9417 61.9869 58.9334Z" fill="url(#paint0_linear_121_309)"/>
<path id="Vector_2" d="M55.8471 9.5755C55.6653 9.5506 52.7315 10.619 50.8392 11.3952C48.2856 12.4471 46.3024 13.4489 45.0792 14.3168C44.6248 14.6425 44.0545 15.2184 43.9637 15.4437C43.9307 15.5272 43.9141 15.6274 43.9141 15.7275L45.0215 16.7877L47.6576 17.6391L53.9299 18.7743L61.1029 20.0181L61.1773 19.3921C61.1525 19.3921 61.1359 19.3838 61.1114 19.3838L60.169 19.2334L59.9791 18.8912C59.0039 17.155 57.9296 15.0013 57.3016 13.5489C56.8141 12.422 56.3513 11.1199 56.095 10.185C55.9545 9.61734 55.9381 9.58397 55.8473 9.57565V9.57546H55.8471V9.5755ZM55.7147 10.0013H55.7232C55.7313 10.0096 55.7644 10.2435 55.7975 10.5188C55.9379 11.6876 56.1943 12.8143 56.5991 14.033C56.9048 14.9513 56.9048 14.9012 56.5495 14.7927C55.7066 14.559 51.9301 13.8995 49.1947 13.5156C48.7567 13.4571 48.3848 13.3987 48.3848 13.3904C48.3518 13.357 50.3598 12.2968 51.2441 11.8796C52.3762 11.3536 55.4834 10.043 55.7147 10.0013ZM47.7484 13.7409L48.0708 13.8493C49.8226 14.4504 54.2272 15.3019 56.6569 15.5022C56.9295 15.5272 57.161 15.5523 57.1691 15.5523C57.1774 15.5607 56.9461 15.6859 56.6485 15.8277C55.4752 16.4204 54.186 17.1466 53.2935 17.7059C53.0291 17.8728 52.7893 18.0064 52.7564 18.0064C52.7233 18.0064 52.5498 17.973 52.368 17.948L52.0375 17.8978L51.2112 17.0797C49.7567 15.6524 48.6163 14.5506 48.1782 14.1332L47.7484 13.7409ZM47.418 13.9996L48.5831 15.4688C49.2194 16.2785 49.864 17.0715 50.0046 17.2467C50.145 17.4221 50.2607 17.5641 50.2525 17.5724C50.2194 17.5974 48.5668 17.2718 47.6907 17.0715C46.7899 16.8628 46.4181 16.7626 45.8644 16.5874L45.4098 16.4371V16.3202C45.4181 15.7609 46.1206 14.9262 47.3105 14.0748L47.418 13.9996ZM57.318 16.003C57.3511 16.003 57.3923 16.0781 57.4915 16.3035C57.7725 16.9295 58.6486 18.6158 58.8633 18.9412C58.9296 19.0499 59.0451 19.0582 57.88 18.8662C55.0786 18.407 54.1778 18.2569 54.1778 18.2402C54.1778 18.2319 54.2604 18.1734 54.3678 18.1149C55.2356 17.6309 56.1115 17.0131 56.8884 16.3536C57.0784 16.195 57.252 16.0448 57.2849 16.0197C57.2932 16.003 57.3098 15.9947 57.318 16.003Z" fill="url(#paint1_linear_121_309)"/>
<path id="Vector_3" d="M44.0211 15.3269C44.0211 15.3269 43.8394 15.6192 44.0129 16.0533C44.1204 16.3203 44.4344 16.6458 44.7897 16.9797C44.7897 16.9797 48.4671 20.6024 48.9134 21.1201C50.9462 23.4906 51.8305 25.8279 51.9131 29.05C51.9627 31.1202 51.5742 32.9399 50.6074 35.0518C48.8885 38.8415 45.2606 43.0235 39.666 47.6647L40.4843 47.3892C41.0131 46.9884 41.7321 46.5629 43.4179 45.6279C47.3101 43.4742 51.69 41.4959 57.0615 39.4592C64.7963 36.5208 77.5146 33.0816 84.7536 31.9632L85.5057 31.8463L85.3899 31.6626C84.729 30.6275 84.2743 29.9849 83.7288 29.3004C82.1423 27.3137 80.2169 25.7027 77.8616 24.3671C74.6222 22.5391 70.4322 21.1117 65.127 20.0516C64.1271 19.8512 61.9289 19.4673 60.1439 19.1918C56.359 18.5993 53.9129 18.1902 51.2189 17.7227C50.2521 17.5557 48.8058 17.3054 47.8472 17.0967C47.3514 16.9881 46.4012 16.7628 45.6574 16.504C45.0624 16.2702 44.2029 16.0364 44.0211 15.3269ZM46.1533 17.4138C46.1615 17.4056 46.2936 17.4555 46.4673 17.514C46.7813 17.6224 47.1862 17.7476 47.6656 17.8813C48.0283 17.9821 48.392 18.0794 48.7564 18.1734C49.2523 18.2985 49.6654 18.4154 49.6736 18.4154C49.7316 18.4739 50.5663 21.1699 50.8472 22.205C50.9545 22.5975 51.0373 22.9313 51.029 22.9313C51.0205 22.9397 50.9298 22.7977 50.8224 22.6058C49.8555 20.8862 48.3267 19.1416 46.5582 17.7392C46.3269 17.5724 46.1533 17.4221 46.1533 17.4138ZM50.2191 18.5491C50.2604 18.5491 50.4423 18.5741 50.6653 18.6242C52.0701 18.9413 54.5907 19.4255 56.2021 19.701C56.4748 19.7427 56.6897 19.7929 56.6897 19.8095C56.6897 19.8262 56.5905 19.8846 56.4665 19.9514C56.1939 20.0933 55.0947 20.7526 54.7312 21.0031C53.8138 21.6208 52.9875 22.2886 52.3925 22.8896C52.1528 23.1317 51.9461 23.332 51.9461 23.332C51.9461 23.332 51.8967 23.1902 51.8552 23.0148C51.5579 21.8545 50.938 20.1349 50.3761 18.9246C50.2851 18.7327 50.2107 18.5573 50.2107 18.5407C50.2107 18.5574 50.2107 18.5491 50.2191 18.5491ZM57.3756 19.9264C57.4251 19.943 57.5078 20.2268 57.673 20.8528C57.9788 22.0633 58.1193 23.4155 58.0698 24.676C58.0531 25.0266 58.0367 25.3521 58.0201 25.3939L57.9953 25.4773L57.5656 25.3354C56.6814 25.0516 55.2435 24.6258 54.0123 24.2753C53.3097 24.0833 52.7397 23.908 52.7397 23.8913C52.7397 23.8412 53.7644 22.8062 54.2024 22.4139C55.0368 21.6709 57.3011 19.9013 57.3756 19.9264ZM57.9458 20.0097C57.9706 19.9848 61.367 20.5774 62.9124 20.8779C64.0611 21.1032 65.7304 21.4539 65.8295 21.4957C65.8791 21.5123 65.7055 21.6125 65.1518 21.8629C62.9702 22.8563 61.3504 23.7493 59.7391 24.8346C59.3176 25.1184 58.9622 25.3521 58.954 25.3521C58.9458 25.3521 58.9375 25.1101 58.9375 24.8179C58.9375 23.2319 58.6235 21.6292 58.0449 20.277C57.9871 20.1434 57.9375 20.0182 57.9458 20.0097ZM66.7302 21.7628C66.7551 21.7878 66.6476 22.464 66.5484 22.8646C66.2509 24.1084 65.4494 25.9532 64.4661 27.6894C64.2924 27.9983 64.1354 28.2487 64.1188 28.257C64.1024 28.2653 63.8793 28.1401 63.623 27.9898C62.6645 27.4222 61.5737 26.888 60.3836 26.3871C60.0532 26.2453 59.7638 26.1283 59.7556 26.1118C59.6976 26.0616 62.3586 24.2836 63.7635 23.4322C64.8792 22.7478 66.6971 21.7293 66.7302 21.7628ZM67.3582 21.8629C67.4327 21.8629 68.9367 22.2803 69.7216 22.514C71.6637 23.0984 73.8949 23.9247 75.3494 24.5925L75.9525 24.8681L75.5312 24.9681C71.9779 25.7945 68.9367 26.7462 66.003 27.9482C65.7633 28.0483 65.5484 28.1318 65.5321 28.1318C65.5155 28.1318 65.5981 27.9399 65.7055 27.7061C66.5898 25.8112 67.16 23.8329 67.3003 22.1467C67.3088 21.988 67.3334 21.8629 67.3582 21.8629ZM52.3842 25.3354C52.409 25.3103 53.5577 25.5859 54.1775 25.761C55.1195 26.0282 57.1193 26.7043 57.1193 26.7544C57.1193 26.7627 56.8963 26.9548 56.6319 27.1886C55.5493 28.0984 54.508 29.0582 53.2601 30.277C52.8882 30.636 52.5743 30.9282 52.5578 30.9282C52.5412 30.9282 52.5331 30.878 52.5412 30.8112C52.7312 29.4088 52.69 27.6059 52.4256 25.7778C52.4007 25.544 52.376 25.3438 52.3842 25.3354ZM76.523 25.3605C76.5393 25.3771 75.994 26.2453 75.6469 26.7377C75.1512 27.4555 74.4238 28.4073 72.7793 30.4941C71.9117 31.5959 70.9364 32.8397 70.6143 33.257C70.2836 33.6744 70.011 34.0249 70.0026 34.0249C69.9944 34.0249 69.8871 33.8747 69.7713 33.6911C68.8457 32.2887 67.7383 31.0617 66.4244 29.9598C66.1765 29.7511 65.9039 29.5257 65.813 29.4589C65.722 29.3922 65.6476 29.3254 65.6476 29.3171C65.6476 29.2921 67.0523 28.6826 68.1186 28.2486C69.9862 27.4806 72.5312 26.5625 74.4403 25.9698C75.4403 25.6526 76.5064 25.3438 76.523 25.3605ZM77.1592 25.5274C77.1922 25.5191 77.3906 25.6192 77.6303 25.761C79.6384 26.9213 81.6051 28.4155 83.1588 29.9515C83.5968 30.3856 84.6793 31.5208 84.6627 31.5292C84.6627 31.5292 84.2826 31.5625 83.8364 31.5959C80.3573 31.8631 75.9032 32.6059 71.6225 33.6493C71.3333 33.716 71.0771 33.7744 71.0605 33.7744C71.0442 33.7744 71.3663 33.4489 71.7714 33.0567C74.2835 30.6109 75.4323 29.0667 76.7874 26.312C76.9774 25.9031 77.1428 25.5525 77.1592 25.5274C77.151 25.5274 77.151 25.5274 77.1592 25.5274ZM58.7556 27.4307C58.8714 27.4556 59.9457 27.965 60.7555 28.3739C61.4992 28.7494 62.6149 29.3505 62.6727 29.4005C62.681 29.4088 62.2842 29.6175 61.7969 29.8596C60.2431 30.6443 58.9127 31.3871 57.5243 32.2386C57.1277 32.4807 56.7971 32.6811 56.7889 32.6811C56.7558 32.6811 56.764 32.6476 56.9872 32.2386C57.731 30.8697 58.3259 29.2336 58.6648 27.6392C58.6977 27.5141 58.7309 27.4307 58.7556 27.4307ZM57.6813 27.6309C57.7061 27.656 57.4251 28.6827 57.2517 29.242C56.9127 30.3021 56.3426 31.6293 55.789 32.631C55.6566 32.8646 55.4583 33.2069 55.3509 33.3988L55.1443 33.7327L54.6816 33.2821C54.1445 32.7561 53.7064 32.4306 53.1446 32.1384C52.9213 32.0216 52.7478 31.9214 52.7478 31.9048C52.7478 31.838 54.1609 30.5442 55.2435 29.6092C56.0202 28.9331 57.6565 27.6059 57.6813 27.6309ZM64.2512 30.3605L64.6562 30.6276C65.5815 31.237 66.6723 32.0466 67.5071 32.7561C67.978 33.1484 68.887 33.9749 69.069 34.1752L69.168 34.2838L68.4988 34.4758C64.7139 35.5358 61.7885 36.479 58.3755 37.7479C57.9953 37.8898 57.673 38.0066 57.6482 38.0066C57.5988 38.0066 57.5573 38.0483 58.4086 37.2553C60.5903 35.2271 62.5239 32.9898 63.9619 30.8112L64.2512 30.3605ZM62.524 30.7946C62.5405 30.8112 61.4083 32.4222 60.7306 33.3321C59.9208 34.4173 58.4829 36.237 57.4912 37.4222C57.0781 37.9148 56.7228 38.3238 56.7062 38.3322C56.6814 38.3405 56.6731 38.2153 56.6731 38.0233C56.6731 37.0132 56.417 35.9364 55.9707 35.0182C55.7806 34.6343 55.7475 34.5424 55.789 34.5007C55.946 34.3588 58.3507 32.9731 59.8712 32.1468C60.896 31.5959 62.499 30.7779 62.524 30.7946ZM52.0784 33.3823C52.1032 33.3823 52.2933 33.4823 52.5082 33.5993C53.0371 33.8914 53.5081 34.2169 53.9295 34.5676C53.946 34.5842 53.7312 34.7596 53.4503 34.9682C52.6652 35.5358 51.4752 36.4457 50.7811 37.005C50.0537 37.5893 50.0291 37.606 50.1117 37.4808C50.6571 36.6377 50.9297 36.1619 51.2191 35.5526C51.4752 35.0101 51.7313 34.3673 51.9131 33.808C51.9792 33.5659 52.0619 33.3823 52.0784 33.3823ZM54.8634 35.5859C54.9046 35.5777 54.9543 35.6527 55.1773 35.9866C55.6484 36.696 56.012 37.6478 56.1031 38.4157L56.1194 38.5827L54.9874 39.0251C52.9626 39.8181 51.0951 40.6028 49.8306 41.187C49.4753 41.354 48.8555 41.6544 48.4507 41.8549C48.0457 42.0635 47.7151 42.2221 47.7151 42.2138C47.7151 42.2055 47.9713 42.0135 48.2853 41.7796C50.7563 39.9684 52.8966 37.9816 54.4997 35.995C54.6733 35.7863 54.8304 35.5943 54.8468 35.5859L54.8634 35.5859ZM53.5825 35.9032C53.6156 35.9365 52.6735 37.0133 52.029 37.6727C50.434 39.3172 48.8556 40.6028 46.897 41.8549C46.6491 42.0135 46.426 42.1553 46.4012 42.1721C46.3433 42.2055 46.4177 42.1219 47.2771 41.1787C47.8226 40.586 48.2357 40.0852 48.7068 39.4675C49.0208 39.0586 49.0787 39.0001 49.5333 38.6744C50.7481 37.7896 53.5494 35.8697 53.5825 35.9032Z" fill="url(#paint2_radial_121_309)"/>
</g>
<path id="Vector_4" d="M17.7979 70.4668C17.6455 70.4668 17.493 70.4815 17.3419 70.4815C14.2628 70.6472 12.1861 72.016 10.9719 74.689C9.9334 77.1065 10.0468 80.2664 10.9835 82.6987C12.0729 85.0753 13.8331 86.3296 16.7711 86.8034C17.3928 86.9062 17.8096 87.2509 19.0136 88.6709L20.495 90.4241H23.1819L21.3953 88.6048C20.4077 87.6073 19.6089 86.7388 19.6089 86.6625C19.6089 86.5862 19.9867 86.419 20.444 86.2782C21.9516 85.8174 23.2035 84.641 24.0792 82.838C24.788 81.3901 24.8897 80.9425 24.9913 79.1412C25.2572 73.7792 22.4584 70.427 17.7978 70.4653L17.7979 70.4668ZM20.1536 84.4886C18.8465 85.1281 16.9485 85.2558 15.7095 84.7966C14.4285 84.3214 13.1882 82.9776 12.6304 81.4563C12.0103 79.7927 12.0988 76.7238 12.8076 75.3417C13.9477 73.1412 15.4553 72.129 17.6585 72.129C20.9263 72.129 22.7852 74.1506 23.0278 77.9501C23.2196 81.1219 22.168 83.5013 20.155 84.4873L20.1536 84.4886ZM66.5678 75.0469C65.4407 75.0469 64.5781 75.5076 63.997 76.4155L63.541 77.1344V75.2654H61.5905V86.4734H63.5397V82.891C63.5397 79.6151 63.5802 79.2322 64.0334 78.3358C64.658 77.1065 65.7325 76.4934 66.7712 76.7868L67.4682 76.9922V75.0498H66.5678V75.0469ZM55.1088 74.9441C54.7267 74.9441 54.3214 74.9955 53.9179 75.0851C51.3079 75.7744 49.8367 78.2977 49.9267 80.8944C49.9267 83.0686 50.3449 84.1555 51.3835 85.2955C53.5113 87.0588 55.4355 87.1995 58.0323 86.2534C58.4753 86.0627 58.9575 85.8427 58.9575 85.8427V84.0794L58.0323 84.5635C55.9307 85.4877 54.3477 85.4877 53.0797 84.3991C52.2709 83.5673 51.9149 82.5697 51.7509 81.4314H59.6153V79.9202C59.6153 76.8395 57.7796 74.8942 55.1072 74.9441H55.1088ZM51.9281 79.8587C51.9281 79.8587 52.2186 77.9369 53.2962 77.1828C53.8148 76.8131 54.4102 76.6342 54.9925 76.6342C55.5764 76.6342 56.1588 76.8248 56.6395 77.1961C57.6272 77.9633 57.7927 79.8441 57.7927 79.8441H51.9281V79.8587H51.9281ZM4.90538 77.8372C2.79083 76.5432 1.8526 75.6101 1.96733 74.5099C2.2955 71.4658 6.01941 71.8869 8.08165 73.0385L8.09632 70.9906C8.09632 70.9906 6.95617 70.4919 5.32222 70.4654C2.81548 70.4273 1.19466 71.2575 0.435179 72.9475C-0.680328 75.4415 0.307394 77.3221 3.87734 79.4201C5.88152 80.598 6.76737 81.6206 6.76737 82.7355C6.76737 85.0387 4.01812 85.8427 1.18173 84.3976C0.597992 84.1042 0.10413 83.8592 0.0780108 83.8592C-0.0237216 84.5121 0.0287185 86.0744 0.0287185 86.0744C0.0287185 86.0744 0.900175 86.4442 2.20716 86.6992C5.44867 87.352 8.39851 85.8161 8.67731 83.3222C8.91989 80.9809 8.08172 79.7529 4.90551 77.8355L4.90538 77.8372ZM83.8303 74.9178C83.4498 74.9178 83.046 74.9705 82.6248 75.0601C80.0179 75.7495 78.5495 78.2729 78.6497 80.8695C78.6497 83.0408 79.0666 84.1175 80.1049 85.2558C82.2327 87.0207 84.1571 87.1629 86.767 86.2154C87.2085 86.0247 87.6892 85.8077 87.6892 85.8077V84.0414L86.7656 84.5283C84.6597 85.4496 83.0765 85.4496 81.8131 84.3612C80.9997 83.5308 80.6468 82.545 80.4827 81.3933H88.3341V79.8823C88.3341 76.8163 86.4982 74.8695 83.8259 74.9209L83.8303 74.9178ZM80.6496 79.8323C80.6496 79.8323 80.943 77.9134 82.0192 77.1446C82.5363 76.7735 83.1317 76.5945 83.7141 76.5945C84.295 76.5945 84.8803 76.7852 85.3612 77.1578C86.3488 77.9251 86.5144 79.819 86.5144 79.819H80.6512L80.6496 79.8323ZM44.8987 77.8621C42.7841 76.5711 41.8487 75.6351 41.962 74.5347C42.2902 71.4892 46.0142 71.9118 48.0764 73.0634L48.091 71.0155C48.091 71.0155 46.9509 70.5167 45.3169 70.4931C42.8102 70.4551 41.1894 71.2854 40.4285 72.9754C39.3145 75.4692 40.3152 77.35 43.8734 79.4479C45.8748 80.6245 46.7607 81.6338 46.7607 82.7486C46.7607 85.0519 44.0128 85.8691 41.1764 84.4107C40.5955 84.1173 40.1017 83.8752 40.0727 83.8752C39.9709 84.528 40.0234 86.0905 40.0234 86.0905C40.0234 86.0905 40.8845 86.447 42.1873 86.7154C45.4318 87.3697 48.383 85.8351 48.6604 83.3412C48.9015 81.0115 48.065 79.7837 44.8988 77.8648V77.8621H44.8987ZM95.2908 75.0205C94.1638 75.0205 93.291 75.4825 92.7202 76.3907L92.264 77.1065V75.2405H90.3135V86.4456H92.2626V82.8632C92.2626 79.5888 92.3017 79.2044 92.7565 78.3095C93.381 77.0817 94.4556 76.4671 95.4941 76.7618L96.1911 76.9672V75.0205L95.2908 75.0205ZM29.3877 77.7975V70.6589H27.4213V86.4705H35.691V84.6031H29.3877V77.7975H29.3877ZM74.8635 80.0229L73.2427 84.2831L71.6842 79.9994L70.1012 75.2522H68.0883C69.3926 78.9873 70.8113 82.7868 72.242 86.4705C72.8622 86.4851 73.4838 86.4705 74.1038 86.4705L76.2926 80.9193L78.522 75.2537H76.5977C76.5977 75.2537 75.7479 77.5041 74.8621 80.0244L74.8635 80.0229ZM33.9189 66.3503C34.2356 66.3503 34.4999 66.2477 34.7177 66.0276C34.9326 65.8104 35.0459 65.5552 35.0459 65.2354C35.0459 64.9156 34.9326 64.6485 34.7177 64.4432C34.4999 64.2378 34.2486 64.135 33.9334 64.135C33.614 64.135 33.3496 64.2378 33.1346 64.4549C32.9168 64.6721 32.818 64.9391 32.818 65.2472C32.818 65.5699 32.9198 65.8368 33.1346 66.0394C33.338 66.2447 33.6024 66.3474 33.9189 66.3474V66.3503ZM33.2219 64.5312C33.4106 64.3406 33.6401 64.2525 33.9335 64.2525C34.2095 64.2525 34.439 64.3406 34.6307 64.5312C34.8195 64.7219 34.9212 64.9537 34.9212 65.2354C34.9212 65.517 34.8195 65.7606 34.6307 65.9513C34.4391 66.1418 34.2095 66.2329 33.9335 66.2329C33.6532 66.2329 33.4252 66.1449 33.2364 65.9513C33.0476 65.7606 32.946 65.517 32.946 65.2354C32.946 64.9537 33.0331 64.722 33.2219 64.5312ZM33.6909 65.3382H33.8187C33.9088 65.3382 33.9974 65.4261 34.0729 65.5934L34.2255 65.9395H34.465L34.2763 65.555C34.1994 65.4011 34.1239 65.3116 34.0352 65.2865C34.1471 65.2602 34.2356 65.2221 34.2996 65.1457C34.3633 65.0798 34.3866 64.9902 34.3866 64.889C34.3866 64.7717 34.3503 64.6837 34.2734 64.6191C34.1862 64.5458 34.0468 64.5062 33.8666 64.5062H33.4631V65.9395H33.6663V65.338L33.6909 65.3382ZM33.6909 64.6721H33.8682C33.996 64.6721 34.086 64.6985 34.1354 64.7366C34.1834 64.7747 34.1964 64.8247 34.1964 64.9156C34.1964 65.0813 34.0946 65.1592 33.906 65.1592H33.6882V64.6721H33.6909ZM1.20765 65.2104C1.20765 64.7117 1.19318 64.3406 1.18153 64.122H1.19318C1.24395 64.38 1.30644 64.5723 1.35727 64.6999L3.24525 68.9601H3.56189L5.44987 64.6618C5.50084 64.5446 5.55167 64.3684 5.61409 64.1234H5.62856C5.59085 64.5489 5.57779 64.9185 5.57779 65.2134V68.9734H6.22395V63.384H5.41357L3.67809 67.2716C3.61413 67.4256 3.52553 67.656 3.41228 67.9611H3.38602C3.34832 67.81 3.25971 67.5797 3.1334 67.298L1.43697 63.3707H0.575823V68.96H1.1974V65.2132L1.20765 65.2104ZM7.6401 65.2209H8.19792V68.702H7.6401V65.2209ZM7.91898 63.9444C8.03524 63.9444 8.13396 63.9047 8.20944 63.8271C8.28646 63.7508 8.33736 63.651 8.33736 63.5337C8.33736 63.4193 8.29952 63.3165 8.21098 63.2403C8.13255 63.1625 8.0323 63.1228 7.91757 63.1228C7.80439 63.1228 7.70272 63.1625 7.62704 63.2403C7.55029 63.3165 7.49932 63.4193 7.49932 63.5337C7.49932 63.6614 7.53857 63.7508 7.62704 63.8271C7.71437 63.9047 7.80432 63.9444 7.91757 63.9444H7.91898ZM12.1745 68.7784V68.165C11.8694 68.3954 11.5412 68.5099 11.2013 68.5099C10.7948 68.5099 10.465 68.3691 10.2239 68.0993C9.9843 67.8323 9.85651 67.4609 9.85651 66.9989C9.85651 66.5148 9.9843 66.1303 10.2486 65.8369C10.5027 65.5553 10.8325 65.4144 11.2363 65.4144C11.5659 65.4144 11.8824 65.5172 12.1745 65.7227V65.0699C11.9088 64.929 11.6053 64.8644 11.2624 64.8644C10.6291 64.8644 10.1355 65.0699 9.76657 65.4661C9.40049 65.8621 9.21169 66.4005 9.21169 67.0504C9.21169 67.6284 9.37578 68.114 9.71721 68.4852C10.073 68.8666 10.5277 69.0603 11.0853 69.0603C11.5165 69.0482 11.8694 68.9572 12.1745 68.7784ZM13.7705 66.9225C13.7705 66.4633 13.8722 66.0923 14.061 65.8368C14.2382 65.6066 14.4531 65.4907 14.7073 65.4907C14.9222 65.4907 15.0747 65.5303 15.1865 65.6198V64.9537C15.0994 64.9156 14.973 64.9024 14.8089 64.9024C14.5809 64.9024 14.3777 64.98 14.199 65.1225C14.0102 65.2734 13.8592 65.5039 13.7706 65.7973H13.7561V64.9801H13.1243V68.9704H13.7575V66.9225H13.7705ZM17.4057 69.0496C18.0013 69.0496 18.4805 68.856 18.8363 68.4717C19.1906 68.0901 19.3678 67.5768 19.3678 66.937C19.3678 66.2844 19.2053 65.7855 18.8741 65.4142C18.5459 65.0433 18.0897 64.8641 17.4942 64.8641C16.8987 64.8641 16.4194 65.0431 16.0637 65.3893C15.6832 65.7709 15.4827 66.3093 15.4827 67.0003C15.4827 67.6017 15.6454 68.1006 15.9883 68.4717C16.3425 68.856 16.8117 69.0481 17.4057 69.0481V69.0496ZM16.5053 65.7987C16.7464 65.542 17.0631 65.4143 17.4551 65.4143C17.8619 65.4143 18.1668 65.542 18.3934 65.7987C18.6214 66.0672 18.7348 66.4502 18.7348 66.9621C18.7348 67.449 18.633 67.832 18.418 68.0887C18.2032 68.3572 17.8865 68.4994 17.4682 68.4994C17.0616 68.4994 16.7464 68.3571 16.5053 68.0887C16.2657 67.8188 16.1509 67.449 16.1509 66.9621C16.1263 66.478 16.2527 66.082 16.5053 65.7987ZM22.1405 68.702C22.3815 68.485 22.5094 68.2179 22.5094 67.8833C22.5094 67.5899 22.4076 67.3464 22.2189 67.1542C22.0649 67.0003 21.8269 66.8608 21.4826 66.72C21.1775 66.591 20.9888 66.4764 20.887 66.3869C20.7854 66.2843 20.7229 66.1568 20.7229 65.9762C20.7229 65.8105 20.7869 65.6828 20.9119 65.5801C21.0396 65.4776 21.2023 65.4277 21.4202 65.4277C21.7615 65.4277 22.0534 65.5186 22.3205 65.7108V65.0712C22.0649 64.9422 21.7875 64.8806 21.4709 64.8806C21.0643 64.8806 20.7215 64.9936 20.4687 65.212C20.2029 65.4293 20.0766 65.7109 20.0766 66.0423C20.0766 66.3357 20.1637 66.5793 20.3292 66.7582C20.4686 66.9108 20.707 67.0664 21.038 67.2056C21.3547 67.3466 21.5696 67.4741 21.6843 67.5767C21.7975 67.6795 21.8484 67.807 21.8484 67.9583C21.8484 68.3308 21.5957 68.5231 21.1019 68.5231C20.7213 68.5231 20.3802 68.3969 20.075 68.1417V68.831C20.351 68.9984 20.6821 69.0746 21.0481 69.0746C21.5172 69.0497 21.8846 68.9338 22.1373 68.7035L22.1405 68.702ZM25.1556 64.8642C24.56 64.8642 24.0808 65.0433 23.7249 65.3894C23.3473 65.7711 23.144 66.3094 23.144 67.0004C23.144 67.6019 23.3082 68.1007 23.6495 68.4718C24.0053 68.8561 24.4729 69.0483 25.0684 69.0483C25.6784 69.0483 26.1432 68.8547 26.499 68.4702C26.8548 68.0889 27.0319 67.5754 27.0319 66.9357C27.0319 66.2829 26.8664 65.7842 26.5381 65.413C26.1955 65.0418 25.7393 64.8628 25.1584 64.8628L25.1556 64.8642ZM26.3842 66.9622C26.3842 67.4491 26.2825 67.8321 26.0676 68.0888C25.8526 68.3573 25.536 68.4995 25.1177 68.4995C24.7109 68.4995 24.3958 68.3572 24.1546 68.0888C23.9151 67.8189 23.8004 67.4491 23.8004 66.9622C23.8004 66.4487 23.9268 66.0527 24.181 65.7855C24.4205 65.5303 24.7372 65.4011 25.1308 65.4011C25.5228 65.4011 25.8381 65.5302 26.066 65.7855C26.2694 66.0672 26.3827 66.4501 26.3827 66.9622H26.3842ZM28.0952 68.9587H28.7269V65.504H29.652V64.967H28.7268V64.3508C28.7268 63.7905 28.9417 63.5088 29.3862 63.5088C29.5358 63.5088 29.6883 63.5469 29.8016 63.6115V63.0351C29.6883 62.9837 29.5358 62.972 29.3454 62.972C29.0042 62.972 28.7254 63.0748 28.4973 63.2918C28.2314 63.5471 28.0907 63.8786 28.0907 64.3277V64.982H27.4224V65.5189H28.0907V68.9606L28.0952 68.9587ZM30.6904 67.8702C30.6904 68.6507 31.0318 69.0482 31.7289 69.0482C31.9816 69.0482 32.1718 69.0072 32.3243 68.9162V68.3676C32.2082 68.4557 32.0702 68.4968 31.9177 68.4968C31.7029 68.4968 31.5518 68.4452 31.4631 68.3294C31.373 68.2151 31.3223 68.0213 31.3223 67.7543V65.5025H32.3242V64.9655H31.3223V63.7891C31.1044 63.8653 30.891 63.9299 30.689 63.9943V64.9654H30.0064V65.5024H30.689V67.8687L30.6904 67.8702ZM98.6602 75.2257C98.4453 75.0205 98.1911 74.9177 97.876 74.9177C97.5566 74.9177 97.2921 75.0205 97.0772 75.2405C96.8623 75.4561 96.7605 75.7245 96.7605 76.0327C96.7605 76.3526 96.8623 76.6196 97.0756 76.8248C97.2906 77.0302 97.5548 77.133 97.8744 77.133C98.1895 77.133 98.4554 77.0302 98.6733 76.8131C98.8868 76.5931 99.0001 76.3393 99.0001 76.021C98.9884 75.6983 98.8737 75.4312 98.6588 75.2259L98.6602 75.2257ZM98.5586 76.7369C98.3698 76.9275 98.1403 77.0155 97.8614 77.0155C97.5856 77.0155 97.3561 76.9275 97.1644 76.7369C96.9756 76.5432 96.8738 76.3012 96.8738 76.018C96.8738 75.7392 96.961 75.5076 97.1527 75.3139C97.3415 75.1233 97.5696 75.0351 97.8614 75.0351C98.1374 75.0351 98.367 75.1233 98.5586 75.3139C98.7474 75.5076 98.849 75.7392 98.849 76.018C98.849 76.3144 98.7619 76.5432 98.5586 76.7369ZM97.9892 76.084C98.1025 76.0576 98.1926 76.0063 98.255 75.9432C98.319 75.8771 98.3423 75.7876 98.3423 75.6851C98.3423 75.5707 98.3059 75.4797 98.229 75.4166C98.1419 75.3432 98.0011 75.3036 97.8225 75.3036H97.4187V76.7353H97.6221V76.1339H97.7484C97.8356 76.1339 97.9228 76.2218 98.0011 76.3891L98.152 76.7338H98.3933L98.2045 76.3494C98.1391 76.1822 98.0636 76.1058 97.9867 76.0808L97.9892 76.084ZM97.8498 75.955H97.632V75.471H97.8107C97.937 75.471 98.0256 75.4943 98.0765 75.534C98.1273 75.5721 98.1389 75.622 98.1389 75.713C98.1389 75.8787 98.0372 75.9551 97.8485 75.9551L97.8498 75.955ZM62.5157 64.8012H62.693V63.3679H63.1619V63.1889H62.0467V63.3679H62.5159V64.8012H62.5157ZM63.5905 63.7244C63.5905 63.5849 63.5905 63.4706 63.5803 63.4062C63.5919 63.4823 63.6181 63.5338 63.6297 63.5719L64.1744 64.8012H64.2615L64.8075 63.5601C64.8222 63.522 64.8338 63.472 64.8584 63.4062C64.8467 63.5338 64.8467 63.6362 64.8467 63.7142V64.7998H65.0356V63.1889H64.8075L64.3138 64.301C64.3022 64.3407 64.2628 64.4183 64.2382 64.5064H64.2237C64.2135 64.4549 64.1875 64.4036 64.1511 64.3158L63.6573 63.1891H63.4017V64.8028H63.5803V63.726L63.5905 63.7244Z" fill="#231F1F"/>
</g>
<defs>
<linearGradient id="paint0_linear_121_309" x1="43.8524" y1="59.2654" x2="47.8262" y2="56.9408" gradientUnits="userSpaceOnUse">
<stop stop-color="#909CA9"/>
<stop offset="1" stop-color="#EDEDEE"/>
</linearGradient>
<linearGradient id="paint1_linear_121_309" x1="43.9431" y1="14.7805" x2="47.1241" y2="14.7805" gradientUnits="userSpaceOnUse">
<stop stop-color="#939FAB"/>
<stop offset="1" stop-color="#DCDEE1"/>
</linearGradient>
<radialGradient id="paint2_radial_121_309" cx="0" cy="0" r="1" gradientUnits="userSpaceOnUse" gradientTransform="translate(59.9942 29.517) rotate(-171.372) scale(4.10213 8.28547)">
<stop stop-color="#EE352C"/>
<stop offset="1" stop-color="#A91D22"/>
</radialGradient>
<clipPath id="clip0_121_309">
<rect width="99" height="100" fill="white"/>
</clipPath>
</defs>
</svg>
