<svg width="145" height="41" viewBox="0 0 145 41" fill="none" xmlns="http://www.w3.org/2000/svg">
<g id="Frame" clip-path="url(#clip0_121_289)">
<g id="Group">
<path id="Vector" fill-rule="evenodd" clip-rule="evenodd" d="M134.73 16.9556C134.6 16.9816 134.47 17.2673 134.47 17.423C134.444 18.4616 134.418 21.2141 134.418 23.0836C134.418 23.1355 134.496 23.2393 134.574 23.2393C134.964 23.2653 135.899 23.2913 136.705 23.2913C137.822 23.2913 138.471 23.1355 138.835 22.9798C139.771 22.5124 140.212 21.4996 140.212 20.383C140.212 17.8644 138.445 16.9036 135.821 16.9036C135.639 16.8779 135.12 16.8779 134.73 16.9556ZM141.434 28.5624C141.434 25.9918 139.537 24.5635 136.107 24.5635C135.951 24.5635 134.86 24.5376 134.6 24.5895C134.522 24.6155 134.418 24.6675 134.418 24.7455C134.418 26.589 134.392 29.5232 134.47 30.6655C134.522 31.1589 134.886 31.8601 135.328 32.0678C135.795 32.3275 136.861 32.3792 137.588 32.3792C139.641 32.3792 141.434 31.2369 141.434 28.5624ZM129.429 15.5276C129.689 15.5276 130.468 15.6053 132.469 15.6053C134.366 15.6053 135.873 15.5536 137.718 15.5536C139.979 15.5536 143.097 16.3584 143.097 19.7339C143.097 21.3958 141.927 22.7201 140.394 23.3693C140.316 23.3952 140.316 23.447 140.394 23.473C142.577 24.0184 144.5 25.3687 144.5 27.9132C144.5 30.406 142.941 31.9898 140.68 32.9766C139.303 33.5738 137.588 33.7815 135.847 33.7815C134.522 33.7815 130.962 33.6257 128.987 33.6777C128.78 33.5998 129.169 32.6649 129.351 32.5092C129.819 32.4832 130.183 32.4572 130.676 32.3015C131.378 32.1198 131.456 31.912 131.56 30.8475C131.612 29.9386 131.612 26.7187 131.612 24.4338C131.612 21.2919 131.638 19.1627 131.612 18.1241C131.586 17.3193 131.3 17.0596 130.728 16.9036C130.287 16.8259 129.559 16.7219 128.961 16.6441C128.831 16.5142 129.273 15.6313 129.429 15.5276ZM114.436 31.6783C115.06 32.1715 116.281 32.3792 117.372 32.3792C118.776 32.3792 120.179 32.1198 121.53 30.8992C122.907 29.6529 123.868 27.7315 123.868 24.6675C123.868 21.7333 122.751 19.3444 120.465 17.9424C119.165 17.1373 117.502 16.7999 115.58 16.7999C115.008 16.7999 114.462 16.8259 114.125 16.9816C114.046 17.0336 113.865 17.2673 113.865 17.397C113.813 17.9164 113.813 21.915 113.813 24.2521C113.813 26.6669 113.813 30.0424 113.865 30.4318C113.865 30.8215 114.046 31.4186 114.436 31.6783ZM108.538 15.5276C109.032 15.5276 110.928 15.6053 111.838 15.6053C113.475 15.6053 114.644 15.5276 117.736 15.5276C120.335 15.5276 122.517 16.2287 124.076 17.5527C125.973 19.1887 126.961 21.4478 126.961 24.2001C126.961 28.1209 125.168 30.3801 123.375 31.6783C121.582 33.0026 119.243 33.7815 115.917 33.7815C114.151 33.7815 111.11 33.7295 108.59 33.7035H108.564C108.434 33.47 108.772 32.5612 108.98 32.5352C109.655 32.4572 109.837 32.4312 110.175 32.3015C110.72 32.0938 110.825 31.8081 110.903 30.8475C110.98 29.0558 110.954 26.9006 110.954 24.4598C110.954 22.7201 110.98 19.3184 110.928 18.2279C110.851 17.3193 110.461 17.0856 109.681 16.9296C109.291 16.8519 108.772 16.7479 108.044 16.6701C107.94 16.4882 108.408 15.6833 108.538 15.5276Z" fill="#8E714E"/>
<path id="Vector_2" fill-rule="evenodd" clip-rule="evenodd" d="M77.0976 32.6909C76.448 32.6129 75.9803 32.5091 75.4085 32.2494C75.3307 32.1974 75.2006 31.938 75.2006 31.834C75.1486 30.9252 75.1486 28.3286 75.1486 26.5889C75.1486 25.1866 74.915 23.9664 74.3172 23.1095C73.6155 22.1227 72.6022 21.5515 71.3031 21.5515C70.1597 21.5515 68.6266 22.3306 67.3534 23.4212C67.3274 23.4469 67.1196 23.6289 67.1456 23.3432C67.1456 23.0575 67.1976 22.4864 67.2236 22.0969C67.2496 21.7332 67.0418 21.5515 67.0418 21.5515C66.2101 21.9669 63.8716 22.5123 63.0141 22.5901C62.3905 22.7201 62.2347 23.3172 62.8843 23.5249H62.9103C63.6117 23.7326 64.0795 23.9664 64.4431 24.2001C64.703 24.4078 64.677 24.6935 64.677 24.9272C64.703 26.8746 64.703 29.8606 64.6252 31.4966C64.5992 32.1457 64.4174 32.3792 63.9496 32.4831L64.0014 32.4572C63.6377 32.5351 63.3518 32.6129 62.9101 32.6649C62.7542 32.8206 62.7542 33.6517 62.9101 33.8334C63.196 33.8334 64.703 33.7554 65.9504 33.7554C67.6654 33.7554 68.5488 33.8334 68.9906 33.8334C69.1724 33.6257 69.2244 32.8466 69.1204 32.6649C68.6266 32.6389 68.2629 32.5871 67.9252 32.4831C67.4575 32.3792 67.3274 32.1457 67.3014 31.6003C67.2496 30.224 67.2496 27.316 67.2496 25.3426C67.2496 24.7972 67.4055 24.5375 67.5613 24.3818C68.1589 23.8626 69.1204 23.4989 69.9778 23.4989C70.8093 23.4989 71.3551 23.7586 71.7708 24.0963C72.3424 24.5635 72.5242 25.2386 72.6022 25.732C72.7321 26.8486 72.6803 29.0557 72.6803 30.9772C72.6803 32.0157 72.6022 32.2754 72.2125 32.4052C72.0307 32.4831 71.5629 32.5871 71.0172 32.6389C70.8353 32.8206 70.8873 33.6257 71.0172 33.8074C71.7708 33.8074 72.6543 33.7294 73.9535 33.7294C75.5643 33.7294 76.6039 33.8074 77.0196 33.8074C77.1494 33.6517 77.2017 32.8986 77.0976 32.6909ZM84.2952 22.7721C82.918 22.7721 82.0605 23.8366 82.0605 25.4983C82.0605 27.1861 82.8139 29.1335 84.9448 29.1335C85.3085 29.1335 85.9841 28.9777 86.2958 28.6143C86.7896 28.1469 87.1275 27.212 87.1275 26.2255C87.1275 24.0703 86.0619 22.7721 84.2952 22.7721ZM84.1131 34.2488C83.5936 34.2488 83.2297 34.4046 82.996 34.5345C81.9045 35.2354 81.4109 35.9106 81.4109 36.7157C81.4109 37.4685 81.6966 38.0657 82.3204 38.5851C83.0738 39.2342 84.1131 39.5459 85.4383 39.5459C88.0888 39.5459 89.2581 38.1177 89.2581 36.7157C89.2581 35.7288 88.7644 35.0797 87.7511 34.7163C87.0234 34.4046 85.6982 34.2488 84.1131 34.2488ZM84.2952 40.9999C82.7101 40.9999 81.5668 40.6623 80.5795 39.9094C79.618 39.1823 79.2023 38.0917 79.2023 37.3388C79.2023 37.1311 79.2543 36.5597 79.722 36.0405C80.0077 35.7288 80.6313 35.1317 82.1126 34.1191C82.1643 34.0931 82.1904 34.0671 82.1904 34.0151C82.1904 33.9631 82.1383 33.9112 82.0865 33.8854C80.8652 33.418 80.5015 32.6649 80.3974 32.2494V32.1974C80.3716 32.0417 80.3196 31.886 80.5535 31.73C80.7353 31.6003 80.9952 31.4446 81.2809 31.2629C81.7226 31.0031 82.1904 30.7174 82.4763 30.4837C82.5283 30.4317 82.5283 30.38 82.5283 30.328C82.5283 30.276 82.4763 30.224 82.4242 30.1983C80.6055 29.6009 79.696 28.2506 79.696 26.2255C79.696 24.9012 80.2936 23.7066 81.3589 22.9538C82.0865 22.3824 83.9053 21.6815 85.1007 21.6815H85.1787C86.3998 21.7072 87.0755 21.9669 88.0367 22.3046C88.5565 22.4864 89.0503 22.5641 89.7259 22.5641C90.7392 22.5641 91.1809 22.2526 91.5446 21.8892C91.5706 21.9409 91.6226 22.0709 91.6486 22.4084C91.6747 22.7461 91.5706 23.2392 91.3107 23.6029C91.1029 23.8884 90.6354 24.0963 90.1676 24.0963H90.0375C89.5698 24.0443 89.3619 23.9923 89.3619 23.9923L89.2581 24.0443C89.2321 24.0963 89.2581 24.1481 89.2841 24.2261L89.3102 24.278C89.3619 24.5118 89.466 25.2126 89.466 25.3946C89.466 27.5237 88.6085 28.4583 87.699 29.1595C86.8156 29.8086 85.8023 30.224 84.6589 30.328C84.6329 30.328 84.5291 30.328 84.2952 30.354C84.1652 30.354 83.9833 30.38 83.9573 30.38H83.9313C83.7234 30.4317 83.2039 30.6915 83.2039 31.1329C83.2039 31.5223 83.4378 31.9897 84.5549 32.0677C84.7887 32.0937 85.0226 32.0937 85.2825 32.1197C86.7635 32.2234 88.6085 32.3534 89.466 32.6389C90.6611 33.0803 91.4148 34.1449 91.4148 35.4174C91.4148 37.3388 90.0375 39.1305 87.7511 40.2468C86.6337 40.7402 85.5164 40.9999 84.2952 40.9999ZM99.1061 22.9018C98.5603 22.9018 98.0666 23.0315 97.7029 23.2912C96.6896 23.9144 96.1698 25.1609 96.1698 26.9783C96.1698 30.38 97.8847 32.7688 100.327 32.7688C101.055 32.7688 101.626 32.5611 102.12 32.1457C102.874 31.5223 103.264 30.276 103.264 28.5363C103.264 25.1609 101.574 22.9018 99.1061 22.9018ZM99.5739 34.0151C95.1565 34.0151 93.5714 30.7694 93.5714 27.7315C93.5714 25.6023 94.4289 23.9664 96.1438 22.7978C97.3652 22.0449 98.8202 21.6295 100.119 21.6295C103.497 21.6295 105.862 24.0443 105.862 27.5237C105.862 29.8866 104.926 31.756 103.134 32.8986C102.276 33.4697 100.795 34.0151 99.5739 34.0151ZM53.2702 22.9018C52.7244 22.9018 52.2309 23.0315 51.8669 23.2912C50.8536 23.9144 50.3339 25.1609 50.3339 26.9783C50.3339 30.38 52.0488 32.7688 54.4913 32.7688C55.219 32.7688 55.7905 32.5611 56.2843 32.1457C57.0377 31.5223 57.4277 30.276 57.4277 28.5363C57.4277 25.1609 55.7645 22.9018 53.2702 22.9018ZM53.7379 34.0151C49.3206 34.0151 47.7355 30.7694 47.7355 27.7315C47.7355 25.6023 48.5929 23.9664 50.3079 22.7978C51.5293 22.0449 52.9843 21.6295 54.2835 21.6295C57.6615 21.6295 60.026 24.0443 60.026 27.5237C60.026 29.8866 59.0905 31.756 57.2976 32.8986C56.4661 33.4697 54.9851 34.0151 53.7379 34.0151ZM24.0381 33.7554C23.9861 33.6777 23.9341 33.444 23.9601 33.1583C23.9601 32.9506 24.0121 32.8206 24.0381 32.7688C24.5837 32.6909 24.8696 32.6129 25.1812 32.5351C25.701 32.4052 25.9089 32.1197 25.9349 31.4706C26.0129 29.9126 26.0129 26.9523 25.9869 24.9012V24.8492C25.9869 24.6155 25.9869 24.3298 25.701 24.1221C25.2853 23.8626 24.7915 23.6289 24.1419 23.4469C23.908 23.3692 23.7522 23.2392 23.7782 23.0835C23.7782 22.9278 23.9341 22.7461 24.272 22.6941C25.1294 22.6161 27.3639 22.0709 28.2474 21.6815C28.2994 21.7332 28.3774 21.8892 28.3774 22.0969L28.3514 22.3824C28.3254 22.6681 28.2994 23.0058 28.2994 23.3432C28.2994 23.4469 28.4034 23.5249 28.5072 23.5249C28.5593 23.5249 28.6113 23.4989 28.6633 23.4729C30.3262 22.1747 31.8333 21.7072 32.6127 21.7072C33.8861 21.7072 34.8734 22.3046 35.627 23.5509C35.6788 23.6289 35.7308 23.6547 35.8089 23.6547C35.8609 23.6547 35.9387 23.6289 35.9647 23.5769C37.4978 22.4084 39.0309 21.7072 40.0441 21.7072C42.4607 21.7072 43.8899 23.4989 43.8899 26.5369C43.8899 27.3938 43.8899 28.5103 43.8639 29.5231C43.8639 30.4317 43.8379 31.2629 43.8379 31.86C43.8379 31.9897 44.0198 32.4052 44.3057 32.4831C44.6694 32.6649 45.1631 32.7429 45.8127 32.8466H45.8387C45.8908 33.0283 45.7867 33.7034 45.6829 33.8334C45.5268 33.8334 45.2929 33.8334 45.0333 33.8074C44.5395 33.7814 43.8379 33.7554 43.0585 33.7554C41.4474 33.7554 40.6159 33.7814 39.8103 33.8334C39.7585 33.6257 39.7325 33.0026 39.8103 32.8466C40.278 32.7688 40.5119 32.6909 40.7978 32.6129C41.3176 32.4571 41.4474 32.2234 41.4734 31.5483C41.4734 31.0551 41.5772 26.8486 41.4214 25.8358C41.2655 24.7972 40.4859 23.5769 38.771 23.5769C38.1214 23.5769 37.1081 23.8366 36.1206 24.5895C36.0688 24.6415 36.0167 24.7712 36.0167 24.8492V24.8752C36.1206 25.4204 36.1206 26.0437 36.1206 27.0043V28.692C36.1206 29.8606 36.0945 30.9512 36.1206 31.782C36.1206 32.3534 36.4585 32.4831 36.7444 32.5871C36.9002 32.6129 37.004 32.6389 37.1341 32.6649C37.368 32.7169 37.6018 32.7688 37.9655 32.8466C38.0176 32.9506 38.0176 33.288 37.9395 33.5737C37.9135 33.7294 37.8615 33.8074 37.8357 33.8334C36.9522 33.8074 36.0428 33.7814 34.7175 33.7814C34.3278 33.7814 33.6522 33.8074 33.0804 33.8074C32.6127 33.8074 32.1709 33.8334 31.9113 33.8334C31.8853 33.7814 31.8333 33.5997 31.8333 33.314C31.8333 33.0803 31.8853 32.8986 31.9373 32.8466C32.0671 32.8206 32.1709 32.7948 32.301 32.7948C32.6127 32.7429 32.8726 32.6909 33.1325 32.6389C33.5742 32.5091 33.73 32.2754 33.756 31.7043C33.8341 30.406 33.9119 26.6929 33.73 25.758C33.4184 24.252 32.5609 23.4989 31.1837 23.4989C30.3782 23.4989 29.3647 23.8884 28.5333 24.5118C28.4034 24.6155 28.2994 24.8752 28.2994 25.1089V26.6409C28.2994 28.5103 28.2994 30.8474 28.3254 31.86C28.3514 32.1715 28.4552 32.5351 29.053 32.6649C29.1829 32.6909 29.3907 32.7429 29.6506 32.7688L30.1184 32.8466C30.1704 33.0026 30.1444 33.6257 30.0403 33.8334C29.7804 33.8334 29.4688 33.8074 29.1048 33.8074C28.5593 33.7814 27.8576 33.7554 27.0782 33.7554C26.1687 33.7554 25.5191 33.7814 24.9994 33.8074C24.6357 33.7554 24.3498 33.7554 24.0381 33.7554Z" fill="#442D22"/>
<g id="Group_2">
<path id="Vector_3" fill-rule="evenodd" clip-rule="evenodd" d="M10.3698 39.9874L9.30448 39.6237C9.30448 39.6237 9.43455 34.1969 7.48576 33.8075C6.18657 32.3015 7.69362 -30.0684 12.3706 33.5998C12.3706 33.5998 10.7598 34.4046 10.4739 35.7809C10.1619 37.1312 10.3698 39.9874 10.3698 39.9874Z" fill="white"/>
<path id="Vector_4" fill-rule="evenodd" clip-rule="evenodd" d="M10.3698 39.9874L9.30448 39.6237C9.30448 39.6237 9.43455 34.1969 7.48576 33.8075C6.18657 32.3015 7.69362 -30.0684 12.3706 33.5998C12.3706 33.5998 10.7598 34.4046 10.4739 35.7809C10.1619 37.1312 10.3698 39.9874 10.3698 39.9874Z" fill="#A6A385"/>
<path id="Vector_5" fill-rule="evenodd" clip-rule="evenodd" d="M10.9418 34.7423C10.9418 34.7423 20.27 28.6144 18.0874 15.8651C15.9827 6.5954 11.0196 3.55742 10.4741 2.38887C9.87649 1.55801 9.30469 0.104004 9.30469 0.104004L9.69464 25.8879C9.69464 25.9139 8.88897 33.7815 10.9418 34.7423Z" fill="white"/>
<path id="Vector_6" fill-rule="evenodd" clip-rule="evenodd" d="M10.9418 34.7423C10.9418 34.7423 20.27 28.6144 18.0874 15.8651C15.9827 6.5954 11.0196 3.55742 10.4741 2.38887C9.87649 1.55801 9.30469 0.104004 9.30469 0.104004L9.69464 25.8879C9.69464 25.9139 8.88897 33.7815 10.9418 34.7423Z" fill="#499D4A"/>
<path id="Vector_7" fill-rule="evenodd" clip-rule="evenodd" d="M8.75915 35.0798C8.75915 35.0798 0.00248218 29.1075 0.522257 18.5916C1.01577 8.07537 7.20007 2.90825 8.39521 1.97341C9.17487 1.14255 9.20088 0.830859 9.25291 0C9.79845 1.16855 9.69464 17.475 9.77244 19.3964C10.0063 26.7967 9.35672 33.6777 8.75915 35.0798Z" fill="white"/>
<path id="Vector_8" fill-rule="evenodd" clip-rule="evenodd" d="M8.75915 35.0798C8.75915 35.0798 0.00248218 29.1075 0.522257 18.5916C1.01577 8.07537 7.20007 2.90825 8.39521 1.97341C9.17487 1.14255 9.20088 0.830859 9.25291 0C9.79845 1.16855 9.69464 17.475 9.77244 19.3964C10.0063 26.7967 9.35672 33.6777 8.75915 35.0798Z" fill="#58AA50"/>
</g>
</g>
</g>
<defs>
<clipPath id="clip0_121_289">
<rect width="144" height="41" fill="white" transform="translate(0.5)"/>
</clipPath>
</defs>
</svg>
