<svg width="77" height="77" viewBox="0 0 77 77" fill="none" xmlns="http://www.w3.org/2000/svg">
<g id="nextjs-icon-svgrepo-com 1" clip-path="url(#clip0_121_248)">
<g id="Group">
<path id="Vector" d="M35.9785 0.020721C35.8129 0.0357725 35.286 0.088453 34.8118 0.126082C23.8753 1.11196 13.6312 7.01217 7.14301 16.0807C3.53011 21.123 1.21935 26.8426 0.346237 32.9008C0.0376344 35.0156 0 35.6402 0 38.5075C0 41.3749 0.0376344 41.9995 0.346237 44.1142C2.43871 58.5713 12.728 70.7179 26.6828 75.2183C29.1817 76.0235 31.8161 76.5729 34.8118 76.904C35.9785 77.032 41.0215 77.032 42.1882 76.904C47.3591 76.3321 51.7398 75.0527 56.0602 72.8477C56.7226 72.509 56.8505 72.4187 56.7602 72.3434C56.7 72.2983 53.8774 68.5128 50.4903 63.9371L44.3333 55.6212L36.6183 44.2045C32.3731 37.9281 28.8806 32.7955 28.8505 32.7955C28.8204 32.7879 28.7903 37.8603 28.7753 44.054C28.7527 54.8987 28.7452 55.3352 28.6097 55.591C28.414 55.9598 28.2634 56.1103 27.9473 56.2759C27.7065 56.3963 27.4957 56.4189 26.3591 56.4189H25.057L24.7108 56.2006C24.4849 56.0576 24.3194 55.8695 24.2065 55.6513L24.0484 55.3126L24.0634 40.2234L24.086 25.1267L24.3194 24.8332C24.4398 24.6752 24.6957 24.472 24.8763 24.3741C25.1849 24.2236 25.3054 24.2086 26.6075 24.2086C28.143 24.2086 28.3989 24.2688 28.7978 24.7053C28.9108 24.8257 33.0882 31.1172 38.086 38.6957C43.0839 46.2741 49.9183 56.6221 53.2753 61.702L59.372 70.9361L59.6806 70.7329C62.4129 68.9568 65.3032 66.4282 67.5914 63.7941C72.4613 58.2025 75.6 51.3841 76.6538 44.1142C76.9624 41.9995 77 41.3749 77 38.5075C77 35.6402 76.9624 35.0156 76.6538 32.9008C74.5613 18.4438 64.272 6.29722 50.3172 1.7968C47.8559 0.999072 45.2366 0.44969 42.3011 0.118556C41.5785 0.0432983 36.6032 -0.0394852 35.9785 0.020721ZM51.7398 23.3055C52.1011 23.4861 52.3946 23.8323 52.5 24.1935C52.5602 24.3892 52.5753 28.5735 52.5602 38.0033L52.5376 51.5347L50.1516 47.8771L47.7581 44.2196V34.3834C47.7581 28.0241 47.7882 24.4494 47.8333 24.2763C47.9538 23.8549 48.2172 23.5237 48.5785 23.328C48.8871 23.17 49 23.155 50.1817 23.155C51.2957 23.155 51.4914 23.17 51.7398 23.3055Z" fill="black"/>
</g>
</g>
<defs>
<clipPath id="clip0_121_248">
<rect width="77" height="77" fill="white"/>
</clipPath>
</defs>
</svg>
