<svg width="113" height="75" viewBox="0 0 113 75" fill="none" xmlns="http://www.w3.org/2000/svg">
<g id="nodejs 1" clip-path="url(#clip0_121_266)">
<path id="Vector" d="M53.6986 39.4973V24.9375L41.0894 17.6577L28.4805 24.9375V39.4973L41.0894 46.7771L53.6986 39.4973Z" fill="#3B8739"/>
<path id="Vector_2" d="M103.358 37.288L111.575 42.0331L103.358 46.7782L90.75 39.4982V24.9382L103.358 17.6582L110.999 22.0719C111.765 25.3015 112.247 28.6388 112.423 32.0559L107.751 34.7531V29.6811L103.358 27.1463L98.9649 29.6811V34.7531L103.358 37.288Z" fill="#333333"/>
<path id="Vector_3" d="M105.804 33.6306V30.8044L103.356 29.3912L100.908 30.8044V33.6306L103.356 35.044L105.804 33.6306Z" fill="#66A060"/>
<path id="Vector_4" d="M22.5251 24.9384V44.1383L14.1159 39.3407V29.4985L9.91719 27.0732L5.71828 29.4983V39.3405L0.943406 42.0652C0.650937 39.752 0.5 37.3932 0.5 35C0.5 30.6161 1.00291 26.3487 1.956 22.2548L9.91719 17.6582L22.5251 24.9384Z" fill="#333333"/>
<path id="Vector_5" d="M53.6967 39.4955L41.0879 17.657L28.4795 24.9367L41.0884 46.7752L53.6967 39.4955Z" fill="#6DA75D"/>
<path id="Vector_6" d="M28.4805 39.4973L32.81 32.4369L28.4805 24.9375V39.4973Z" fill="#55A344"/>
<path id="Vector_7" d="M49.4955 32.2168L53.699 24.9375L41.0898 17.6577L49.4955 32.2168Z" fill="#639D57"/>
<path id="Vector_8" d="M76.3072 0.782959V20.0995L72.081 17.6582L59.4707 24.9382V39.4982L72.081 46.7782L84.6891 39.4982V5.26974L76.3072 0.782959ZM76.2843 34.6435L72.0808 37.071L67.8773 34.6435V29.791L72.0808 27.3635L76.2843 29.791V34.6435Z" fill="#333333"/>
<g id="Group">
<path id="Vector_9" d="M62.22 57.4693C62.22 57.4693 61.9724 55.3411 59.6958 55.3411C57.4191 55.3411 55.8603 55.6379 55.8603 56.9001C55.8603 58.1623 60.29 58.1623 61.9728 58.6571C63.6557 59.1519 65.1403 60.4388 64.3979 62.7156C63.6554 64.9923 61.3787 65.2397 57.8647 65.2397C54.3507 65.2397 53.5586 62.3194 53.5586 61.1812H55.5383C55.5383 61.1812 55.2907 62.963 57.6168 63.2598C59.943 63.5566 62.1673 63.7238 62.4672 61.9237C62.8631 59.5478 54.9442 60.7359 54.2512 58.4097C53.6658 56.4442 54.0035 53.8564 57.9631 53.4602C61.9227 53.0641 64.1004 54.8123 64.1004 57.4198L62.22 57.4693Z" fill="#66A060"/>
<path id="Vector_10" d="M43.0959 66.7474L47.4727 69.2742C49.6718 70.5438 52.4206 68.9568 52.4206 66.4175V61.9896V53.8405H50.6367V65.9214C50.6367 67.308 49.1356 68.1749 47.9345 67.4813L44.8796 65.7177V52.8246L56.0453 46.3787L67.2109 52.8246V65.7177L56.0453 72.1636L52.8288 70.3067L50.7283 71.1537L56.045 74.2234L68.9946 66.7467V51.7949L56.0453 44.3187L43.0957 51.7954V66.7474H43.0959Z" fill="#66A060"/>
</g>
</g>
<defs>
<clipPath id="clip0_121_266">
<rect width="112" height="75" fill="white" transform="translate(0.5)"/>
</clipPath>
</defs>
</svg>
