<svg width="91" height="89" viewBox="0 0 91 89" fill="none" xmlns="http://www.w3.org/2000/svg">
<g id="pgsql-svgrepo-com 1">
<path id="Vector" d="M83.4893 52.2124C83.2518 51.5289 82.8237 50.9257 82.2544 50.4724C81.6851 50.0192 80.9978 49.7344 80.2718 49.6509C79.4141 49.5489 78.5449 49.5969 77.704 49.7927C76.4034 50.0768 75.0803 50.249 73.7496 50.3073C77.3081 44.3704 80.0259 37.9788 81.8271 31.3113C84.5075 21.0513 83.0759 16.3788 81.4025 14.2622C79.1802 11.482 76.3361 9.24931 73.0937 7.73976C69.8513 6.23021 66.2991 5.48493 62.7162 5.5625C59.4294 5.53205 56.1563 5.98573 53.0046 6.90862C51.1275 6.59036 49.2278 6.41925 47.3234 6.39687C43.8618 6.26691 40.4331 7.10252 37.429 8.80822C35.1508 8.04648 32.8146 7.46613 30.4428 7.07272C27.6779 6.4168 24.8093 6.30615 22.0012 6.74711C19.193 7.18806 16.5003 8.17197 14.0768 9.64259C9.19995 13.0468 6.9387 18.9653 7.35776 27.234C8.10808 33.4025 9.43181 39.4896 11.3121 45.4178C12.3951 49.1208 13.8204 52.7173 15.5703 56.1618C16.8625 59.304 19.3192 61.8398 22.4384 63.2512C23.5817 63.6237 24.805 63.6871 25.9815 63.4348C27.158 63.1824 28.2448 62.6236 29.1293 61.8161C29.5308 62.2861 30.0055 62.6898 30.5356 63.012C31.3572 63.5162 32.2528 63.8915 33.1906 64.1245C36.2603 64.97 39.5279 64.7742 42.4718 63.5683C42.4887 64.0438 42.5028 64.5 42.5112 64.8949C42.5281 65.5318 42.5478 66.1576 42.5703 66.7444C42.5369 69.8468 42.9546 72.9378 43.8106 75.9226C43.8556 76.0422 43.9146 76.2202 43.9765 76.4121C44.4705 78.2389 45.4302 79.9099 46.7637 81.2654C48.3625 82.7171 50.4723 83.4928 52.6418 83.4264C53.566 83.4206 54.4869 83.319 55.3896 83.1232C57.1009 82.9108 58.7517 82.3615 60.2448 81.5079C61.7379 80.6543 63.043 79.5136 64.0831 78.1531C66.364 74.9408 67.475 70.1042 67.6746 62.4808C67.7 62.2638 67.7253 62.058 67.7478 61.8633L67.7956 61.4601L68.3328 61.5073H68.4706C71.512 61.6347 74.5457 61.115 77.3665 59.9832C79.1412 59.1683 84.8309 56.1979 83.4893 52.1957" fill="black"/>
<path id="Vector_2" d="M78.3748 52.9912C69.4788 54.8046 68.8685 51.8286 68.8685 51.8286C78.2595 38.0476 82.1857 20.5535 78.7966 16.2731C69.5548 4.5919 53.5544 10.1182 53.2873 10.2601L53.2001 10.2768C51.2458 9.88891 49.2589 9.68405 47.2657 9.6649C43.9044 9.49812 40.5875 10.4802 37.8719 12.4461C37.8719 12.4461 9.33069 0.817743 10.6582 27.07C10.9394 32.6547 18.7526 69.3283 28.0704 58.2506C31.4763 54.2011 34.7669 50.7746 34.7669 50.7746C36.4242 51.8807 38.4182 52.384 40.4088 52.1986L40.5691 52.0651C40.5221 52.5913 40.5438 53.1213 40.6338 53.642C38.2319 56.2953 38.9463 56.7598 34.1398 57.736C29.2854 58.7262 32.1373 60.4867 33.9991 60.9484C35.9773 61.5812 38.1071 61.5798 40.0845 60.9445C42.0619 60.3092 43.7858 59.0724 45.0101 57.4106L44.8694 57.9669C45.8088 58.7122 46.4698 62.8118 46.3601 66.5303C46.0533 69.2959 46.2437 72.0934 46.9226 74.7934C47.6651 76.7876 48.4019 81.271 54.7104 79.936C56.9537 79.7168 59.0401 78.6995 60.5817 77.0732C62.1234 75.4469 63.0153 73.3222 63.0916 71.0944C63.3729 67.6623 63.9719 68.1685 64.0085 65.1008L64.4979 63.649C65.0604 58.9959 64.5879 57.4941 67.8335 58.1921L68.6238 58.2617C71.1349 58.366 73.6402 57.9491 75.9785 57.0379C79.9329 55.2246 82.2757 52.193 78.3776 52.9912" fill="#336791"/>
<path id="Vector_3" d="M39.5441 29.5675C38.8989 29.4332 38.2264 29.5319 37.6484 29.8456C37.5731 29.8992 37.5094 29.9672 37.4611 30.0455C37.4128 30.1239 37.3809 30.211 37.3672 30.3017C37.3672 30.6225 37.484 30.9325 37.6963 31.175C38.0736 31.6875 38.6371 32.0355 39.2684 32.1457C39.3523 32.1572 39.4369 32.1628 39.5216 32.1624C39.9394 32.1678 40.3488 32.0461 40.6944 31.8138C41.04 31.5814 41.3051 31.2497 41.4538 30.8636C41.5522 30.1738 40.5369 29.7121 39.5525 29.5758M66.1081 29.5981C66.0322 29.0557 65.0563 28.9028 64.1394 29.0418C63.2225 29.1809 62.3197 29.5814 62.3956 30.1237C62.5386 30.464 62.7808 30.7544 63.0914 30.958C63.402 31.1616 63.7668 31.2691 64.1394 31.2668C64.2175 31.2667 64.2955 31.2611 64.3728 31.2501C64.8605 31.1654 65.3064 30.924 65.6412 30.5632C65.9212 30.32 66.0922 29.9769 66.1166 29.6092" fill="white"/>
<path id="Vector_4" d="M81.334 52.7853C80.9937 51.7702 79.9025 51.4448 78.0884 51.8147C72.7025 52.9272 70.7759 52.1512 70.1403 51.6923C74.4053 45.2179 77.6071 38.1166 79.6268 30.6522C80.4443 27.6996 80.9162 24.6639 81.0331 21.6048C81.2498 19.465 80.7467 17.3142 79.6015 15.486C77.5745 12.9633 74.9827 10.9405 72.0304 9.57701C69.0782 8.21355 65.846 7.5467 62.5887 7.62898C59.2428 7.57721 55.9129 8.0956 52.745 9.16145C50.9331 8.71933 49.076 8.48325 47.21 8.45779C43.8527 8.31191 40.5343 9.21599 37.7262 11.0416C35.2267 10.1378 32.6465 9.46924 30.02 9.04464C24.9991 7.84311 19.7017 8.64758 15.2768 11.2835C11.0581 14.2428 9.08934 19.5327 9.48028 27.0059C10.2191 32.9954 11.5117 38.9053 13.3418 44.6613C16.3512 54.4096 19.6222 59.9304 23.0647 61.0707C23.5097 61.2189 23.976 61.295 24.4456 61.296C25.3195 61.2425 26.1695 60.9927 26.9312 60.5657C27.6929 60.1388 28.3462 59.5458 28.8415 58.8318C30.7953 56.5141 32.8156 54.2539 34.9025 52.0511C36.244 52.7691 37.7371 53.1663 39.2618 53.2109V53.3277C38.9993 53.6355 38.7434 53.9488 38.494 54.2678C37.4393 55.5888 37.2228 55.8642 33.8309 56.5567C32.8662 56.7542 30.304 57.2771 30.2675 59.0598C30.2281 61.0067 33.2965 61.8161 33.6425 61.9023C34.7903 62.1942 35.9701 62.3455 37.1553 62.3528C39.7474 62.4001 42.2608 61.4716 44.1865 59.7552C43.8989 65.0481 44.2587 70.3561 45.2581 75.5638C45.7198 77.231 46.7193 78.7036 48.1047 79.7577C49.49 80.8119 51.1854 81.3901 52.9334 81.4044C53.8006 81.4018 54.6651 81.3085 55.5125 81.1263C57.8262 80.9287 59.9924 79.9198 61.62 78.2817C63.2477 76.6435 64.2296 74.4841 64.3887 72.1929C64.8865 69.3393 65.7415 62.5281 66.1437 58.8735C67.1601 59.1498 68.2118 59.2781 69.2656 59.2545C71.6927 59.2719 74.0997 58.8183 76.3503 57.9195C78.3528 56.9989 81.9753 54.7461 81.3087 52.7853H81.334ZM68.1434 28.0906C68.1074 29.1232 67.9983 30.152 67.8172 31.1695C67.6081 32.3651 67.4765 33.5728 67.4234 34.7851C67.4139 36.1529 67.5079 37.5196 67.7047 38.8735C68.3122 41.6448 68.0883 44.5311 67.0606 47.1783C66.8423 46.7955 66.6479 46.3998 66.4784 45.9935C66.3153 45.6014 65.9581 44.97 65.4687 44.0995C63.5562 40.7064 59.0731 32.7576 61.3681 29.5146C62.0515 28.5495 63.7868 27.5678 68.1406 28.0906H68.1434ZM62.8643 9.8206C65.7432 9.7624 68.5965 10.3656 71.1996 11.5827C73.8028 12.7999 76.0848 14.5978 77.8662 16.8349C80.6084 20.2976 77.585 36.0589 68.8521 49.6537L68.5878 49.3227L68.4781 49.1864C70.213 45.9444 70.7178 42.1956 69.9012 38.6177C69.7132 37.3729 69.6192 36.116 69.62 34.8574C69.6709 33.7328 69.794 32.6125 69.9884 31.5032C70.2415 30.1337 70.3573 28.7428 70.3343 27.3508C70.3801 27.1596 70.3925 26.9621 70.3709 26.7668C69.439 23.0425 67.5918 19.6033 64.9934 16.7543C62.6585 14.0335 59.7383 11.8631 56.4462 10.4019C58.5545 9.96715 60.7054 9.76751 62.8587 9.8067L62.8643 9.8206ZM27.1597 57.4439C25.3962 59.541 24.1756 59.1405 23.7847 59.007C21.1747 58.1448 18.1428 52.688 15.4737 44.0328C13.7015 38.4459 12.4402 32.713 11.705 26.903C11.3675 20.228 13.0043 15.5722 16.5706 13.0691C22.3728 9.00014 31.9156 11.4365 35.749 12.6714C35.6928 12.7242 35.6365 12.7743 35.5831 12.8299C29.2915 19.1128 29.4406 29.8484 29.4575 30.5048C29.4575 30.7579 29.4772 31.1166 29.5081 31.6173C29.7387 34.608 29.6624 37.6141 29.2803 40.5896C29.0188 42.2933 29.1531 44.0335 29.6731 45.6782C30.1931 47.3229 31.085 48.8289 32.2812 50.082C32.5306 50.3379 32.7912 50.5807 33.0631 50.8107C31.9859 51.951 29.6431 54.4763 27.1568 57.4439H27.1597ZM33.8815 48.5718C32.9116 47.5577 32.1883 46.3382 31.7668 45.0061C31.3452 43.674 31.2364 42.2643 31.4487 40.8844C31.8519 37.7662 31.9338 34.6156 31.6934 31.481C31.6765 31.2168 31.6625 30.9859 31.654 30.8051C34.01 29.0492 36.9338 28.2055 39.875 28.4327C40.5517 28.5844 41.1638 28.9406 41.6265 29.452C42.0892 29.9633 42.3794 30.6044 42.4568 31.2863C44.2737 39.5994 42.6959 43.0621 41.4303 45.8461C41.1687 46.4191 40.9212 46.9586 40.7131 47.5149L40.55 47.9488C40.1458 48.9565 39.8002 49.9864 39.515 51.0332C38.4576 51.0183 37.4142 50.7921 36.4475 50.3681C35.4809 49.9442 34.6109 49.3312 33.89 48.5662L33.8815 48.5718ZM34.1993 59.7802C33.6775 59.6532 33.1805 59.4418 32.7284 59.1544C33.2311 58.942 33.7567 58.7871 34.295 58.6927C38.2831 57.8806 38.899 57.3021 40.2462 55.6194C40.5556 55.2328 40.9043 54.7851 41.3881 54.2594C42.1081 53.4612 42.44 53.5975 43.0362 53.8422C43.319 53.9941 43.567 54.2023 43.7645 54.4536C43.962 54.7048 44.1047 54.9939 44.1837 55.3024C44.2623 55.5264 44.2905 55.7647 44.2662 56.0006C44.2419 56.2364 44.1657 56.4642 44.0431 56.668C42.9528 58.1568 41.4099 59.262 39.6395 59.8224C37.8692 60.3828 35.964 60.369 34.2022 59.783L34.1993 59.7802ZM55.0793 78.9875C54.29 79.2589 53.4517 79.3626 52.6191 79.2919C51.7865 79.2211 50.9784 78.9776 50.2475 78.577C49.5165 78.1765 48.8792 77.6281 48.3771 76.9675C47.8751 76.3069 47.5195 75.549 47.3337 74.7433C46.3433 68.4402 46.0603 62.048 46.49 55.6834C46.4928 55.5667 46.4767 55.4502 46.4422 55.3385C46.4126 55.1224 46.3675 54.9086 46.3072 54.6988C46.1405 54.0732 45.8371 53.4914 45.4181 52.9945C44.9992 52.4976 44.4751 52.0977 43.8828 51.823C43.1923 51.4845 42.4064 51.3865 41.6525 51.5449C41.9189 50.5803 42.2401 49.6314 42.6143 48.7025L42.7775 48.2658C42.9631 47.7735 43.1937 47.2646 43.4384 46.725C44.7631 43.813 46.58 39.8219 44.6084 30.8107C44.4836 30.0442 44.2014 29.3111 43.7791 28.6565C43.3568 28.002 42.8035 27.44 42.1531 27.005C41.5027 26.5701 40.7692 26.2715 39.9977 26.1277C39.2261 25.9839 38.433 25.9979 37.6672 26.1688C35.8147 26.4064 34.0185 26.9627 32.36 27.8125C32.1406 27.9238 31.9381 28.0294 31.7525 28.1324C31.9652 23.0787 33.8617 18.2365 37.1468 14.3596C38.4663 13.0827 40.0411 12.0925 41.7701 11.4527C43.4992 10.8128 45.3444 10.5373 47.1875 10.6439C50.301 10.6706 53.3708 11.3726 56.1801 12.7004C58.9894 14.0282 61.4699 15.9494 63.4465 18.3284C65.3756 20.556 66.8828 23.1093 67.8959 25.8656C63.7812 25.4512 60.9828 26.255 59.5653 28.2603C56.4715 32.6213 61.2528 41.0874 63.5478 45.1564C63.9697 45.9018 64.3325 46.547 64.445 46.8251C65.051 48.2243 65.8674 49.5248 66.8665 50.6827C67.0831 50.9608 67.294 51.2084 67.4515 51.4364C66.2056 51.7924 63.9668 52.6129 64.1722 56.7208C64.009 58.7789 62.839 68.416 62.2428 71.823C61.4581 76.3203 59.7847 77.9974 55.0765 78.9958L55.0793 78.9875ZM75.4475 55.9365C73.716 56.6158 71.8784 56.9922 70.0165 57.049C68.7778 57.2294 67.5127 57.0687 66.3603 56.5845C66.2337 54.0286 67.204 53.7616 68.2165 53.4779C68.3768 53.4334 68.5315 53.3889 68.6834 53.3388C68.7827 53.4181 68.8859 53.4923 68.9928 53.5613C70.79 54.735 73.999 54.8602 78.5272 53.9368H78.5778C77.6418 54.7598 76.5831 55.4352 75.439 55.9393L75.4475 55.9365Z" fill="white"/>
</g>
</svg>
