<svg width="85" height="77" viewBox="0 0 85 77" fill="none" xmlns="http://www.w3.org/2000/svg">
<g id="logo_light 1" clip-path="url(#clip0_121_232)">
<g id="Page-1">
<g id="React-Logo-Filled-(1)">
<path id="Path" d="M42.6493 46.7715C38.1529 46.7715 34.5078 43.1019 34.5078 38.5752C34.5078 34.0485 38.1529 30.3789 42.6493 30.3789C47.1457 30.3789 50.7908 34.0485 50.7908 38.5752C50.7908 43.1019 47.1457 46.7715 42.6493 46.7715Z" fill="#087EA4"/>
<path id="Shape" d="M84.994 38.5008C84.994 44.9356 79.0751 50.5792 69.6509 54.2932C69.7769 55.1297 69.8908 55.957 69.9718 56.7693C70.9013 66.0152 68.6884 72.6885 63.744 75.5631C58.2119 78.779 50.3979 76.4449 42.497 70.0796C34.5961 76.4449 26.7821 78.779 21.25 75.5631C16.3056 72.6885 14.0927 66.0152 15.0222 56.7693C15.1032 55.957 15.2141 55.1266 15.3431 54.2872C14.5575 53.9852 13.7869 53.6652 13.0462 53.33C4.6326 49.5223 0 44.2501 0 38.5008C0 32.0661 5.91894 26.4225 15.3431 22.7085C15.2141 21.872 15.1032 21.0447 15.0222 20.2324C14.0927 10.9865 16.3056 4.31319 21.25 1.43855C22.95 0.468079 24.8762 -0.0280838 26.8301 0.00122833C31.5137 0.00122833 36.9829 2.48332 42.497 6.9221C48.0081 2.48332 53.4803 0.00122833 58.1699 0.00122833C60.1237 -0.0276489 62.0499 0.468491 63.75 1.43855C68.6944 4.31319 70.9073 10.9865 69.9778 20.2324C69.8968 21.0447 69.7829 21.872 69.6569 22.7085C79.0811 26.4165 85 32.0691 85 38.5008M58.1339 72.924C59.3902 72.9546 60.632 72.6482 61.732 72.0363C65.1653 70.0403 66.7065 64.6262 65.9569 57.183C65.9059 56.6757 65.8459 56.1624 65.774 55.646C61.8553 56.8344 57.8427 57.682 53.7802 58.1794C51.3174 61.4761 48.5788 64.5542 45.5944 67.3801C50.281 71.0277 54.6797 72.924 58.1309 72.924M56.5207 30.348C55.0042 27.6973 53.3529 25.1273 51.5733 22.6481C48.5568 22.336 45.5264 22.1808 42.494 22.183C39.4626 22.1809 36.4332 22.3361 33.4177 22.6481C31.6428 25.1274 29.9965 27.6974 28.4853 30.348C26.9688 32.9913 25.5907 35.7126 24.3564 38.5008C25.5907 41.2891 26.9688 44.0104 28.4853 46.6537C29.9941 49.2936 31.6354 51.8545 33.4027 54.3265C36.4237 54.6462 39.4594 54.8055 42.497 54.8036C45.5284 54.8054 48.5578 54.6502 51.5733 54.3385C53.3467 51.8628 54.994 49.2979 56.5088 46.6537C58.024 44.0098 59.4021 41.2885 60.6376 38.5008C59.4021 35.7132 58.024 32.9919 56.5088 30.348M62.7005 33.3676C63.6522 30.7543 64.4334 28.0814 65.0393 25.3657C62.41 24.5402 59.7296 23.8896 57.0155 23.4181C58.047 24.9842 59.0464 26.6138 60.0139 28.3068C60.9704 29.9796 61.867 31.6675 62.7125 33.3555M36.8029 18.2908C38.668 18.1761 40.572 18.1096 42.5 18.1096C44.428 18.1096 46.344 18.1761 48.212 18.2908C46.4409 16.1544 44.5328 14.1371 42.5 12.2517C40.4716 14.1368 38.5685 16.1542 36.8029 18.2908ZM27.9815 23.4241C25.2666 23.8935 22.5852 24.5421 19.9547 25.3657C20.5581 28.0771 21.3364 30.746 22.2845 33.3555C23.118 31.6675 24.0116 29.9796 24.9831 28.3068C25.9546 26.6339 26.959 24.9852 27.9815 23.4181M22.2845 43.6492C21.3398 46.249 20.5635 48.9078 19.9607 51.6088C22.5846 52.4333 25.2588 53.0859 27.9665 53.5625C26.9411 52.0014 25.9366 50.3829 24.9681 48.6949C23.9996 47.007 23.115 45.3402 22.2695 43.6492M48.1941 58.7139C46.329 58.8286 44.425 58.8951 42.482 58.8951C40.555 58.8951 38.656 58.8347 36.785 58.7139C38.5505 60.8505 40.4536 62.8679 42.482 64.7531C44.5156 62.8684 46.4237 60.851 48.1941 58.7139ZM60.0079 48.6949C59.0364 50.3899 58.032 52.0205 56.9945 53.5867C59.7157 53.1151 62.4032 52.4635 65.0393 51.636C64.4345 48.925 63.6563 46.2561 62.7095 43.6462C61.876 45.3342 60.9794 47.0221 60.0109 48.6919M19.0491 57.18C18.2905 64.6202 19.8407 70.0373 23.271 72.0333C24.3714 72.6442 25.6129 72.9505 26.8691 72.921C30.3203 72.921 34.719 71.0247 39.4056 67.3771C36.4192 64.5492 33.6786 61.469 31.2138 58.1704C27.1524 57.6706 23.1402 56.8261 19.2201 55.646C19.1511 56.1624 19.0881 56.6727 19.0401 57.18M14.7074 49.6129C15.1691 49.8142 15.6399 50.0155 16.1197 50.2168C17.0628 46.2097 18.3417 42.2903 19.9427 38.5008C18.3387 34.7039 17.0588 30.7764 16.1167 26.7607C8.47661 29.9162 4.0479 34.2885 4.0479 38.5008C4.0479 42.4927 7.94589 46.542 14.7074 49.6129ZM23.271 4.96844C19.8407 6.96438 18.2905 12.3815 19.0491 19.8217C19.0971 20.329 19.1601 20.8393 19.229 21.3587C23.1477 20.1706 27.1604 19.323 31.2228 18.8253C33.6863 15.5274 36.4249 12.4473 39.4086 9.61858C32.875 4.53664 26.9051 2.86077 23.2799 4.96844M65.9539 19.8217C66.7035 12.3785 65.1623 6.96438 61.729 4.96844C58.1069 2.85473 52.134 4.53664 45.6034 9.61858C48.5861 12.4474 51.3237 15.5275 53.7862 18.8253C57.8487 19.3227 61.8613 20.1703 65.7799 21.3587C65.8519 20.8393 65.9119 20.329 65.9629 19.8217M68.8953 26.7668C67.9506 30.7801 66.6696 34.7055 65.0663 38.5008C66.669 42.2983 67.9489 46.2257 68.8923 50.241C76.5174 47.0855 80.9581 42.7132 80.9581 38.5008C80.9581 34.2885 76.5294 29.9162 68.8893 26.7607" fill="#087EA4"/>
</g>
</g>
</g>
<defs>
<clipPath id="clip0_121_232">
<rect width="85" height="77" fill="white" transform="matrix(1 0 0 -1 0 77)"/>
</clipPath>
</defs>
</svg>
