<svg width="45" height="45" viewBox="0 0 45 45" fill="none" xmlns="http://www.w3.org/2000/svg">
<path fill-rule="evenodd" clip-rule="evenodd" d="M40.8864 15.4688V37.9688C40.8864 39.0881 40.4423 40.1611 39.6505 40.9514C38.8588 41.7431 37.7857 42.1875 36.6664 42.1875H14.1596C13.0403 42.1875 11.9672 41.7431 11.1755 40.9514C10.3837 40.1611 9.93961 39.0881 9.93961 37.9688V27.9394C10.6249 28.0617 11.3302 28.125 12.0496 28.125C18.6489 28.125 24.0063 22.7686 24.0063 16.1719C24.0063 9.57516 18.6489 4.21875 12.0496 4.21875C11.6859 4.21875 11.3262 4.23562 10.9725 4.26656C11.7462 3.3764 12.8876 2.8125 14.1596 2.8125H28.2263V11.25C28.2263 12.3694 28.6704 13.4423 29.4622 14.2327C30.254 15.0244 31.327 15.4688 32.4464 15.4688H40.8864ZM18.3796 35.1562V33.75C18.3796 32.9737 17.7486 32.3438 16.973 32.3438C16.1973 32.3438 15.5663 32.9737 15.5663 33.75V35.1562C15.5663 35.9325 16.1973 36.5625 16.973 36.5625C17.7486 36.5625 18.3796 35.9325 18.3796 35.1562ZM24.0063 35.1562V29.5312C24.0063 28.755 23.3753 28.125 22.5997 28.125C21.824 28.125 21.193 28.755 21.193 29.5312V35.1562C21.193 35.9325 21.824 36.5625 22.5997 36.5625C23.3753 36.5625 24.0063 35.9325 24.0063 35.1562ZM29.633 35.1562V30.9375C29.633 30.1612 29.002 29.5312 28.2263 29.5312C27.4506 29.5312 26.8197 30.1612 26.8197 30.9375V35.1562C26.8197 35.9325 27.4506 36.5625 28.2263 36.5625C29.002 36.5625 29.633 35.9325 29.633 35.1562ZM35.2597 35.1562V25.3125C35.2597 24.5362 34.6287 23.9062 33.853 23.9062C33.0773 23.9062 32.4464 24.5362 32.4464 25.3125V35.1562C32.4464 35.9325 33.0773 36.5625 33.853 36.5625C34.6287 36.5625 35.2597 35.9325 35.2597 35.1562ZM31.0397 2.83921C32.0505 2.95453 32.9929 3.43266 33.6842 4.19344L39.7892 10.9055C40.2454 11.4089 40.5709 12.0094 40.7437 12.6562H32.4464C32.0726 12.6562 31.7149 12.5086 31.4516 12.2442C31.1884 11.9813 31.0397 11.6227 31.0397 11.25V2.83921ZM21.0844 17.5781C20.4072 21.9558 16.6173 25.3125 12.0496 25.3125C7.00369 25.3125 2.90625 21.2161 2.90625 16.1719C2.90625 11.6058 6.26416 7.81594 10.6429 7.13954V14.7656C10.6429 16.3195 11.9029 17.5781 13.4563 17.5781H21.0844ZM13.4563 7.13954C17.3769 7.74563 20.4796 10.8464 21.0844 14.7656H13.4563V7.13954Z" fill="white"/>
</svg>
