<svg width="60" height="60" viewBox="0 0 60 60" fill="none" xmlns="http://www.w3.org/2000/svg">
<mask id="mask0_121_65" style="mask-type:luminance" maskUnits="userSpaceOnUse" x="0" y="0" width="60" height="60">
<path d="M60 0H0V60H60V0Z" fill="white"/>
<path d="M30 51.6797C28.7055 51.6797 27.6562 50.6304 27.6562 49.3359C27.6562 48.0415 28.7055 46.9922 30 46.9922C31.2945 46.9922 32.3437 48.0415 32.3437 49.3359C32.3437 50.6304 31.2945 51.6797 30 51.6797Z" fill="white"/>
<path d="M37.8844 41.7188C38.9485 41.7188 39.9999 41.0175 40.2885 40.0022L45.6118 21.2757C46.039 19.7728 44.8999 18.2813 43.325 18.2813C42.2609 18.2813 41.3267 18.9825 41.0381 19.9978L35.7147 38.7243C35.2876 40.2272 36.3095 41.7188 37.8844 41.7188Z" fill="white"/>
</mask>
<g mask="url(#mask0_121_65)">
<mask id="mask1_121_65" style="mask-type:luminance" maskUnits="userSpaceOnUse" x="0" y="0" width="60" height="60">
<path d="M0 3.8147e-06H60V60H0V3.8147e-06Z" fill="white"/>
</mask>
<g mask="url(#mask1_121_65)">
<path d="M48.3984 13.0084V9.36133C48.3984 5.47809 45.2504 2.33008 41.3672 2.33008H18.6328C14.7496 2.33008 11.6016 5.47809 11.6016 9.36133V50.6113C11.6016 54.4946 14.7496 57.6426 18.6328 57.6426H41.3672C45.2504 57.6426 48.3984 54.4946 48.3984 50.6113V46.1725" stroke="#FF6A3F" stroke-width="2" stroke-miterlimit="10" stroke-linecap="round"/>
<path d="M30 51.6802C28.7055 51.6802 27.6562 50.6309 27.6562 49.3364C27.6562 48.042 28.7055 46.9927 30 46.9927C31.2945 46.9927 32.3437 48.042 32.3437 49.3364C32.3437 50.6309 31.2945 51.6802 30 51.6802Z" fill="#FF6A3F"/>
<path d="M27.6562 10.6646H32.3437" stroke="#FF6A3F" stroke-width="2" stroke-miterlimit="10" stroke-linecap="round"/>
<path d="M37.8844 41.7192C38.9485 41.7192 39.9999 41.018 40.2885 40.0027L45.6118 21.2762C46.039 19.7733 44.8999 18.2817 43.325 18.2817C42.2609 18.2817 41.3267 18.983 41.0381 19.9983L35.7147 38.7247C35.2876 40.2277 36.3095 41.7192 37.8844 41.7192Z" fill="#FF6A3F"/>
<path d="M30 22.8521L24.1962 27.7181C22.7159 28.9753 22.7159 31.26 24.1962 32.5172L30 37.3833" stroke="#FF6A3F" stroke-width="2" stroke-miterlimit="10" stroke-linecap="round" stroke-linejoin="round"/>
<path d="M50.8594 22.8521L56.546 27.7181C58.0263 28.9753 58.0263 31.26 56.546 32.5172L50.8594 37.3833" stroke="#FF6A3F" stroke-width="2" stroke-miterlimit="10" stroke-linecap="round" stroke-linejoin="round"/>
</g>
</g>
</svg>
