<svg width="45" height="45" viewBox="0 0 45 45" fill="none" xmlns="http://www.w3.org/2000/svg">
<path d="M2.88809 17.0676C2.49732 16.6356 2.53081 15.9686 2.96279 15.578L13.1611 6.35358C13.5621 5.99095 14.1723 5.99016 14.5739 6.35165L20.365 11.5613L27.8687 4.05762H27.5866C27.0041 4.05762 26.5319 3.58538 26.5319 3.00293C26.5319 2.42048 27.0041 1.94824 27.5866 1.94824H30.415C30.9974 1.94824 31.4697 2.42048 31.4697 3.00293V5.82879C31.4697 6.41124 30.9974 6.88348 30.415 6.88348C29.8325 6.88348 29.3603 6.41124 29.3603 5.82879V5.54921L21.1491 13.7603C20.7526 14.1569 20.115 14.1738 19.698 13.7986L13.8705 8.55612L4.37774 17.1422C4.17595 17.3248 3.92282 17.4148 3.67058 17.4148C3.38291 17.4148 3.0963 17.2977 2.88809 17.0676ZM40.9941 33.1814H32.7084V24.8931C32.7084 24.602 32.4722 24.3658 32.1811 24.3658C27.0294 24.3658 22.8381 28.557 22.8381 33.7088C22.8381 38.8605 27.0294 43.0517 32.1811 43.0517C37.3328 43.0517 41.5215 38.8605 41.5215 33.7088C41.5215 33.4176 41.2853 33.1814 40.9941 33.1814ZM34.9565 21.5904C34.6653 21.5904 34.4291 21.8266 34.4291 22.1177V30.9333C34.4291 31.2245 34.6653 31.4607 34.9565 31.4607H43.7695C44.0607 31.4607 44.2969 31.2245 44.2969 30.9333C44.2969 25.7816 40.1068 21.5904 34.9565 21.5904ZM26.0046 12.472C25.7134 12.472 25.4772 12.7082 25.4772 12.9993V24.4294C27.0475 23.2918 28.9165 22.5424 30.9423 22.3236V12.9993C30.9423 12.7082 30.7062 12.472 30.415 12.472H26.0046ZM23.4967 26.2513V19.2691C23.4967 18.9779 23.2605 18.7418 22.9693 18.7418H18.559C18.2678 18.7418 18.0316 18.9779 18.0316 19.2691V32.654H16.0511V16.0093C16.0511 15.7181 15.815 15.482 15.5238 15.482H11.1133C10.8221 15.482 10.586 15.7181 10.586 16.0093V32.654H8.60546V22.6399C8.60546 22.3487 8.3693 22.1125 8.07812 22.1125H3.67031C3.37913 22.1125 3.14297 22.3487 3.14297 22.6399V32.654H1.75781C1.17536 32.654 0.703125 33.1262 0.703125 33.7087C0.703125 34.2911 1.17536 34.7633 1.75781 34.7633H20.7777C20.7459 34.4159 20.7287 34.0643 20.7287 33.7087C20.7287 30.8629 21.7724 28.2565 23.4966 26.2513H23.4967Z" fill="white"/>
</svg>
