<svg width="85" height="84" viewBox="0 0 85 84" fill="none" xmlns="http://www.w3.org/2000/svg">
<g id="tailwindcss-icon-svgrepo-com 1" clip-path="url(#clip0_121_303)">
<g id="Group">
<path id="Vector" d="M42.5 16.7344C31.3 16.7344 24.3 22.3344 21.5 33.5344C25.7 27.9344 30.6 25.8344 36.2 27.2344C39.3951 28.0332 41.6788 30.3511 44.2066 32.917C48.3245 37.0968 53.0904 41.9344 63.5 41.9344C74.7 41.9344 81.7 36.3344 84.5 25.1344C80.3 30.7344 75.4 32.8344 69.8 31.4344C66.6049 30.6356 64.3212 28.3177 61.7934 25.7518C57.6755 21.572 52.9096 16.7344 42.5 16.7344ZM21.5 41.9344C10.3 41.9344 3.3 47.5344 0.5 58.7344C4.7 53.1344 9.6 51.0344 15.2 52.4344C18.3951 53.2332 20.6788 55.5511 23.2066 58.117C27.3245 62.2968 32.0904 67.1344 42.5 67.1344C53.7 67.1344 60.7 61.5344 63.5 50.3344C59.3 55.9344 54.4 58.0344 48.8 56.6344C45.6049 55.8356 43.3212 53.5177 40.7934 50.9518C36.6755 46.772 31.9096 41.9344 21.5 41.9344Z" fill="url(#paint0_linear_121_303)"/>
</g>
</g>
<defs>
<linearGradient id="paint0_linear_121_303" x1="-232.833" y1="1629.53" x2="7021.94" y2="5812.47" gradientUnits="userSpaceOnUse">
<stop stop-color="#2298BD"/>
<stop offset="1" stop-color="#0ED7B5"/>
</linearGradient>
<clipPath id="clip0_121_303">
<rect width="84" height="84" fill="white" transform="translate(0.5)"/>
</clipPath>
</defs>
</svg>
