<svg width="60" height="60" viewBox="0 0 60 60" fill="none" xmlns="http://www.w3.org/2000/svg">
<g clip-path="url(#clip0_121_96)">
<path d="M8.37204 38.9261C7.96878 38.9261 7.58204 38.7659 7.2969 38.4807C7.01175 38.1956 6.85156 37.8089 6.85156 37.4056V26.5595C6.85156 26.1563 7.01175 25.7695 7.2969 25.4844C7.58204 25.1993 7.96878 25.0391 8.37204 25.0391C8.77529 25.0391 9.16203 25.1993 9.44718 25.4844C9.73232 25.7695 9.89251 26.1563 9.89251 26.5595V37.4056C9.89251 37.8089 9.73232 38.1956 9.44718 38.4807C9.16203 38.7659 8.77529 38.9261 8.37204 38.9261Z" fill="#FF6A3F"/>
<path d="M15.2232 14.7081C13.7687 14.7081 12.3469 14.2768 11.1375 13.4687C9.92813 12.6606 8.98555 11.5121 8.42894 10.1683C7.87233 8.82453 7.72669 7.34588 8.01045 5.91934C8.29421 4.49279 8.99461 3.18243 10.0231 2.15395C11.0516 1.12547 12.3619 0.425066 13.7885 0.141309C15.215 -0.142448 16.6937 0.00318646 18.0374 0.559796C19.3812 1.11641 20.5298 2.05899 21.3378 3.26836C22.1459 4.47772 22.5772 5.89955 22.5772 7.35404C22.5751 9.30379 21.7996 11.1731 20.4209 12.5518C19.0422 13.9304 17.1729 14.7059 15.2232 14.7081ZM15.2232 3.04096C14.3701 3.04096 13.5362 3.29391 12.827 3.76784C12.1177 4.24177 11.5649 4.91538 11.2384 5.70349C10.912 6.49161 10.8265 7.35882 10.993 8.19548C11.1594 9.03214 11.5702 9.80065 12.1734 10.4038C12.7766 11.007 13.5451 11.4178 14.3817 11.5842C15.2184 11.7507 16.0856 11.6653 16.8737 11.3388C17.6618 11.0124 18.3354 10.4595 18.8094 9.75026C19.2833 9.04098 19.5363 8.20709 19.5363 7.35404C19.5349 6.21055 19.0801 5.11428 18.2715 4.30571C17.4629 3.49714 16.3667 3.0423 15.2232 3.04096Z" fill="#FF6A3F"/>
<path d="M39.1992 26.0835C38.9056 26.0837 38.6182 25.9989 38.3718 25.8393C38.1253 25.6797 37.9304 25.4522 37.8104 25.1842C37.6905 24.9163 37.6507 24.6193 37.6958 24.3292C37.741 24.0391 37.8692 23.7682 38.0649 23.5494L46.3262 14.2887C46.4593 14.1397 46.6204 14.0183 46.8005 13.9316C46.9805 13.8449 47.1758 13.7944 47.3753 13.7832C47.5748 13.7719 47.7746 13.8001 47.9632 13.866C48.1518 13.932 48.3256 14.0344 48.4746 14.1676C48.6236 14.3007 48.745 14.4618 48.8317 14.6419C48.9184 14.8219 48.9689 15.0172 48.9801 15.2167C48.9914 15.4162 48.9632 15.616 48.8973 15.8046C48.8313 15.9932 48.7288 16.167 48.5957 16.316L40.3345 25.5716C40.1921 25.7323 40.0173 25.8609 39.8216 25.9492C39.626 26.0374 39.4138 26.0832 39.1992 26.0835Z" fill="#FF6A3F"/>
<path d="M55.438 39.8134H28.1576C27.7544 39.8134 27.3676 39.6532 27.0825 39.368C26.7973 39.0829 26.6371 38.6961 26.6371 38.2929C26.6371 37.8896 26.7973 37.5029 27.0825 37.2177C27.3676 36.9326 27.7544 36.7724 28.1576 36.7724H55.438C55.8413 36.7724 56.228 36.6122 56.5131 36.3271C56.7983 36.0419 56.9585 35.6552 56.9585 35.2519V4.5961C56.9585 4.19284 56.7983 3.8061 56.5131 3.52096C56.228 3.23581 55.8413 3.07562 55.438 3.07562H25.6103C25.2071 3.07562 24.8203 2.91543 24.5352 2.63028C24.25 2.34514 24.0898 1.9584 24.0898 1.55514C24.0898 1.15189 24.25 0.76515 24.5352 0.480005C24.8203 0.19486 25.2071 0.034668 25.6103 0.034668H55.438C56.6478 0.034668 57.808 0.515246 58.6634 1.37068C59.5188 2.22611 59.9994 3.38633 59.9994 4.5961V35.2519C59.9994 36.4617 59.5188 37.6219 58.6634 38.4773C57.808 39.3328 56.6478 39.8134 55.438 39.8134Z" fill="#FF6A3F"/>
<path d="M15.2233 60.001H8.37204C7.96878 60.001 7.58204 59.8408 7.2969 59.5557C7.01175 59.2705 6.85156 58.8838 6.85156 58.4805V37.4057C6.85156 37.0025 7.01175 36.6157 7.2969 36.3306C7.58204 36.0454 7.96878 35.8853 8.37204 35.8853C8.77529 35.8853 9.16203 36.0454 9.44718 36.3306C9.73232 36.6157 9.89251 37.0025 9.89251 37.4057V56.9601H15.2233C15.6266 56.9601 16.0133 57.1203 16.2984 57.4054C16.5836 57.6905 16.7438 58.0773 16.7438 58.4805C16.7438 58.8838 16.5836 59.2705 16.2984 59.5557C16.0133 59.8408 15.6266 60.001 15.2233 60.001Z" fill="#FF6A3F"/>
<path d="M22.0763 60.0008H15.224C14.8208 60.0008 14.434 59.8406 14.1489 59.5555C13.8637 59.2703 13.7035 58.8836 13.7035 58.4803V38.2925C13.7035 37.8892 13.8637 37.5025 14.1489 37.2173C14.434 36.9322 14.8208 36.772 15.224 36.772C15.6273 36.772 16.014 36.9322 16.2992 37.2173C16.5843 37.5025 16.7445 37.8892 16.7445 38.2925V56.9599H20.5558V28.2127C20.5557 27.5817 20.7428 26.9648 21.0934 26.4401C21.4439 25.9154 21.9423 25.5065 22.5253 25.265C23.1083 25.0236 23.7499 24.9605 24.3688 25.0837C24.9877 25.207 25.5561 25.511 26.0022 25.9574L28.3853 28.3374C28.5618 28.5148 28.7717 28.6554 29.003 28.7511C29.2342 28.8468 29.4821 28.8957 29.7324 28.8949H36.8087C37.0623 28.895 37.3134 28.8444 37.5472 28.7462C37.781 28.648 37.9929 28.504 38.1704 28.3229C38.3479 28.1417 38.4874 27.9269 38.5808 27.6911C38.6742 27.4554 38.7196 27.2033 38.7144 26.9497C38.6931 25.9209 37.8081 25.0846 36.7418 25.0846H31.1475C30.7443 25.0843 30.3579 24.9238 30.073 24.6386L26.7999 21.3665C26.2061 20.7693 25.4997 20.2958 24.7215 19.9736C23.9434 19.6513 23.1091 19.4867 22.2669 19.4893H21.087L18.789 21.4C17.7879 22.232 16.5273 22.6875 15.2255 22.6875C13.9238 22.6875 12.6631 22.232 11.662 21.4L9.36208 19.4893H8.37275C6.95917 19.4909 5.60394 20.0531 4.60438 21.0527C3.60482 22.0523 3.04256 23.4075 3.04095 24.8211C3.04095 25.2243 2.88076 25.6111 2.59561 25.8962C2.31047 26.1814 1.92373 26.3415 1.52048 26.3415C1.11722 26.3415 0.730481 26.1814 0.445337 25.8962C0.160192 25.6111 0 25.2243 0 24.8211C0.00241478 22.6012 0.885317 20.473 2.45499 18.9033C4.02466 17.3336 6.1529 16.4507 8.37275 16.4483H9.91147C10.2666 16.4484 10.6106 16.5729 10.8836 16.8001L13.6042 19.0615C14.0596 19.4408 14.6334 19.6485 15.226 19.6485C15.8187 19.6485 16.3925 19.4408 16.8479 19.0615L19.5665 16.799C19.8395 16.5719 20.1834 16.4474 20.5386 16.4473H22.2689C23.5105 16.4439 24.7406 16.6868 25.8877 17.162C27.0348 17.6371 28.0763 18.3351 28.9519 19.2156L31.78 22.0437H36.7469C39.4574 22.0437 41.7056 24.2169 41.7594 26.8889C41.7727 27.5468 41.6547 28.2008 41.4121 28.8125C41.1696 29.4242 40.8074 29.9814 40.3468 30.4514C39.8863 30.9214 39.3366 31.2948 38.7299 31.5497C38.1232 31.8046 37.4718 31.9359 36.8138 31.9359H29.7283C29.0786 31.9377 28.435 31.8106 27.8347 31.562C27.2344 31.3134 26.6894 30.9481 26.2312 30.4874L23.8522 28.1053C23.8327 28.086 23.8084 28.0724 23.7819 28.0658C23.7553 28.0592 23.7274 28.0599 23.7012 28.0678C23.6715 28.0778 23.6458 28.0969 23.6276 28.1224C23.6094 28.1478 23.5997 28.1784 23.5998 28.2097V58.4773C23.6002 58.6775 23.5611 58.8758 23.4847 59.0608C23.4082 59.2458 23.296 59.4139 23.1545 59.5555C23.0129 59.697 22.8448 59.8092 22.6598 59.8857C22.4748 59.9621 22.2765 60.0012 22.0763 60.0008Z" fill="#FF6A3F"/>
<path d="M4.94661 42.3524C3.6351 42.351 2.37769 41.8294 1.45031 40.9021C0.522932 39.9747 0.0013417 38.7173 0 37.4058V24.8203C0 24.417 0.160192 24.0303 0.445337 23.7451C0.730481 23.46 1.11722 23.2998 1.52048 23.2998C1.92373 23.2998 2.31047 23.46 2.59561 23.7451C2.88076 24.0303 3.04095 24.417 3.04095 24.8203V37.4058C3.04095 37.9112 3.24173 38.3959 3.59911 38.7533C3.95649 39.1107 4.4412 39.3114 4.94661 39.3114C5.45203 39.3114 5.93674 39.1107 6.29412 38.7533C6.6515 38.3959 6.85228 37.9112 6.85228 37.4058C6.85228 37.0025 7.01247 36.6158 7.29761 36.3306C7.58276 36.0455 7.9695 35.8853 8.37275 35.8853C8.77601 35.8853 9.16275 36.0455 9.44789 36.3306C9.73304 36.6158 9.89323 37.0025 9.89323 37.4058C9.89189 38.7173 9.3703 39.9747 8.44292 40.9021C7.51554 41.8294 6.25813 42.351 4.94661 42.3524Z" fill="#FF6A3F"/>
<path d="M47.8482 60.0009H1.52438C1.12113 60.0009 0.734387 59.8407 0.449243 59.5556C0.164098 59.2704 0.00390625 58.8837 0.00390625 58.4804C0.00390625 58.0772 0.164098 57.6904 0.449243 57.4053C0.734387 57.1202 1.12113 56.96 1.52438 56.96H47.8482C48.2515 56.96 48.6382 57.1202 48.9234 57.4053C49.2085 57.6904 49.3687 58.0772 49.3687 58.4804C49.3687 58.8837 49.2085 59.2704 48.9234 59.5556C48.6382 59.8407 48.2515 60.0009 47.8482 60.0009Z" fill="#FF6A3F"/>
<path d="M39.5755 16.8217H31.6924C31.2891 16.8217 30.9024 16.6615 30.6172 16.3764C30.3321 16.0912 30.1719 15.7045 30.1719 15.3012C30.1719 14.898 30.3321 14.5112 30.6172 14.2261C30.9024 13.941 31.2891 13.7808 31.6924 13.7808H39.5755C39.9788 13.7808 40.3655 13.941 40.6506 14.2261C40.9358 14.5112 41.096 14.898 41.096 15.3012C41.096 15.7045 40.9358 16.0912 40.6506 16.3764C40.3655 16.6615 39.9788 16.8217 39.5755 16.8217Z" fill="#FF6A3F"/>
<path d="M47.4587 9.94818H31.6924C31.2891 9.94818 30.9024 9.78799 30.6172 9.50284C30.3321 9.2177 30.1719 8.83096 30.1719 8.4277C30.1719 8.02445 30.3321 7.63771 30.6172 7.35256C30.9024 7.06742 31.2891 6.90723 31.6924 6.90723H47.4587C47.8619 6.90723 48.2487 7.06742 48.5338 7.35256C48.819 7.63771 48.9791 8.02445 48.9791 8.4277C48.9791 8.83096 48.819 9.2177 48.5338 9.50284C48.2487 9.78799 47.8619 9.94818 47.4587 9.94818Z" fill="#FF6A3F"/>
</g>
<defs>
<clipPath id="clip0_121_96">
<rect width="60" height="60" fill="white"/>
</clipPath>
</defs>
</svg>
