<svg width="69" height="69" viewBox="0 0 69 69" fill="none" xmlns="http://www.w3.org/2000/svg">
<path d="M22.1246 26.022C21.9257 26.1837 21.791 26.411 21.7445 26.6631C21.698 26.9151 21.7428 27.1755 21.8709 27.3976L24.5241 31.9933C24.6519 32.2158 24.8551 32.3852 25.0969 32.4711C25.3387 32.5569 25.6033 32.5534 25.8428 32.4613L29.1203 31.2094C29.2392 31.1669 29.3664 31.1525 29.4919 31.1673C29.6174 31.1821 29.7378 31.2257 29.8436 31.2947C29.9449 31.3526 30.032 31.4324 30.0984 31.5283C30.1648 31.6243 30.2089 31.7338 30.2274 31.849L30.7823 35.3129C30.8228 35.5661 30.9522 35.7965 31.1473 35.9628C31.3424 36.1291 31.5903 36.2205 31.8467 36.2205H37.1531C37.4094 36.2205 37.6574 36.1291 37.8525 35.9628C38.0475 35.7965 38.177 35.5661 38.2175 35.3129L38.7724 31.8496C38.7943 31.7263 38.8443 31.6098 38.9185 31.509C38.9927 31.4082 39.0892 31.3259 39.2004 31.2684C39.3019 31.2081 39.4156 31.1716 39.5332 31.1613C39.6508 31.1511 39.7691 31.1676 39.8795 31.2094L43.157 32.4613C43.3965 32.5536 43.6611 32.5571 43.9029 32.4713C44.1448 32.3854 44.348 32.2159 44.4757 31.9933L47.1289 27.3976C47.257 27.1755 47.3018 26.9151 47.2553 26.6631C47.2088 26.411 47.074 26.1837 46.8752 26.022L44.1377 23.7978C44.0436 23.7205 43.9683 23.6228 43.9175 23.512C43.8667 23.4013 43.8417 23.2805 43.8445 23.1588C43.8443 23.0406 43.8705 22.924 43.9212 22.8173C43.972 22.7106 44.046 22.6167 44.1377 22.5423L46.8752 20.3181C47.074 20.1564 47.2088 19.9292 47.2553 19.6771C47.3018 19.425 47.257 19.1646 47.1289 18.9426L44.4757 14.3469C44.3475 14.1247 44.1443 13.9555 43.9026 13.8698C43.6609 13.784 43.3965 13.7872 43.157 13.8789L39.8784 15.1307C39.7599 15.1737 39.633 15.1884 39.5078 15.1738C39.3826 15.1592 39.2626 15.1156 39.1572 15.0465C39.0557 14.9885 38.9684 14.9085 38.9018 14.8124C38.8353 14.7163 38.791 14.6065 38.7723 14.4911L38.2175 11.0272C38.177 10.7741 38.0475 10.5437 37.8525 10.3774C37.6574 10.211 37.4094 10.1197 37.1531 10.1196H31.8467C31.5903 10.1197 31.3424 10.211 31.1473 10.3774C30.9522 10.5437 30.8228 10.7741 30.7823 11.0272L30.2274 14.4906C30.2055 14.6138 30.1555 14.7303 30.0812 14.8311C30.007 14.9319 29.9106 15.0142 29.7994 15.0717C29.6979 15.1316 29.5842 15.168 29.4668 15.1782C29.3494 15.1884 29.2311 15.1722 29.1208 15.1307L25.8428 13.8788C25.6032 13.7874 25.3389 13.7843 25.0973 13.87C24.8556 13.9558 24.6524 14.1248 24.5241 14.3468L21.8709 18.9425C21.7428 19.1646 21.698 19.425 21.7445 19.677C21.791 19.9291 21.9257 20.1564 22.1246 20.3181L24.862 22.5423C24.9561 22.6196 25.0314 22.7173 25.0822 22.8281C25.133 22.9388 25.158 23.0596 25.1553 23.1813C25.1555 23.2995 25.1293 23.4162 25.0784 23.5229C25.0276 23.6296 24.9535 23.7235 24.8615 23.7978L22.1246 26.022ZM26.2218 20.8693L24.1982 19.2248L25.9322 16.221L28.3506 17.1448C28.7648 17.2978 29.2075 17.3577 29.6474 17.3203C30.0873 17.2828 30.5136 17.149 30.896 16.9283C31.2783 16.7075 31.6074 16.4053 31.8597 16.043C32.1121 15.6808 32.2816 15.2674 32.3562 14.8323L32.7658 12.2759H36.2339L36.6435 14.8328C36.7147 15.2708 36.8838 15.6871 37.1382 16.0508C37.3926 16.4145 37.7257 16.7161 38.1127 16.9332C38.4921 17.1574 38.9172 17.293 39.3564 17.3296C39.7955 17.3662 40.2373 17.3031 40.6485 17.1449L43.0675 16.221L44.8015 19.2248L42.7785 20.8693C42.4377 21.1482 42.1632 21.4992 41.9746 21.8971C41.7861 22.2949 41.6883 22.7297 41.6882 23.17C41.6882 23.6103 41.7859 24.045 41.9743 24.443C42.1628 24.8409 42.4373 25.1919 42.7779 25.4709L44.8016 27.1154L43.0675 30.1192L40.6491 29.1953C40.2349 29.0426 39.7922 28.9828 39.3524 29.0203C38.9125 29.0578 38.4864 29.1917 38.1041 29.4124C37.7218 29.6331 37.3927 29.9353 37.1403 30.2974C36.8879 30.6596 36.7183 31.0729 36.6435 31.5079L36.2339 34.0642H32.7658L32.3563 31.5074C32.2815 31.0723 32.1119 30.659 31.8595 30.2969C31.6071 29.9348 31.278 29.6326 30.8957 29.4119C30.5134 29.1913 30.0872 29.0575 29.6473 29.02C29.2075 28.9826 28.7648 29.0424 28.3507 29.1953L25.9323 30.1192L24.1982 27.1154L26.2213 25.4708C26.562 25.192 26.8366 24.841 27.0251 24.4431C27.2137 24.0453 27.3115 23.6105 27.3115 23.1702C27.3116 22.7299 27.2139 22.2951 27.0254 21.8972C26.8369 21.4993 26.5625 21.1482 26.2218 20.8693Z" fill="#FF6A3F"/>
<path d="M34.4996 28.333C35.8687 28.3316 37.1813 27.7871 38.1494 26.819C39.1176 25.851 39.6622 24.5384 39.6638 23.1693C39.6659 23.0456 39.6548 22.9221 39.6306 22.8008C39.5743 22.5168 39.4087 22.2663 39.1694 22.1032C38.9301 21.9401 38.6364 21.8776 38.3514 21.929C38.2138 21.9536 38.0826 22.0054 37.9653 22.0814C37.848 22.1574 37.7471 22.2561 37.6685 22.3716C37.5899 22.4872 37.5352 22.6172 37.5075 22.7542C37.4799 22.8912 37.4799 23.0323 37.5076 23.1693C37.5076 23.7642 37.3311 24.3458 37.0006 24.8404C36.6701 25.3351 36.2003 25.7206 35.6507 25.9483C35.1011 26.176 34.4963 26.2355 33.9128 26.1195C33.3293 26.0034 32.7933 25.7169 32.3726 25.2963C31.952 24.8756 31.6655 24.3396 31.5494 23.7561C31.4334 23.1726 31.4929 22.5678 31.7206 22.0182C31.9483 21.4686 32.3338 20.9988 32.8285 20.6683C33.3231 20.3377 33.9047 20.1613 34.4996 20.1613C34.7447 20.1582 34.989 20.1901 35.225 20.2561C35.4985 20.3366 35.7927 20.3055 36.0433 20.1697C36.2939 20.0339 36.4805 19.8043 36.5624 19.5313C36.6442 19.2582 36.6146 18.9639 36.48 18.7126C36.3454 18.4613 36.1167 18.2736 35.8441 18.1904C35.4073 18.0636 34.9544 18.0012 34.4996 18.0051C33.8208 18.0041 33.1485 18.1369 32.5211 18.396C31.8937 18.6551 31.3236 19.0353 30.8433 19.5149C30.363 19.9945 29.9819 20.5641 29.7219 21.1911C29.4619 21.8182 29.3281 22.4903 29.3281 23.169C29.3281 23.8478 29.4619 24.5199 29.7219 25.147C29.9819 25.774 30.363 26.3436 30.8433 26.8232C31.3236 27.3028 31.8937 27.683 32.5211 27.9421C33.1485 28.2012 33.8208 28.334 34.4996 28.333Z" fill="#FF6A3F"/>
<path d="M8.39839 29.4437C8.68433 29.4437 8.95854 29.3301 9.16073 29.1279C9.36291 28.9258 9.47651 28.6515 9.47652 28.3656V24.1715C9.47859 23.6585 9.68403 23.1673 10.0478 22.8055C10.4115 22.4437 10.9039 22.241 11.4169 22.2417H18.5111C18.797 22.2417 19.0712 22.1281 19.2734 21.9259C19.4756 21.7237 19.5892 21.4495 19.5892 21.1636C19.5892 20.8776 19.4756 20.6034 19.2734 20.4012C19.0712 20.199 18.797 20.0854 18.5111 20.0854H11.417C10.3322 20.0853 9.29175 20.5154 8.52375 21.2814C7.75574 22.0474 7.32295 23.0868 7.32031 24.1715V28.3656C7.32033 28.6515 7.43391 28.9257 7.63609 29.1279C7.83826 29.3301 8.11247 29.4437 8.39839 29.4437Z" fill="#FF6A3F"/>
<path d="M13.4941 45.683V26.2583H18.5089C18.7948 26.2583 19.0691 26.1447 19.2712 25.9425C19.4734 25.7403 19.587 25.4661 19.587 25.1802C19.587 24.8942 19.4734 24.62 19.2712 24.4178C19.0691 24.2156 18.7948 24.1021 18.5089 24.1021H12.416C12.1301 24.1021 11.8559 24.2156 11.6537 24.4178C11.4515 24.62 11.3379 24.8942 11.3379 25.1802V46.7611C11.3379 47.047 11.4515 47.3212 11.6537 47.5234C11.8559 47.7256 12.1301 47.8392 12.416 47.8392H56.5823C56.8682 47.8392 57.1424 47.7256 57.3446 47.5234C57.5468 47.3212 57.6604 47.047 57.6604 46.7611V25.1802C57.6604 24.8942 57.5468 24.62 57.3446 24.4178C57.1425 24.2156 56.8682 24.1021 56.5823 24.1021H50.4894C50.2035 24.1021 49.9292 24.2156 49.7271 24.4178C49.5249 24.62 49.4113 24.8942 49.4113 25.1802C49.4113 25.4661 49.5249 25.7403 49.7271 25.9425C49.9292 26.1447 50.2035 26.2583 50.4894 26.2583H55.5042V45.683H13.4941Z" fill="#FF6A3F"/>
<path d="M63.6094 49.7017H61.6795V24.1715C61.6769 23.0868 61.2441 22.0474 60.4761 21.2814C59.7081 20.5154 58.6676 20.0853 57.5829 20.0854H50.4887C50.2027 20.0854 49.9285 20.199 49.7263 20.4012C49.5241 20.6034 49.4106 20.8776 49.4106 21.1636C49.4106 21.4495 49.5241 21.7237 49.7263 21.9259C49.9285 22.1281 50.2027 22.2417 50.4887 22.2417H57.5828C58.0959 22.241 58.5882 22.4437 58.952 22.8055C59.3157 23.1673 59.5212 23.6585 59.5232 24.1715V49.7017H53.7015C53.4155 49.7017 53.1413 49.8153 52.9391 50.0175C52.7369 50.2197 52.6233 50.4939 52.6233 50.7799C52.6233 51.0658 52.7369 51.34 52.9391 51.5422C53.1413 51.7444 53.4155 51.858 53.7015 51.858H62.5312V54.5638C62.5307 55.1355 62.3033 55.6836 61.8991 56.0879C61.4948 56.4921 60.9467 56.7195 60.375 56.7201H8.625C8.0533 56.7195 7.50518 56.4921 7.10093 56.0879C6.69668 55.6836 6.46932 55.1355 6.46875 54.5638V51.858H26.9229L27.9386 53.7447C28.2024 54.2356 28.5943 54.6459 29.0728 54.9317C29.5512 55.2175 30.0982 55.3681 30.6555 55.3677H38.3445C38.9018 55.3681 39.4488 55.2175 39.9272 54.9317C40.4057 54.6459 40.7976 54.2356 41.0614 53.7447L42.0771 51.858H49.3889C49.6748 51.858 49.9491 51.7444 50.1513 51.5422C50.3534 51.34 50.467 51.0658 50.467 50.7799C50.467 50.4939 50.3534 50.2197 50.1513 50.0175C49.9491 49.8153 49.6748 49.7017 49.3889 49.7017H41.4633C41.4537 49.7015 41.4448 49.6981 41.4352 49.6981H27.5648C27.5551 49.6981 27.5463 49.7015 27.5367 49.7017H9.47672V32.6781C9.47672 32.3922 9.36313 32.118 9.16094 31.9158C8.95876 31.7136 8.68453 31.6 8.39859 31.6C8.11266 31.6 7.83843 31.7136 7.63624 31.9158C7.43406 32.118 7.32047 32.3922 7.32047 32.6781V49.7017H5.39062C5.10469 49.7017 4.83046 49.8153 4.62828 50.0175C4.42609 50.2197 4.3125 50.4939 4.3125 50.7799V54.5638C4.31381 55.7072 4.76858 56.8033 5.57705 57.6118C6.38551 58.4202 7.48166 58.875 8.625 58.8763H60.375C61.5183 58.875 62.6145 58.4202 63.423 57.6118C64.2314 56.8033 64.6862 55.7072 64.6875 54.5638V50.7799C64.6875 50.4939 64.5739 50.2197 64.3717 50.0175C64.1695 49.8153 63.8953 49.7017 63.6094 49.7017ZM39.6286 51.858L39.1632 52.7224C39.0836 52.8702 38.9655 52.9938 38.8214 53.0799C38.6772 53.166 38.5124 53.2115 38.3446 53.2114H30.6555C30.4876 53.2115 30.3228 53.166 30.1787 53.0799C30.0346 52.9938 29.9164 52.8702 29.8369 52.7224L29.3714 51.858H39.6286Z" fill="#FF6A3F"/>
</svg>
