<svg version="1.2" xmlns="http://www.w3.org/2000/svg" viewBox="0 0 300 300" width="300" height="300">
	<title>tt-software-mini-branding-CI-ai</title>
	<style>
		.s0 { fill: #000000;stroke: #000000;stroke-miterlimit:10;stroke-width: 2 } 
		.s1 { fill: #f06642;stroke: #f06642;stroke-miterlimit:10;stroke-width: 2 } 
	</style>
	<g id="Layer 1">
		<g id="&lt;Group&gt;">
			<path id="&lt;Path&gt;" class="s0" d="m211.6 101.6c0 0-15.3-52.7-83.4-51.6-48 0.8-67.1 36.7-74.2 58-2.6 7.7-3.9 15.8-3.9 24v16.3c0 0-41 0.2-39 47.1 2 46.9 45.3 54.2 45.3 54.2l54.9-91.9 19.1-0.2-56.6 92.1h19.5l51.5-92.1h18l-51.5 92.1h15.5z"/>
			<path id="&lt;Path&gt;" class="s1" d="m226 105.2l-81.1 144.4h81.1c0 0 64.5-1.8 63.8-72.2-0.7-70.4-63.8-72.2-63.8-72.2z"/>
		</g>
	</g>
</svg>