<svg width="83" height="82" viewBox="0 0 83 82" fill="none" xmlns="http://www.w3.org/2000/svg">
<g id="typescript 1" clip-path="url(#clip0_121_240)">
<g id="Group">
<path id="Vector" d="M8.50781 0H74.4922C78.9147 0 82.5 3.58526 82.5 8.00781V73.9922C82.5 78.4147 78.9147 82 74.4922 82H8.50781C4.08526 82 0.5 78.4147 0.5 73.9922V8.00781C0.5 3.58526 4.08526 0 8.50781 0Z" fill="#3178C6"/>
<path id="Vector_2" d="M8.50781 0H74.4922C78.9147 0 82.5 3.58526 82.5 8.00781V73.9922C82.5 78.4147 78.9147 82 74.4922 82H8.50781C4.08526 82 0.5 78.4147 0.5 73.9922V8.00781C0.5 3.58526 4.08526 0 8.50781 0Z" fill="#3178C6"/>
<path id="Vector_3" fill-rule="evenodd" clip-rule="evenodd" d="M51.2598 65.2515V73.2691C52.5631 73.9373 54.1046 74.4382 55.8843 74.7723C57.6639 75.1064 59.5395 75.2734 61.5114 75.2734C64.9097 75.2734 68.63 74.7874 71.5375 72.9057C74.4305 71.0333 75.7734 67.9184 75.7734 64.55C75.7734 62.0457 74.9965 59.6358 73.2418 57.8105C70.6106 55.0733 66.9131 53.9632 63.5916 52.3359C61.9278 51.5207 59.6315 50.2551 59.6315 48.114C59.6315 47.5629 59.7735 47.0661 60.0576 46.6234C61.1999 44.8436 63.7369 44.4812 65.6722 44.4812C67.8691 44.4812 70.1869 44.973 72.2268 45.8841C72.9369 46.2016 73.5928 46.569 74.1943 46.9866V39.4952C72.9745 39.0275 71.6419 38.6809 70.1965 38.4554C68.7511 38.2299 67.0925 38.1172 65.2211 38.1172C63.316 38.1172 61.5114 38.3219 59.807 38.7311C58.1026 39.1403 56.6029 39.7791 55.3077 40.6477C54.0127 41.5163 52.9893 42.6229 52.2374 43.9675C51.4854 45.312 51.1094 46.9197 51.1094 48.7905C51.1094 51.1791 51.7987 53.2169 53.1773 54.904C54.5558 56.5909 56.6487 58.019 59.4561 59.1883C61.3446 59.9606 63.3083 60.7228 65.0079 61.8692C66.1858 62.6635 67.2512 63.7713 67.2512 65.2765C67.2512 66.3689 66.6336 67.2951 65.7348 67.8697C64.4051 68.7198 62.7021 68.9095 61.1603 68.9095C59.4224 68.9095 57.7014 68.6047 55.9969 67.995C54.2926 67.3854 52.7135 66.4709 51.2598 65.2515ZM37.7812 45.4975H48.0664V38.918H19.3984V45.4975H29.6334V74.793H37.7812V45.4975Z" fill="white"/>
</g>
</g>
<defs>
<clipPath id="clip0_121_240">
<rect width="82" height="82" fill="white" transform="translate(0.5)"/>
</clipPath>
</defs>
</svg>
