<svg width="50" height="50" viewBox="0 0 50 50" fill="none" xmlns="http://www.w3.org/2000/svg">
<g clip-path="url(#clip0_121_39)">
<path d="M45.6055 0.0976562H4.39453C1.97139 0.0976562 0 2.06904 0 4.49219V45.5078C0 47.931 1.97139 49.9023 4.39453 49.9023H45.6055C48.0286 49.9023 50 47.931 50 45.5078V4.49219C50 2.06904 48.0286 0.0976562 45.6055 0.0976562ZM4.39453 3.02734H45.6055C46.4132 3.02734 47.0703 3.68447 47.0703 4.49219V11.8164H2.92969V4.49219C2.92969 3.68447 3.58682 3.02734 4.39453 3.02734ZM45.6055 46.9727H4.39453C3.58682 46.9727 2.92969 46.3155 2.92969 45.5078V14.7461H47.0703V45.5078C47.0703 46.3155 46.4132 46.9727 45.6055 46.9727Z" fill="#FF6A3F"/>
<path d="M29.972 19.2589C29.2284 18.9403 28.3672 19.2847 28.0485 20.0283L19.2595 40.5361C18.9407 41.2796 19.2852 42.1409 20.0288 42.4595C20.7727 42.7783 21.6337 42.4335 21.9522 41.6902L30.7413 21.1824C31.0601 20.4387 30.7155 19.5776 29.972 19.2589Z" fill="#FF6A3F"/>
<path d="M17.3544 24.0849C16.8489 23.4532 15.927 23.3509 15.2955 23.8562L7.9713 29.7156C7.23898 30.3012 7.23849 31.4172 7.9713 32.0033L15.2955 37.8627C15.9273 38.3681 16.8492 38.2656 17.3544 37.634C17.8598 37.0022 17.7574 36.0803 17.1256 35.5751L11.2313 30.8594L17.1256 26.1439C17.7574 25.6385 17.8598 24.7168 17.3544 24.0849Z" fill="#FF6A3F"/>
<path d="M42.0284 29.7156L34.7042 23.8563C34.0724 23.3508 33.1506 23.4532 32.6453 24.085C32.1399 24.7167 32.2423 25.6386 32.8741 26.1439L38.7684 30.8595L32.8741 35.575C32.2423 36.0804 32.1399 37.0022 32.6453 37.6339C33.1513 38.2663 34.0733 38.3675 34.7042 37.8626L42.0284 32.0032C42.7607 31.4176 42.7612 30.3018 42.0284 29.7156Z" fill="#FF6A3F"/>
<path d="M7.42188 8.88672C8.23089 8.88672 8.88672 8.23089 8.88672 7.42188C8.88672 6.61286 8.23089 5.95703 7.42188 5.95703C6.61286 5.95703 5.95703 6.61286 5.95703 7.42188C5.95703 8.23089 6.61286 8.88672 7.42188 8.88672Z" fill="#FF6A3F"/>
<path d="M13.2812 8.88672C14.0903 8.88672 14.7461 8.23089 14.7461 7.42188C14.7461 6.61286 14.0903 5.95703 13.2812 5.95703C12.4722 5.95703 11.8164 6.61286 11.8164 7.42188C11.8164 8.23089 12.4722 8.88672 13.2812 8.88672Z" fill="#FF6A3F"/>
<path d="M19.1406 8.88672C19.9496 8.88672 20.6055 8.23089 20.6055 7.42188C20.6055 6.61286 19.9496 5.95703 19.1406 5.95703C18.3316 5.95703 17.6758 6.61286 17.6758 7.42188C17.6758 8.23089 18.3316 8.88672 19.1406 8.88672Z" fill="#FF6A3F"/>
<path d="M33.7891 8.88672H42.5781C43.3871 8.88672 44.043 8.23086 44.043 7.42188C44.043 6.61289 43.3871 5.95703 42.5781 5.95703H33.7891C32.9801 5.95703 32.3242 6.61289 32.3242 7.42188C32.3242 8.23086 32.9801 8.88672 33.7891 8.88672Z" fill="#FF6A3F"/>
</g>
<defs>
<clipPath id="clip0_121_39">
<rect width="50" height="50" fill="white"/>
</clipPath>
</defs>
</svg>
