<svg xmlns="http://www.w3.org/2000/svg" width="30" height="30" viewBox="0 0 30 30" fill="none">
    <path
        d="M29.9786 6.46237C29.9786 6.42809 30.0022 6.39473 30.0007 6.36084L20.8457 15.1821L29.9897 23.7217C29.9951 23.6607 29.9786 23.5991 29.9786 23.5368V6.46237Z"
        fill="#6C757D" />
    <path
        d="M19.4479 16.54L15.7106 20.1358C15.5215 20.3178 15.2772 20.409 15.0328 20.409C14.7935 20.409 14.5542 20.3217 14.3664 20.1466L10.6393 16.6735L1.43555 25.5449C1.65934 25.6253 1.89955 25.6877 2.1511 25.6877H27.9147C28.2883 25.6877 28.6386 25.5739 28.9432 25.4042L19.4479 16.54Z"
        fill="#6C757D" />
    <path
        d="M15.0215 18.0851L28.9932 4.62626C28.6769 4.43818 28.3087 4.31201 27.914 4.31201H2.15044C1.63651 4.31201 1.1656 4.51156 0.798828 4.8159L15.0215 18.0851Z"
        fill="#6C757D" />
    <path
        d="M0 6.79053V23.5369C0 23.7292 0.0441847 23.9145 0.0921493 24.0917L9.18169 15.3386L0 6.79053Z"
        fill="#6C757D" />
</svg>