<svg xmlns="http://www.w3.org/2000/svg" width="28" height="28" viewBox="0 0 28 28" fill="none">
  <g clip-path="url(#clip0_44_2706)">
    <path
      d="M13.9888 0C6.27702 0 0 6.27702 0 14.0112C0 21.7454 6.27702 28 13.9888 28C21.7006 28 27.9776 21.723 27.9776 14.0112C27.9776 6.29944 21.723 0 13.9888 0ZM17.4636 9.10168H15.8271C15.2442 9.10168 15.1321 9.34828 15.1321 9.93114V11.3883H17.486L17.2618 13.944H15.1545V21.5436H12.1281V13.9664H10.5588V11.3883H12.1281V9.34828C12.1281 7.44275 13.1369 6.45637 15.4011 6.45637H17.5084V9.10168H17.4636Z"
      fill="#6C757D" />
  </g>
  <defs>
    <clipPath id="clip0_44_2706">
      <rect width="28" height="28" fill="white" />
    </clipPath>
  </defs>
</svg>