<svg xmlns="http://www.w3.org/2000/svg" width="24" height="24" viewBox="0 0 24 24" fill="none">
    <g clip-path="url(#clip0_44_2683)">
        <path
            d="M23.4619 18.9673L19.7555 15.2604C19.0173 14.5251 17.7947 14.5475 17.0307 15.3117L15.1634 17.1786C15.0455 17.1136 14.9233 17.0457 14.795 16.9736C13.6158 16.3202 12.0019 15.4247 10.3035 13.7252C8.60019 12.022 7.70384 10.4056 7.04846 9.22568C6.97931 9.10067 6.91304 8.98015 6.84761 8.86569L8.10085 7.61431L8.71699 6.99742C9.48213 6.23207 9.50323 5.00986 8.7667 4.27243L5.06028 0.565184C4.32376 -0.171205 3.10065 -0.148865 2.33551 0.616483L1.29091 1.66708L1.31946 1.69542C0.969189 2.14235 0.676495 2.65782 0.458681 3.2137C0.257898 3.74283 0.132891 4.24775 0.0757314 4.75371C-0.413678 8.81101 1.44039 12.5191 6.47211 17.5509C13.4275 24.5057 19.0326 23.9803 19.2744 23.9547C19.801 23.8917 20.3057 23.7659 20.8187 23.5667C21.3697 23.3515 21.8848 23.0592 22.3315 22.7097L22.3543 22.7299L23.4126 21.6937C24.1761 20.9285 24.1981 19.7058 23.4619 18.9673Z"
            fill="#6C757D" />
    </g>
    <defs>
        <clipPath id="clip0_44_2683">
            <rect width="24" height="24" fill="white" />
        </clipPath>
    </defs>
</svg>