<svg version="1.2" xmlns="http://www.w3.org/2000/svg" viewBox="0 0 300 300" width="300" height="300">
	<title>tt-software-mini-branding-CI-ai</title>
	<style>
		.s0 { fill: #ffffff } 
		.s1 { fill: #000000;stroke: #000000;stroke-miterlimit:10;stroke-width: 2 } 
		.s2 { fill: #f06642;stroke: #f06642;stroke-miterlimit:10;stroke-width: 2 } 
	</style>
	<path id="Shape 1" class="s0" d="m0 46c0-25.4 20.6-46 46-46h208c25.4 0 46 20.6 46 46v208c0 25.4-20.6 46-46 46h-208c-25.4 0-46-20.6-46-46z"/>
	<g id="Layer 1">
		<g id="&lt;Group&gt;">
			<path id="&lt;Path&gt;" class="s1" d="m204.4 107.2c0 0-13.6-47.2-74.6-46.2-42.9 0.7-60 32.8-66.4 51.8-2.3 7-3.4 14.3-3.4 21.6v14.6c0 0-36.7 0.1-34.9 42.1 1.7 42 40.5 48.4 40.5 48.4l49.1-82.2 17.1-0.1-50.6 82.3h17.4l46.1-82.3h16.1l-46.1 82.3h13.9z"/>
			<path id="&lt;Path&gt;" class="s2" d="m217.3 110.4l-72.5 129.1h72.5c0 0 57.8-1.6 57.2-64.5-0.7-63-57.2-64.6-57.2-64.6z"/>
		</g>
	</g>
</svg>